<svg xmlns="http://www.w3.org/2000/svg" viewBox="0 0 480 64.2"><defs><style>.cls-1{fill:#262339;}.cls-2{fill:#fefefe;}.cls-3{fill:#dd9036;}.cls-4{fill:none;stroke:#fff;stroke-miterlimit:10;stroke-width:0.5px;}.cls-5{fill:#fff;}</style></defs><g id="圖層_2" data-name="圖層 2"><path d="M233.24,20.62l1-1c.48-.5.87-1.18,1.71-.95a1.41,1.41,0,0,1,.76.52c.07.12-.12.51-.3.68-.42.42-.73.77-.15,1.33.12.12.06.59-.08.79-.52.78-1.44.89-2.24,1.14a5.69,5.69,0,0,0-2.9,2.09c-1,1.24-2.07,2.39-3.11,3.58a5.39,5.39,0,0,0-.43.63l.15.21a10.08,10.08,0,0,0,1.28-.84c1.24-1.1,2.47-2.21,3.66-3.37a1.17,1.17,0,0,1,1.43-.25c1.44.62,1.95.41,2.59-1.12.48-1.14.91-2.29,1.37-3.42.69-1.68,1.46-3.34,2.06-5a16.44,16.44,0,0,0,.86-3.78,2.21,2.21,0,0,1,2.76-2.17,4.24,4.24,0,0,1,1.94,2.75,19.25,19.25,0,0,1-.67,6.18,11.4,11.4,0,0,0-.21,1.78c-.07.56-.18,1.12-.22,1.69a1.47,1.47,0,0,0,.15.92c.11.14.56.11.82,0,1.14-.32,3.62.58,4.19,1.59a1.32,1.32,0,0,1,.16.61,9.15,9.15,0,0,1-1.15,4.94c-.36.56,0,.9.41,1.17a10.83,10.83,0,0,1,3.21,3,5.08,5.08,0,0,1,.75,3c-.86.18-1.38-.36-1.92-.79-1.37-1.08-2.7-2.2-4.06-3.3a1,1,0,0,0-1.19,0,8,8,0,0,1-2.45,1.06,8.77,8.77,0,0,1-5.23-.75c-.46-.24-.59-.68-.18-1a2.09,2.09,0,0,0,.67-2.72c0-.07-.07-.13-.07-.2,0-.89.82-1.28,1.37-1.76.23-.21.82-.15,1.18,0a15.28,15.28,0,0,1,2.27,1,1.51,1.51,0,0,0,2.17-.53,3.21,3.21,0,0,0,.84-2.36c-.75.26-1.44.44-2.1.73-1.64.73-1.6.33-2.4-.52-1-1-1-2.26-1.14-3.5A1.09,1.09,0,0,1,241,22a5.57,5.57,0,0,0,.64-2.67,3,3,0,0,0-.17-.92c-.18.16-.34.23-.37.34-.42,2-1.68,3.64-2.61,5.41-1.16,2.22-2.49,4.36-3.74,6.54a2.2,2.2,0,0,0,.13,2.57,4,4,0,0,1-.14,4.39,6.62,6.62,0,0,1-1,1.3c-.95,1-1.28.83-2.13.22a1.93,1.93,0,0,0-2.14-.34c-.65.29-2-.66-2.09-1.39a.71.71,0,0,1,.09-.48c.93-1.34,1.87-2.68,2.83-4,.26-.37.62-.67.87-1a1.64,1.64,0,0,0,.27-.85c0-.67-.13-1.33-.22-2.18-.31.17-.58.32-.84.49-1.14.73-2.24,1.51-3.4,2.19A5.92,5.92,0,0,0,224.78,34c-.23.42-.45.84-.7,1.24a.63.63,0,0,1-1.1.13,2.4,2.4,0,0,1-.16-3.43c.77-1,1.36-2.17,2.1-3.22.43-.61,1-1.11,1.5-1.69a1.62,1.62,0,0,0,.21-.63c-.21,0-.46-.11-.63,0-.68.3-1.34.68-2,1-.42.18-.9.26-1.33.44a6.27,6.27,0,0,0-1.18.61.83.83,0,0,1-1.1,0,3.43,3.43,0,0,0-.84-.54A.84.84,0,0,1,219,26.8a5.83,5.83,0,0,1,.64-1.57.68.68,0,0,1,1.17,0c.5.63,1,.22,1.52,0,1-.38,2.07-.78,3.08-1.24,1.19-.53,2.35-1.12,3.52-1.7a4.19,4.19,0,0,1,.49-.29c.8-.2,1.08-.6.82-1.46-.14-.44.1-1,.1-1.48,0-.78-.27-.9-1.05-.8-.4.05-1.13-.09-1.19-.3a3.54,3.54,0,0,1,0-1.77c0-.15.76-.25,1.13-.18,1.16.2,1.64-.22,1.54-1.36a12.17,12.17,0,0,1,.13-1.59c.06-1,.1-2,.15-3a3.39,3.39,0,0,1,0-.64c.16-.76-.09-1.2-.83-1.22s-1-.38-.93-.92.56-.53,1-.55a3.22,3.22,0,0,1,3.26,3.54,35.43,35.43,0,0,0-.32,3.72c0,.44.35.46.71.46a8.15,8.15,0,0,1,1.86.18,1.46,1.46,0,0,1,.84.76c.07.16-.29.63-.56.78-.69.4-1.44.7-2.15,1.05a1.06,1.06,0,0,0-.75,1c0,.5-.1,1-.12,1.5A5.63,5.63,0,0,0,233.24,20.62ZM231.12,37a1.83,1.83,0,0,0,.68.07,3.16,3.16,0,0,0,2-3c0-.21-.28-.39-.42-.59a1.79,1.79,0,0,0-.42.4C232.35,34.87,231.78,35.87,231.12,37Zm10.58-6a1.3,1.3,0,0,0,.42-.09,4.9,4.9,0,0,0,.57-.45,2.07,2.07,0,0,0-.46-.55,7.22,7.22,0,0,0-1.36-.75.89.89,0,0,0-.72.13.62.62,0,0,0-.2.55A2.36,2.36,0,0,0,241.7,31Z"/><path d="M421.07,18.44c-.32.11-.6.18-.86.29s-.45.27-.69.35c-1.51.46-3,1-4.53,1.35-1.32.34-2.66.57-4,.82-.61.12-.92-.34-1.14-.79a1.16,1.16,0,0,1,.14-1.33,2,2,0,0,1,1.5-.93c.3,1,.53,1.05,1.45.65.49-.21,1-.36,1.52-.53,1-.35,2.06-.66,3.07-1.05a1.45,1.45,0,0,0,.62-.63c.19-.33.32-.33.68-.21a2.32,2.32,0,0,0,1.28,0c1.17-.33,2.32-.74,3.48-1.12.68-.23,1.41-.4,1.58-1.24a1.19,1.19,0,0,0-.11-.9,1,1,0,0,0-.85-.14,4.49,4.49,0,0,1-3.31-.51,1.9,1.9,0,0,1-.31-2.94,2.51,2.51,0,0,0,.23.57c.22.29.47.72.75.76a6,6,0,0,0,3.67-.68c.14-.08.34-.21.35-.32a20.19,20.19,0,0,0,0-2.2,1.17,1.17,0,0,0-.75-.16c-.45.08-.89.4-1.34-.14a2.91,2.91,0,0,1,1.92-1.63,5.17,5.17,0,0,1,2.2.08.65.65,0,0,1,.44.37,3.42,3.42,0,0,1,.21,2.68c-.25.55,0,.71.58.74,1.31,0,2.63.16,3.94.26s1.52,1,1.8,1.95c.24.74.47.86,1.08.43.11-.08.27-.2.37-.17.95.26,1.9.51,2.83.84a3.1,3.1,0,0,1,1.18.77,1.26,1.26,0,0,1,.29,1,.91.91,0,0,1-1,.75,32.5,32.5,0,0,0-3.27-.13c-2.37.1-4.75.26-7.12.44-.27,0-.52.29-.78.44v.25c.61.1,1.21.18,1.81.31a8.85,8.85,0,0,1,1.33.4c.66.26.64.76.39,1.3s-.27.72.36.78a1.5,1.5,0,0,1,.78.35c.88.82,1,1.46-.13,2s-2.55,1-3.81,1.56a1.58,1.58,0,0,0-.73.55c-.2.34-.44.85-.31,1.14a1.08,1.08,0,0,0,1.33.57,2.9,2.9,0,0,1,3.23,1,1,1,0,0,1,.06,1.37,4.21,4.21,0,0,1-2.36,1.64,6.22,6.22,0,0,0-3.23,3.09l1.88-.85a6.15,6.15,0,0,1,.71-.28c1.5-.49,3-1.06,4.52-1.43a3.14,3.14,0,0,1,3.06,1A2.92,2.92,0,0,1,437,33.2c-.64,1.18-1.17,2.42-1.87,3.56s-1.56,2.33-2.4,3.45a1.23,1.23,0,0,1-1.57.27,3.38,3.38,0,0,0-2.33-.24,4.47,4.47,0,0,1-2.1-.18c-.73-.19-.81-.75-.6-1.49a8.13,8.13,0,0,0,.29-2.25c0-.61-.67-.8-1.17-.4-.74.57-1.44,1.18-2.2,1.72a.83.83,0,0,1-.75,0,3.47,3.47,0,0,1-1-5.17,2.79,2.79,0,0,0,.26-1,3.64,3.64,0,0,0-.93,0,5.05,5.05,0,0,1-3.81-.68c-.15-.08-.32-.42-.27-.51a1.15,1.15,0,0,1,.62-.54,18.1,18.1,0,0,0,5-1.84c.74-.37,1.53-.63,2.3-.94a.78.78,0,0,0,.38-1.15c-.24-.44-.52-.85-1.11-.45-.22.15-.42.32-.65.45a.9.9,0,0,1-1.17-.16,1,1,0,0,1-.23-1.15A7.25,7.25,0,0,1,424.53,21c.26-.2.32-.63.47-1a3.23,3.23,0,0,0-.89-.26c-.76,0-1.53.11-2.3.13-.94,0-1.14-.33-.74-1.14C421.1,18.75,421.07,18.66,421.07,18.44Zm12.07,14.35c-.29,0-.39-.06-.47,0-.95.28-1.9.56-2.82.89-.11,0-.19.52-.09.67.42.61.92,1.18,1.46,1.85A18.27,18.27,0,0,0,433.14,32.79Z"/><path d="M86.39,18.53a5.37,5.37,0,0,0-.19,1.2.75.75,0,0,0,.51.48c.19,0,.57-.23.58-.38a2.09,2.09,0,0,0-.19-1.17c-.36-.59-.26-1,.41-1.17a2.22,2.22,0,0,1,2.72,3,21.43,21.43,0,0,0-1.06,3.45,3.75,3.75,0,0,0,.24,2c.6,1.47,1.35,2.87,2,4.3.18.38.29.76-.15,1.08a.8.8,0,0,1-1.14-.24,19.15,19.15,0,0,1-1.53-2,11,11,0,0,1-.56-1.26,1.42,1.42,0,0,0-.48-.63c-.12-.07-.54.13-.57.26a1,1,0,0,0,.18.76c.61.67.76,1.68,1.66,2.18.36.19.06,1.1-.4,1.21-.87.2-1.77.33-2.65.5a13.64,13.64,0,0,0-2,.41,5.64,5.64,0,0,1-3.06.28,3.64,3.64,0,0,1-1.58-.85c-.37-.33-.35-.78,0-1.26a6,6,0,0,1,2.51-1.56,6.06,6.06,0,0,0,2.82-3.19c.07-.15-.12-.44-.17-.59-1.18.4-2.27.71-3.32,1.12a8.69,8.69,0,0,0-1.78,1c-.54.39-.83.38-.94-.26a2.56,2.56,0,0,1,.15-1.4,14,14,0,0,1,1-1.48,5.06,5.06,0,0,0,.3-1.1c-.72.24-1.26.37-1.76.6s-1.17.37-1.47-.08A2.41,2.41,0,0,1,76.22,22a4.32,4.32,0,0,1,.85-1.61c.56-.74,1.2-1.43,1.82-2.13.46-.51.4-.81-.17-1.19a2.87,2.87,0,0,1-.55-.68,3.79,3.79,0,0,1,.7-.51c.85-.37,1.83-.47,2.49-1.24.51-.59.4-1-.34-1.27s-1.72,0-2.58.1a9,9,0,0,1-1.8,0,2.89,2.89,0,0,1-1.81-2.16.79.79,0,0,1,.46-.55A4.26,4.26,0,0,1,77,10.38a12.33,12.33,0,0,0,5.63-1.29c1-.39,2-.59,3-.9s2.13-.61,3.16-1A4.56,4.56,0,0,1,94.61,9c.55.81,1,1.7,1.49,2.55a1,1,0,0,1,.12.4c.06,1.84.14,3.67.14,5.5s-.2,3.67-.1,5.5c.1,2.09.44,4.17.67,6.25.12,1.05.19,2.09.32,3.14.1.82.31,1.64.37,2.46a17,17,0,0,1,0,3.34,1.63,1.63,0,0,1-2.71.77c-.72-.77-1.36-1.61-2-2.4-.27-.31-.57-.58-.86-.87l-.93-1-1.36-1.53c-.25-.27-.74-.55-.4-.93a1.21,1.21,0,0,1,1.05-.12c.85.3,1.65.74,2.49,1.06a1.28,1.28,0,0,0,1,0c.2-.16.2-.65.19-1,0-.74-.14-1.48-.16-2.22-.06-2-.09-4-.15-6,0-.89-.15-1.78-.14-2.67a68.23,68.23,0,0,1,.2-7.3,3.93,3.93,0,0,0-1.37-3.46c-.33-.34-.66-.67-1-1-.76-.77-1.61-.57-2.53-.32a18.31,18.31,0,0,0-4.06,1.62c-.64.36-1.25.77-1.88,1.14-.4.23-.78.43-.49,1a1.36,1.36,0,0,0,1.41.9,2.76,2.76,0,0,1,1.29.25.82.82,0,0,1,.13,1.34c-.81.87-.83,1-.15,2C85.48,18,85.65,18.63,86.39,18.53Zm-4,.63a1.19,1.19,0,0,0-.27-.39c-.07-.06-.32,0-.41.09-.6.61-1.18,1.22-1.75,1.86a.66.66,0,0,0-.13.49c0,.1.27.18.42.19C81,21.45,82.38,20.09,82.38,19.16Zm-1.14,5.55a2.23,2.23,0,0,0,2.38-2.38C83,22.28,81.28,23.94,81.24,24.71Zm3.44-4.51a7.27,7.27,0,0,0-.55.6.65.65,0,0,0,.18,1c.36.21.76.36,1.13.54a5.77,5.77,0,0,0-.15-1.18A5.12,5.12,0,0,0,84.68,20.2Zm-1.33-1.64c.27-.29.59-.48.59-.67s-.43-.56-.49-.52a3.7,3.7,0,0,0-.73.65ZM86.56,28c-.74.15-.89.39-.72,1.15A.85.85,0,0,0,86.56,28Z"/><path d="M357.33,16.31A31.86,31.86,0,0,0,350.24,19c-1.05.58-2.19,1-3.27,1.53-2,1-3.92,2-5.83,3.08-.91.51-1.7,1.21-2.56,1.81-.23.17-.49.3-.73.45-1,.67-1.69.38-1.88-.86a3.29,3.29,0,0,0-.16-.77,1.71,1.71,0,0,1,.43-2c1.07-1.08,2.23-2.07,3.36-3.1a5.57,5.57,0,0,1,.9-.72c.21-.11.59-.19.74-.08s.2.49.17.73-.25.72-.3,1.09a.91.91,0,0,0,.19.71.94.94,0,0,0,.72-.08q2.07-.91,4.12-1.88c1.13-.54,2.24-1.13,3.38-1.66.94-.44,1.91-.8,2.85-1.25a18.44,18.44,0,0,0,2.51-1.38c.59-.42.43-.84-.29-1.1A8.88,8.88,0,0,0,353,12.9a1.54,1.54,0,0,0-1.13.38c-.17.15-.12.62-.07.94s.38.65.33.69a4.54,4.54,0,0,1-1.07.66.87.87,0,0,1-.57,0,1.25,1.25,0,0,0-1.44.33c-.61.59-1,.59-1.38.08s-.17-.95.48-1.33c.41-.24.4-.5.22-.87-.84-1.67-.82-1.66.46-3,.92-1,.72-1.2-.41-1.59a1.19,1.19,0,0,1-.51-.23.67.67,0,0,1-.2-.48c0-.09.25-.22.39-.23.51,0,1,0,1.53,0,.2,0,.52,0,.56-.06a.83.83,0,0,0,0-.67c-.35-.52-.5-1,.16-1.34a1.89,1.89,0,0,1,1.94.24c.28.44.64.84.2,1.47s-.2,1.15.67,1.19a12.68,12.68,0,0,0,2.22-.15c.42,0,.85-.87.69-1.33S355.63,6.66,355,7a1,1,0,0,1-1.35-.57c-.12-.38.12-.57.53-.56a.59.59,0,0,0,.39-.12c.89-.8,1.84-.4,2.76-.12,1.58.48,1.84,1.59,1.16,2.93a12.92,12.92,0,0,0-1.08,4.25c-.16,1.2,0,1.36,1.23,1.13a3.15,3.15,0,0,1,2.93,1c.29.29.65.51.93.8s.61.67.55.78c-.2.31-.57.69-.9.71-1.67.15-3,1.11-4.48,1.72-.51.21-1.08.32-1.61.51-.23.08-.55.19-.62.37s.11.46.2.68c.14.37.49.76.43,1.08a10.18,10.18,0,0,1-1.15,4.06c-.31.47-.56,1-.88,1.51a12.49,12.49,0,0,1,1.38,0,10.58,10.58,0,0,1,1.24.28,5.67,5.67,0,0,1,1.16.31,3.74,3.74,0,0,1,1.2.79c.5.55-.2,1.33-.93,1.53a6.06,6.06,0,0,0-1.27.52,4.89,4.89,0,0,0-1.25.84,1.57,1.57,0,0,0-.32,1c0,1.08.27,2.15.24,3.22a18.57,18.57,0,0,1-.46,3.31,1.43,1.43,0,0,1-.75.8c-1.43.63-2.87,1.23-4.34,1.75a1.54,1.54,0,0,1-1.83-1.37,5.39,5.39,0,0,0-1-2.92,12.47,12.47,0,0,1-.8-2.75c-.06-.26-.1-.52-.15-.77-.13-.64-.29-1.23-1.09-1.4-.25,0-.63-.49-.59-.67a1.09,1.09,0,0,1,.66-.76c1.87-.29,3.45-1.31,5.19-1.91.89-.31,1-.46.84-1.56a12.56,12.56,0,0,1,.27-2.83,4.91,4.91,0,0,0-.05-.86,3,3,0,0,0-.81.13c-.75.34-1.49.72-2.22,1.11a1.15,1.15,0,0,1-1.54-.27,1.53,1.53,0,0,1,0-1.44,7.45,7.45,0,0,1,2.91-2.25,10.85,10.85,0,0,0,1.9-1.3c.13-.1.27-.25.41-.25,1.28,0,2.2-.84,3.23-1.39a9.67,9.67,0,0,0,1.48-1A2.83,2.83,0,0,0,357.33,16.31Zm-4.16,16.45c0-1-.38-1.3-1.32-.88a2.54,2.54,0,0,1-.47.14l-3.18.73c-.85.2-.95.47-.45,1.21s1.18,1.72,1.78,2.58,1,1,2,.44c.5-.31,1.2-.66,1.34-1.14A16.87,16.87,0,0,0,353.17,32.76Zm.08-20.92a7.62,7.62,0,0,1,1.22-.17c.44,0,.85-.11.82-.54a1.07,1.07,0,0,0-.69-.74,10.28,10.28,0,0,0-2.15-.16c-.14,0-.43.35-.4.47C352.23,11.38,352.87,11.91,353.25,11.84Zm-4.42,1.23a2.7,2.7,0,0,0,2.09-1.45c0-.15-.1-.33-.16-.5-.16.06-.38.06-.49.17-.39.39-.74.82-1.1,1.24A5.39,5.39,0,0,0,348.83,13.07Z"/><path d="M152.81,10.29a8.08,8.08,0,0,1,.54.65c.32.46.63.72,1.26.47,1-.41,2.1-.7,3.14-1.06s1.25-.82,1-1.84a5.39,5.39,0,0,0-.29-1,1,1,0,0,0-1.36-.58,1.09,1.09,0,0,1-.73-.11.68.68,0,0,1-.23-.54.57.57,0,0,1,.31-.39c.47-.23.95-.42,1.42-.63a.78.78,0,0,1,1,.18c.35.38.83.64,1.21,1A3.66,3.66,0,0,1,161,7.53a2.36,2.36,0,0,0,1.41,1.22c.57.23,1.14.48,1.72.67s.92.42.84,1.05a1.27,1.27,0,0,1-1,1.16,10.41,10.41,0,0,1-1.93.17.9.9,0,0,0-1,.81c-.14.59-.31,1.08.42,1.45,1.23.62,1.48,1.68.57,2.47a3.22,3.22,0,0,1-1.51.5,3.54,3.54,0,0,0-1.89,1.37.4.4,0,0,0,0,.38.46.46,0,0,0,.41,0,3.54,3.54,0,0,1,2.09-.61,3.13,3.13,0,0,1,2,.93,1,1,0,0,1,.21,1.24,5.36,5.36,0,0,0-.25,1c1.25-.22,2.35-.37,3.42-.63,1.24-.31,2.45-.73,3.68-1.07a.81.81,0,0,1,.65,0c.84.63,1.64,1.3,2.46,2a1.08,1.08,0,0,1,.46,1.32,1.38,1.38,0,0,1-1.07.55c-1.57,0-2.86.82-4.29,1.21s-2.9.95-4.35,1.44a2,2,0,0,0-.78.45.8.8,0,0,0-.13.7c.06.15.39.28.61.29a5.66,5.66,0,0,1,3.43,1.19,3.86,3.86,0,0,1,1.06,1.67c.25.74-.92,1.73-1.74,1.56s-1.9-.4-2.84-.61a2.6,2.6,0,0,0-2.19,1.07.55.55,0,0,0,.48.79,1.59,1.59,0,0,0,.72,0c.72-.26,1.12,0,1.4.68s0,1-.52,1.28a20,20,0,0,0-1.88,1.27c-.2.16-.24.52-.36.79.26,0,.59.18.75.08a2,2,0,0,1,2.24.13,6.88,6.88,0,0,0,1.3.33,4.06,4.06,0,0,1,.71.29c.55.29,1,.66.77,1.36a1.74,1.74,0,0,1-1.57,1.24c-.67,0-1.34-.12-2-.12a20.8,20.8,0,0,0-2.37.15,22.6,22.6,0,0,1-3.3.52,25,25,0,0,1-4-.58c-.16,0-.4-.42-.35-.54a1.21,1.21,0,0,1,.57-.66c1.08-.35,2.18-.65,3.28-.93a6.78,6.78,0,0,1,1.28-.15.78.78,0,0,0,.86-.76.49.49,0,0,0-.71-.52c-.93.3-1.49-.42-2.16-.79a1,1,0,0,1,.19-.8,12.68,12.68,0,0,1,1.71-.68,1.86,1.86,0,0,0,1-1.89c0-.16-.42-.4-.55-.35a21,21,0,0,0-3.23,1.27,5.13,5.13,0,0,1-2.56.74,2,2,0,0,0-.78.08c-.45.16-.9.46-1.29,0a1.45,1.45,0,0,1,.05-1.91c1.12-1.05,2.28-2.06,3.44-3.07.49-.42,1-.78,1.53-1.18a.73.73,0,0,0,.18-1.12c-.3-.41-.33-.68.34-.78a10.62,10.62,0,0,0,2.19-.6c.24-.09.37-.47.54-.72a2.51,2.51,0,0,0-.8-.12c-2,.41-3.88,1.16-5.93,1.16a4.46,4.46,0,0,1-1-.24l0-.28a7.62,7.62,0,0,1,.91-.33,8.88,8.88,0,0,0,4.56-2.41,10.32,10.32,0,0,1,1.49-1,19,19,0,0,0,1.76-1.47c.14-.13.09-.45.13-.69-.24,0-.54-.11-.71,0-.6.39-1.13.88-1.72,1.27s-1.12.62-1.68.92-.9-.06-1-.56a9.68,9.68,0,0,1-.52-2.27,2.25,2.25,0,0,1,.63-1.28c.67-.79.68-.75,0-1.55a1.81,1.81,0,0,1-.36-.88c0-.07.44-.22.68-.31A13.78,13.78,0,0,0,158,14.5a2.08,2.08,0,0,0,.77-1.16c.13-.49-.62-.9-1.15-.55a5.15,5.15,0,0,1-3.18.62,1.13,1.13,0,0,1-1.13-.58,3.73,3.73,0,0,0-.78-.81C151.91,11.48,152,11.05,152.81,10.29Zm8.81,15.46.08-.12a1.22,1.22,0,0,0,.43,0q3-1.38,6.05-2.79c.1,0,.23-.15.25-.25a.7.7,0,0,0,0-.45c0-.05-.25-.05-.36,0-.51.16-1,.34-1.54.53-1.65.63-3.32,1.25-5,1.92-.29.12-.49.46-.74.7ZM163,27.87l-2.72,1.27a30.86,30.86,0,0,0-5.33,3c-.14.11-.27.24-.4.36a1.44,1.44,0,0,0,.62,0c1.32-.6,2.63-1.24,4-1.86a1.81,1.81,0,0,1,.68-.18A3.79,3.79,0,0,0,163,27.87Zm.58,1c-.29.45-.24.84.22,1.06a.66.66,0,0,0,.61-.24C164.61,29,164,29,163.57,28.87Z"/><path d="M386,13.31c1-.05,1.73-.13,2.5-.14a1.62,1.62,0,0,1,.79.24,15.4,15.4,0,0,1,1.35.93c.46.36.42.74,0,1.06s-.76.48-1.15.72c-.14.09-.33.15-.4.28a4.6,4.6,0,0,1-2.45,2.1.36.36,0,0,0-.15.25c.1.12.24.29.36.29a4.33,4.33,0,0,0,1.62-.19,3.14,3.14,0,0,1,2.21-.21c.37.09.77.06,1.13.17a1,1,0,0,1,.59.43c.07.14-.1.44-.24.61a2.18,2.18,0,0,1-1.82.83A5,5,0,0,0,385.91,23a5.35,5.35,0,0,1-1.31,1.29,24.51,24.51,0,0,1-2.23,1.4c-.47.27-.49.62-.08.87.9.54.9,1.5,1.17,2.33.14.44-.17.63-.59.54a3.71,3.71,0,0,1-2.28-3.1,1.43,1.43,0,0,1,.45-.81c.93-.81,1.89-1.58,2.84-2.37.11-.09.25-.19.28-.32a4.07,4.07,0,0,0,.07-.71,2.6,2.6,0,0,0-.8.06c-.95.42-1.87.91-2.83,1.33a2,2,0,0,1-1,.1.87.87,0,0,1-.79-1.13c.2-1.06.64-1.29,1.66-.93a2.58,2.58,0,0,0,.72,0l-.58-.76c.82-.58,1.62-1.13,2.39-1.72.24-.18.58-.49.56-.72s-.42-.45-.66-.65a6.76,6.76,0,0,1-1-.87c-.33-.46,0-.77.46-.72a3.74,3.74,0,0,1,1.43.52,2.48,2.48,0,0,0,3.14-.43,1.65,1.65,0,0,0,.19-.58,2.72,2.72,0,0,0-.61-.15c-.92,0-1.84,0-2.76,0-.19,0-.36-.31-.54-.48a5.14,5.14,0,0,0,.54-.37c.25-.21.47-.45.7-.67l-.14-.25a10.59,10.59,0,0,1-1.64.33,6.54,6.54,0,0,1-1.65-.14,6.36,6.36,0,0,1-1-.41c-.62-.23-.72-.58-.17-.94a12.38,12.38,0,0,1,2-1c1.25-.55,2.51-1.11,3.79-1.61,1-.38,2-.68,3-1,.14,0,.29,0,.42-.09a9.35,9.35,0,0,1,6.43-.15,5.49,5.49,0,0,1,2.65,2.23,4,4,0,0,1,.54,3.91,6.5,6.5,0,0,0,0,1.53c-.05,1.26-.16,2.51-.13,3.77.05,2.31.1,4.63.3,6.93.17,2,.61,4,.81,6a10.32,10.32,0,0,0,.57,2.62c.44,1.2-1.3,2.73-2.62,2.47a7.84,7.84,0,0,0-2.19-.25A2.19,2.19,0,0,1,393,36.63c-.77-1.44-1.48-2.9-2.19-4.37a1.16,1.16,0,0,1,0-.78c.19-.49,0-.61-.45-.62a1.12,1.12,0,0,1-.55-.13c-1.18-.83-2.22-.2-3.25.34a12.89,12.89,0,0,0-1.68,1.07,2.55,2.55,0,0,0-.47.6l.16.2c.36-.08.72-.19,1.08-.26,1.19-.22,2.37-.49,3.57-.63.37,0,1.06.21,1.1.43a2.3,2.3,0,0,1-.34,1.36,1.1,1.1,0,0,1-.75.49c-2.09.23-4.19.47-6.29.57a5.64,5.64,0,0,1-2.1-.57c-.45-.17-.44-.72,0-1,1.08-.65,2.19-1.26,3.28-1.89a3.22,3.22,0,0,0,.48-.43,3.84,3.84,0,0,0-.5-.32c-.44-.22-.8-.47-.63-1.05l2-.59-.6-.38a2.62,2.62,0,0,1-1.16-2.53,2.31,2.31,0,0,1,1.87-1.24,16.37,16.37,0,0,1,2.62,0,1.52,1.52,0,0,1,1,.59c.29.4,0,.74-.35,1.05-.61.61-.54,1.05.25,1.7.51.43.94.35,1.34-.41a14.59,14.59,0,0,0,1.14-2.67c.3-1-.45-1.67-1.48-1.46a28.63,28.63,0,0,1-3,.54c-.31,0-.65-.37-1-.57l.07-.33a18.22,18.22,0,0,1,2.85-.77,21.27,21.27,0,0,1,3.57,0c.65,0,.85.6.89,1.2a8.33,8.33,0,0,1-1.85,5.92c-.4.5-.57.85-.08,1.45A22,22,0,0,1,393,33.42a2.8,2.8,0,0,0,3.28,1.34,1,1,0,0,0,.6-.76c0-2.31-.17-4.62-.22-6.92,0-1.58,0-3.15,0-4.73s-.11-3.23-.13-4.84c0-.57.12-1.15.12-1.72a10.41,10.41,0,0,0-.14-1.85,25.49,25.49,0,0,0-.57-2.56,2.31,2.31,0,0,0-1.67-1.79c-.52-.14-1-.42-1.53-.53a3.81,3.81,0,0,0-2.86.93,39,39,0,0,0-3.35,2.56A3.69,3.69,0,0,0,386,13.31Zm-4.32,7.76a1.86,1.86,0,0,0,.47,0c.71-.23,1.43-.44,2.12-.74a2,2,0,0,0,.68-.67c.05-.07-.13-.41-.17-.4a3.12,3.12,0,0,0-.91.23c-.64.32-1.27.68-1.89,1C381.83,20.66,381.78,20.86,381.65,21.07Z"/><path d="M198.16,26.19c-.48.33-.81.52-1.1.75a18,18,0,0,0-2.8,2.38,32.09,32.09,0,0,0-2.51,4c-.72,1.23-1.6,2.09-3.17,1.87a15.06,15.06,0,0,1-1.92-.17c-1.34-.38-1.58-1.46-.62-2.42a16.19,16.19,0,0,1,3.49-3.06.91.91,0,0,0,.42-1.1,20.69,20.69,0,0,1-.42-2.22c-.06-.42-.28-.52-.64-.49-1.74.16-3.18-.67-4.64-1.4a.68.68,0,0,1,0-1.29,32.86,32.86,0,0,1,3-1.35,4.12,4.12,0,0,1,1.45,0c.43,0,.77,0,.76-.57a11.93,11.93,0,0,0,.11-1.56,9.46,9.46,0,0,0-.57-1.43,16.92,16.92,0,0,1-.69-2.27c-.11-.52,1.12-1.26,1.62-1a6.05,6.05,0,0,1,3.31,5c0,1.11,0,2.23,0,3.34,0,1.28-.1,2.56-.12,3.84,0,.21.11.59.22.6a1.12,1.12,0,0,0,.78-.17,22.45,22.45,0,0,0,2.07-1.82,29.69,29.69,0,0,0,2-2.37c.1-.12.05-.37.05-.56,0-1.72.09-3.45,0-5.16a13.38,13.38,0,0,0-.71-3c-.07-.23-.47-.39-.75-.5s-.46.05-.64,0-.66-.34-.73-.59a1.13,1.13,0,0,1,.34-.85A11.77,11.77,0,0,1,197,11.38a1.85,1.85,0,0,1,.72-.43A4.36,4.36,0,0,1,201,12.57a2,2,0,0,1,.19.83c0,2.13,0,4.26,0,6.39a3.23,3.23,0,0,0,0,.44c0,.29.09.58.14.87a2.84,2.84,0,0,0,.87-.36,4.09,4.09,0,0,1,3.6-1c.43.09.8.66,1.09,1.08a.88.88,0,0,1-.31,1.26,22.49,22.49,0,0,1-2,1.26c-1,.58-2,1.06-3,1.68a1.33,1.33,0,0,0-.63,1.66,2.45,2.45,0,0,1-.13,1.18c-.15.65-.39,1.27-.51,1.91s.81,1.43,1.56,1.33c1.38-.18,2.75-.33,4.12-.51a1.87,1.87,0,0,0,.73-.25,2.34,2.34,0,0,1,2.33,0,1.89,1.89,0,0,0,.79.26,3.09,3.09,0,0,1,2.48,1.24.77.77,0,0,1-.14,1.32,7,7,0,0,1-2,.78,24.67,24.67,0,0,1-3.1.17c-1.22,0-2.44,0-3.66,0a5.23,5.23,0,0,1-4.59-3.55,22.48,22.48,0,0,1-.3-2.33C198.44,27.56,198.31,27,198.16,26.19Z"/><path d="M122.75,16.39a2.72,2.72,0,0,0,2.12.64,3.72,3.72,0,0,1,2.3.82,1,1,0,0,1,.19,1.44,4.76,4.76,0,0,1-2.72,2,14.21,14.21,0,0,0-3.31,1.6,13.68,13.68,0,0,0-2.47,1.55,27.6,27.6,0,0,0-2.44,2.62.51.51,0,0,0,0,.51.57.57,0,0,0,.55.06c1.75-.89,3.48-1.81,5.21-2.73,1-.55,2.07-1.19,3.16-1.65a2.82,2.82,0,0,1,1.6,0,3.71,3.71,0,0,1,2.42,1.32,1.3,1.3,0,0,1,.06,1.12A7.8,7.8,0,0,1,127,29c-.2.12-.26.45-.39.69.25.07.51.24.73.18.4-.1.76-.35,1.15-.49a1.5,1.5,0,0,1,.79-.16c.79.14,1.56.38,2.35.52a2.74,2.74,0,0,1,2.09,2.39c0,.14,0,.34-.11.4a6.64,6.64,0,0,1-1.8,1,5.31,5.31,0,0,1-1.81-.27,7.42,7.42,0,0,0-1.09-.25c-1.15,0-2.29,0-3.43,0a9.39,9.39,0,0,0-2,.3,13.52,13.52,0,0,0-3.21,1.09,9,9,0,0,1-2.56.49c-.68.12-1.35.24-2,.41a6.39,6.39,0,0,1-3.82.14,1.51,1.51,0,0,1-.91-1,15.62,15.62,0,0,1,0-2.9c0-.18.4-.44.62-.44a.84.84,0,0,1,.6.46c.58,1.55.64,1.62,2.26,1.23,1.82-.43,3.62-.93,5.43-1.39.32-.08.72,0,1-.15A5,5,0,0,0,122.33,30c1-1.48,1.94-3,2.89-4.54a.62.62,0,0,0-1-.14,30.33,30.33,0,0,0-3,3,8.93,8.93,0,0,1-3.87,2.9,1.73,1.73,0,0,1-1.83-1.05c-.21-.51-.46-1-.68-1.53-.32-.73.17-1.21.56-1.71.91-1.17,1.84-2.32,2.74-3.49a2.14,2.14,0,0,0,.19-.64c-1.63.33-2.18-.86-2.8-1.85a1.35,1.35,0,0,1,0-1.11.84.84,0,0,1,1.15-.42c.93.35,1.55-.44,2.29-.75a22.62,22.62,0,0,0,2-1.07,9.41,9.41,0,0,0,.85-.59,1.15,1.15,0,0,0-1.61-.16,21.06,21.06,0,0,1-2,1.13,2.4,2.4,0,0,1-.8.06,3.62,3.62,0,0,1,.43-.44c.92-.62,1.87-1.21,2.78-1.86.56-.39.54-.8-.06-1.15-.76-.46-1.58-.82-2.37-1.25a10.45,10.45,0,0,1-1.3-.86.63.63,0,0,1-.18-.56c0-.14.31-.25.5-.28a10.15,10.15,0,0,1,2-.27,10.33,10.33,0,0,1,2.48.3,10,10,0,0,1,2.49,1,3.53,3.53,0,0,1,1.2,1.36c.33.58,0,1.18-.75,1.55C124,15.88,123.45,16.09,122.75,16.39Z"/><path d="M475.63,13.35a10.55,10.55,0,0,0-1.63.22c-1.53.48-3.18.72-4.42,1.84s-2.44,2.29-3.58,3.52c-.39.41-.8.74-1.27.54-.27-.12-.41-.67-.5-1-.33-1.44.52-2.52,1.28-3.58a20.19,20.19,0,0,1,1.93-2.22c.14-.14.46-.11.69-.16,0,.26.08.59-.05.77-.35.48-.83.88-.56,1.69.28-.11.56-.19.82-.32,1.25-.68,2.46-1.44,3.75-2a13.64,13.64,0,0,1,3.21-1.08,4.86,4.86,0,0,1,4.12.89c.76.61.83,1.38-.12,2.17a9.21,9.21,0,0,1-1.8.91c-.58.29-1.13.61-1.71.9s-1,.44-1.53.71a1.37,1.37,0,0,0-.41.45,20.91,20.91,0,0,1,2.27.85,1,1,0,0,1,.17,1.68,18.57,18.57,0,0,1-1.58,1.36c-.45.34-.37.52.08.77.88.48.87.86.07,1.51s-1.41,1.18-2.09,1.8c-.11.09-.14.28-.27.57.94-.06,1.76-.13,2.58-.17a12.19,12.19,0,0,1,1.48,0c.35,0,.7.13,1.06.14a1.87,1.87,0,0,1,1.77,1.75c.05.81-.49,1.13-1.05,1.47s-1,.6-1.44.9v.25c.33,0,.71.22,1,.12a.81.81,0,0,1,1.21.5,1.63,1.63,0,0,1-.67,1.69,1.18,1.18,0,0,1-.47.15l-5-.08a12.45,12.45,0,0,1-1.37-.06,4.11,4.11,0,0,1-.79-.28c.24-.5.4-.89.61-1.26a1.72,1.72,0,0,1,.51-.59c1-.62,2.05-1.17,3-1.82.22-.15.24-.61.35-.92a3,3,0,0,0-.89,0c-1.08.33-2.14.73-3.21,1.08a.8.8,0,0,1-.4,0c-.86-.19-1,0-1,.85s0,1.56,0,2.34a4,4,0,0,0,.15,1.2,5.69,5.69,0,0,1-.24,2.95,4.28,4.28,0,0,1-.56,1.57c-.41.62-.94.56-1.24-.11a5.27,5.27,0,0,1-.57-2c0-2,0-4,.14-5.93a57.23,57.23,0,0,0,.55-7.16c0-.53-.23-1.06-.29-1.6a4.75,4.75,0,0,1,.11-1c.35.13.89.18,1,.43a7.94,7.94,0,0,1,.75,2.41c.13,1.12,0,2.27.05,3.41,0,.21.15.57.25.58a1,1,0,0,0,.67-.27,5.86,5.86,0,0,0,.86-1.3c.17-.35.3-.8-.25-1a.94.94,0,0,1-.41-.28,1.69,1.69,0,0,1-.37-.84c0-.21.32-.49.56-.59A1.92,1.92,0,0,0,472.23,21a.68.68,0,0,0-.62-.87c-.58-.13-1.22-.25-1.52-.91s-.08-1,.47-.94a2.17,2.17,0,0,0,1.95-1,19.22,19.22,0,0,1,2.16-1.94A3,3,0,0,0,475.63,13.35Z"/><path d="M457.52,10.75a4.07,4.07,0,0,0,1.14.1,2.68,2.68,0,0,1,2.62.74,1.89,1.89,0,0,1-.2,2.38c-.58.59-1.27.27-1.87,0-.83-.35-1.62-.79-2.58-1.26L456,14c.43.2.86.4,1.3.58s.68.14.9.34a3.2,3.2,0,0,0,2.37.82,2.73,2.73,0,0,1,2.64,1.39,1.48,1.48,0,0,1,.13,1c-.44,1.39-1,2.76-1.42,4.14a3.37,3.37,0,0,1-1.52,2c-.12.07-.35.18-.34.23.24,1-.74,1.44-1.06,2.18,0,0,0,.09,0,.25.91,0,1.84,0,2.77,0A1.88,1.88,0,0,1,463.51,28c.45.7-.18,1.08-.5,1.48s-.75.74-1.3.34c-.88-.65-1.79-1.28-2.61-2-.42-.37-.79-.41-1.13-.08a4.57,4.57,0,0,0-1.1,1.39,23.86,23.86,0,0,0-.92,3,.71.71,0,0,0,.15.61.65.65,0,0,0,.62,0c.74-.53,1.67-1,1.27-2.19-.06-.18.22-.51.42-.71,0-.05.37.15.55.25a2,2,0,0,1,.21.2c1.15,1,1.11,1.08.22,2.34a8.83,8.83,0,0,1-3.26,2.5,1.27,1.27,0,0,1-1.95-1.23,33.36,33.36,0,0,1,.23-6,16.79,16.79,0,0,0,0-4.07c0-.38-.56-.71-.83-1.09s-.37-.61-.56-.92a6.43,6.43,0,0,1,1-.51,1.57,1.57,0,0,1,.63.07c.53.09,1.09.37,1.2-.56,0-.21.57-.53.85-.5a10,10,0,0,1,1.74.47,1.57,1.57,0,0,0,.8.12c.13,0,.14-.45.2-.69.13-.52.27-1,.39-1.57.05-.23.19-.57.08-.69a.84.84,0,0,0-.73-.27c-1,.36-2,.79-2.94,1.21-.18.08-.32.28-.48.29a2.74,2.74,0,0,1-.79-.14c.07-.23.06-.54.22-.68a10.49,10.49,0,0,1,1.23-1c.43-.33.56-.65.06-1a8.22,8.22,0,0,0-.95-.75.68.68,0,0,0-.65.16c-1,1.81-2,3.66-3,5.47s-1.92,3.45-3,5.09a10.81,10.81,0,0,1-2,2,.63.63,0,0,1-1.06-.18,1.62,1.62,0,0,1-.27-1.54c.11-.29.14-.61.23-.9.17-.53.19-1.12,1.12-.87.28.07.9-.52,1.15-.94q2.79-4.64,5.49-9.33c1-1.72,1.9-3.5,2.85-5.25a3.09,3.09,0,0,1,.24-.44c.21-.28.46-.79.65-.77a1.62,1.62,0,0,1,1,.63.9.9,0,0,1-.2,1.21,6.51,6.51,0,0,1-.6.43Zm-.62,14.73c.38-.53.75-1,1.05-1.52a.67.67,0,0,0-.09-.64.91.91,0,0,0-.77-.06C456.68,23.46,456.58,25,456.9,25.48Z"/><path d="M311.92,15.08c0,.58,0,1.16,0,1.74s.47,1,1.21.87a13.28,13.28,0,0,1,3-.18,2.51,2.51,0,0,1,2,1.72c.32.75-.21,1.25-.62,1.78a5.17,5.17,0,0,1-2.67,1.4c-.55.2-1.17.24-1.7.48a3,3,0,0,0-1.36,1,14.31,14.31,0,0,0-.86,2.38,8.19,8.19,0,0,1-.55,1.58c-.68,1.11-1.43,2.17-2.2,3.23a4.15,4.15,0,0,1-1.06,1c-1.1.69-2.23,1.35-3.37,2a1.23,1.23,0,0,1-2-.65c-.37-.74-.13-1.38.76-1.77a9.27,9.27,0,0,0,4.76-5.16c.21-.5.06-.72-.47-.71h-.15c-2.44.32-3.31-1-4-3a1.2,1.2,0,0,1-.17-.61.92.92,0,0,1,.36-.45c1.24.68,2.19-.2,3.21-.58.64-.25,1.26-.55,1.87-.86a1.54,1.54,0,0,0,1-1.51c-.07-1.57-.08-3.14-.16-4.7a2,2,0,0,0-1.44-1.83c-.58-.2-1.18-.37-1.47-1-.16-.36-.17-.61.29-.74a7.55,7.55,0,0,1,2.29-.65,6.45,6.45,0,0,1,2.41.93c1.06.58,1,1.69,1.12,2.71C312,14,311.92,14.55,311.92,15.08Z"/><path d="M273.29,31.13c0,.39,0,.71,0,1a18.83,18.83,0,0,1-.17,2.72c-.07.36-.54.73-.92.91s-.84-.21-1.14-.55c-1-1.14-.77-2.5-.57-3.78.39-2.48.9-4.94,1.36-7.4.06-.31.08-.62.16-.92s.15-.51.24-.51a1,1,0,0,1,.61.24,11.15,11.15,0,0,1,.89.79,7.46,7.46,0,0,1,.45-1.17,26.11,26.11,0,0,1,1.6-2.43A5.78,5.78,0,0,1,277,18.94c1.23-.91,2.35-.14,3.46.33A1.06,1.06,0,0,1,281,20a9.59,9.59,0,0,1,.26,3.27,21.53,21.53,0,0,0,.1,4.67c0,.57.18,1.13.22,1.69a28.52,28.52,0,0,0,.82,6.51.8.8,0,0,1-.33,1.05c-.13.08-.3.24-.31.38a1.11,1.11,0,0,1-.93,1,2.38,2.38,0,0,1-2.1-.3,3.4,3.4,0,0,0-.59-.4,2.61,2.61,0,0,1-1.37-2.22,13,13,0,0,0-.32-1.37c-.19-.65-.38-1.31-.62-1.94s-1-.88-1.68-1Zm5.16-5.51c.12-.12.19-.15.19-.19.07-1.48.16-3,.19-4.46a.64.64,0,0,0-1-.55,6.41,6.41,0,0,0-2.55,2.35c-.52.8-.48.74.4,1.18S277.89,24.46,278.45,25.62Zm.12.46c-.29.37-.5.65-.73.91-.55.58-.71.55-1.22-.11a3.19,3.19,0,0,0-.85-.74c-.38-.23-.54.05-.47.37a5.1,5.1,0,0,0,.51,1.45,1.06,1.06,0,0,0,.83.39A3.51,3.51,0,0,0,277.8,28C278.78,27.65,279,27.25,278.57,26.08Zm-1.86,5.55c.42.58.73,1,1.08,1.46a4,4,0,0,0,.69.51,2.69,2.69,0,0,0,.34-.81,9.26,9.26,0,0,0-.09-1.27c0-.36-.05-.73-.08-1.09l-.26-.08Zm-2.48-4.82-.23-.08a14,14,0,0,0-.52,1.5.78.78,0,0,0,.19.68,1,1,0,0,0,.83,0,.85.85,0,0,0,.22-.73A10,10,0,0,0,274.23,26.81Z"/><path d="M274,10.68l-2.33-3a3.56,3.56,0,0,1,.8-.05,23.36,23.36,0,0,0,2.6.4,2.91,2.91,0,0,1,2.33,1.2,1.9,1.9,0,0,0,2.32.59,2.57,2.57,0,0,1,2.82.24,9.34,9.34,0,0,0,1.12.45,1.41,1.41,0,0,1,1,1.31,1.11,1.11,0,0,1-.86,1.09,2.49,2.49,0,0,1-.61,0,22.12,22.12,0,0,0-3.55,0A15.48,15.48,0,0,0,276.89,14a18.28,18.28,0,0,0-4.72,2.85c-.14.1-.13.39-.24.76l2.58-1.1c.3-.13.6-.41.89-.4a3.64,3.64,0,0,0,1.93-.79,5.34,5.34,0,0,1,1.79-.56c.6-.1,1.22,0,1.82,0a5.19,5.19,0,0,1,2.94.94c.74.39.68,1,.21,1.64a1.19,1.19,0,0,1-1.71.42,17.29,17.29,0,0,1-2.19-1.3c-.76-.53-.88-.54-1.36.21s-1.35.9-2.14,1.16-1.85.71-2.78,1c-.44.16-.89.28-1.34.4s-.92.21-1.38.32c-.78.18-1.55.42-2.34.54a1.18,1.18,0,0,1-1.28-.84,1.11,1.11,0,0,1,.36-1.41c1.52-1.24,3-2.48,4.58-3.68.44-.34,1-.5,1.49-.81a5.13,5.13,0,0,0,.72-.75l-.17-.26a18.89,18.89,0,0,0-1.86.52c-.94.37-1.86.8-2.77,1.24a13,13,0,0,0-1.56.84A8.19,8.19,0,0,1,264,16a2.6,2.6,0,0,1-1.29-.61.6.6,0,0,1-.14-.57.61.61,0,0,1,.54-.22c1.49.46,2.55-.64,3.78-1.05,1.78-.59,3.53-1.25,5.29-1.87.58-.21,1.18-.37,1.74-.62.19-.09.31-.37.46-.56Z"/><path d="M78.11,56.89c.16-.67.33-1.35.47-2,.26-1.3.45-2.62.77-3.9a.68.68,0,0,0-.42-1,5.5,5.5,0,0,1-.64-.43c.52-.82,3.68-1,4.42-.23-.2.18-.38.51-.61.53-1.17.16-1.27,1.08-1.46,1.93-.24,1.06-.43,2.13-.66,3.19-.36,1.64-.71,3.28-1.12,4.91a1.39,1.39,0,0,1-.66.88.91.91,0,0,1-1.2-.52c-.69-1.45-1.37-2.91-2.06-4.36-.58-1.23-1.18-2.46-1.77-3.68l-.22,0a10.81,10.81,0,0,0-.45,1.32q-.57,2.71-1,5.45a1,1,0,0,0,.25.67c.13.19.42.27.53.46s.17.7-.33.72c-1.07,0-2.14,0-3.2,0-.15,0-.4-.11-.41-.2a.58.58,0,0,1,.18-.49c.3-.22.67-.35,1-.56a1.3,1.3,0,0,0,.53-.62c.34-1.53.62-3.07.94-4.6.25-1.2.57-2.38.8-3.59,0-.21-.2-.51-.37-.73a5.91,5.91,0,0,0-.68-.64l0-.25c.37-.07.74-.17,1.12-.23A2.5,2.5,0,0,1,75,50.84a49,49,0,0,0,2.55,5.46c.1.2.22.4.33.61Z"/><path d="M306,60.94a5.31,5.31,0,0,1-3.74-1.29A5,5,0,0,1,300.88,55a6.53,6.53,0,0,1,2.3-4.46,6.72,6.72,0,0,1,6.54-1.34,3.37,3.37,0,0,1,2.5,2.4,7.87,7.87,0,0,1,.24,3,8.82,8.82,0,0,1-1.07,3.26,5.1,5.1,0,0,1-3.54,2.69C307.23,60.65,306.61,60.81,306,60.94Zm.22-.85a5.24,5.24,0,0,0,.57,0A1.45,1.45,0,0,0,307,60a4.14,4.14,0,0,0,2.52-2.72,13.07,13.07,0,0,0,.59-3.27,6.23,6.23,0,0,0-.43-2.79,2.72,2.72,0,0,0-4.53-.56,7.15,7.15,0,0,0-1.6,7.47A2.79,2.79,0,0,0,306.21,60.09Z"/><path d="M221.52,49.3a3.8,3.8,0,0,1-.79.61,1.58,1.58,0,0,0-1.09,1.31c-.23,1.37-.61,2.72-.93,4.08-.16.72-.31,1.43-.5,2.14a4.11,4.11,0,0,1-4.07,3.36,6.85,6.85,0,0,1-2.43-.19c-2.14-.62-2.51-2.14-2.19-3.91.36-2,.93-3.91,1.38-5.87.11-.51.1-1-.68-.93a.56.56,0,0,1-.43-.34c0-.15.16-.35.26-.51a.16.16,0,0,1,.13-.06,18.34,18.34,0,0,1,4.38,0,.82.82,0,0,1-.79.92,1,1,0,0,0-.64.59c-.52,2.12-1,4.23-1.44,6.37a1.93,1.93,0,0,0,.47,2.05,2.5,2.5,0,0,0,2.65.53c1.43-.52,1.9-1.73,2.22-3,.43-1.7.77-3.42,1.12-5.14.12-.6.3-1.28-.65-1.45a.5.5,0,0,1-.28-.41.6.6,0,0,1,.35-.42,9.5,9.5,0,0,1,3.83,0Z"/><path d="M327.52,49.13a5.92,5.92,0,0,1,1.08-.22c2.28,0,4.56,0,6.84,0,.73,0,.75.4.66.88a10.93,10.93,0,0,1-.46,1.79.86.86,0,0,1-.59.5c-.17,0-.43-.31-.52-.53a3.53,3.53,0,0,1-.16-1c-.06-.6-.3-1-1-.92a5.61,5.61,0,0,1-.58,0c-1.92,0-1.92,0-2.22,1.9a17.31,17.31,0,0,1-.39,2c-.14.51.09.67.5.71a5.74,5.74,0,0,0,1.31,0,1.21,1.21,0,0,0,.61-.41c.16-.16.21-.46.39-.58a5.33,5.33,0,0,1,1-.41,5.17,5.17,0,0,1,0,1,10.14,10.14,0,0,1-.39,1.8c-.11.31-.4.75-.66.79s-.59-.33-.65-.76a.65.65,0,0,0-.77-.65c-1.75.08-1.65-.38-2,1.6-.16.93-.38,1.86-.55,2.79-.09.45,0,.75.6.71a9.32,9.32,0,0,1,1.67,0,1.33,1.33,0,0,0,1.51-1,5.77,5.77,0,0,1,.61-1.12.84.84,0,0,1,.65-.31c.13,0,.32.38.32.58a9.58,9.58,0,0,1-.15,1.78.82.82,0,0,1-.88.77c-2.5,0-5,0-7.5,0-.21,0-.42-.2-.63-.3.16-.19.3-.51.49-.53.92-.14,1.17-.66,1.32-1.54.35-2,.91-4,1.37-6,.13-.55.21-1.12.3-1.68s0-.72-.5-.85c-.27-.06-.48-.34-.72-.52Z"/><path d="M345.25,59.71c0,.67-.46,1-1.34,1.11-1.3.1-1.58-.08-1.77-1.27a3.48,3.48,0,0,0-.75.49c-.9,1-2.81,1.15-3.46.14a3.66,3.66,0,0,1-.48-2,6,6,0,0,1,1.77-4.51,4.37,4.37,0,0,1,3.28-1.33c1.11,0,1.12,0,1.35-1.05.1-.46.21-.93.27-1.39a.63.63,0,0,0-.57-.77c-.16,0-.29-.23-.43-.36.13-.12.24-.31.39-.34.78-.17,1.58-.32,2.37-.44.42-.06.6.14.5.6-.29,1.32-.55,2.64-.81,4-.43,2.14-.88,4.27-1.28,6.41C344.14,59.8,344.87,59.57,345.25,59.71Zm-5.78-1.64a.81.81,0,0,0,0,.38c.14.36.26.82.54,1s.73-.13,1-.42a9.92,9.92,0,0,0,2.34-5.17c.09-.44-.13-.72-.64-.76a2.36,2.36,0,0,0-2,1A6.11,6.11,0,0,0,339.47,58.07Z"/><path d="M71,30.38a13.25,13.25,0,0,0,.74-2.11c.33-1.83.58-3.66.83-5.5.08-.65,0-1.32.06-2,0-1.09-.64-1.9-1-2.83-.31-.69-.62-1.43,0-2.14.13-.16.39-.36.55-.33a.74.74,0,0,1,.46.47,4.37,4.37,0,0,0,1.07,1.7,3.82,3.82,0,0,1,1.16,2.68c0,1.28.33,2.55.39,3.83A10.62,10.62,0,0,1,75,28.28a14.59,14.59,0,0,0-.25,2.42,4.28,4.28,0,0,1-.44,1.45,9.6,9.6,0,0,1-1.28,1.77c-.14.16-.57.15-.84.09a.77.77,0,0,1-.37-.49C71.57,32.49,71.32,31.46,71,30.38Z"/><path d="M437,53.57a6.2,6.2,0,0,1,1.14-.86c1.57-.71,3.2-.51,3.48,1.46a6,6,0,0,1-2.58,6,5.38,5.38,0,0,1-5.08.22,1,1,0,0,1-.42-.84c.37-1.93.82-3.84,1.24-5.76.26-1.25.52-2.5.75-3.75a.64.64,0,0,0-.57-.84c-.17,0-.29-.24-.43-.36a1.61,1.61,0,0,1,.46-.34A11.8,11.8,0,0,1,436.9,48c.76-.07.93.12.78.87-.19,1.07-.47,2.12-.7,3.19-.1.45-.14.93-.21,1.39Zm2.62,1.82a1.55,1.55,0,0,0,0-.57c-.15-.38-.26-.87-.56-1.07s-.82,0-1.11.39-.47.48-.65.76a7.13,7.13,0,0,0-1.46,3.85c0,.4-.09.94.12,1.15.41.4,1,.22,1.45-.09A5.24,5.24,0,0,0,439.59,55.39Z"/><path d="M374,30.08a51.38,51.38,0,0,1,.65-5.84,17.39,17.39,0,0,0,.5-4.53,13.11,13.11,0,0,0-.4-1.92,5.3,5.3,0,0,1,0-.8,5.08,5.08,0,0,1,.67.07c.25.06.48.18.73.24a2.35,2.35,0,0,1,1.86,3c-.18,1-.23,2-.33,3.05a8.2,8.2,0,0,0,.12,3.12,5,5,0,0,1-.16,1.4c0,.47,0,.94,0,1.41a4.81,4.81,0,0,1-1,3.26c-.24.29-1,.32-1.44.24a1.3,1.3,0,0,1-1-1.27c0-.49,0-1,0-1.46Z"/><path d="M178,53.07a4.1,4.1,0,0,1,2.8-.64c.2,0,.33.47.58.84a1.78,1.78,0,0,0,.52-.26,2.67,2.67,0,0,1,2.89-.49A2.16,2.16,0,0,1,186,55a7,7,0,0,1-1.72,4.28,4.57,4.57,0,0,1-3.69,1.56c-1.14-.06-1.2.06-1.29,1.18a6.65,6.65,0,0,1-.28,1.15l1.1.74-.11.2h-3.1c.08-.5.15-1,.27-1.5.5-2.21,1-4.42,1.54-6.63.11-.51.2-1,.28-1.54s.08-.76-.43-.91C178.38,53.48,178.25,53.27,178,53.07Zm1.89,5.81c-.19,1.27.64,1.43,1.28,1.09a4.35,4.35,0,0,0,1.42-1.17,5.41,5.41,0,0,0,1.18-3.22,4.77,4.77,0,0,0-.16-1.41.64.64,0,0,0-1.07-.34C180.74,55.14,180.25,57.14,179.93,58.88Z"/><path d="M160.59,49.11c-.29,1.08-.54,2.11-.85,3.12a.65.65,0,0,1-.55.28.85.85,0,0,1-.53-.48,9.09,9.09,0,0,1-.2-1.48c0-.42,0-.84-.58-.92-1.07-.17-1.6,0-1.74.65-.42,1.89-.79,3.79-1.18,5.7a27.08,27.08,0,0,1-.62,2.84c-.26.76.17.91.68,1.14a2.33,2.33,0,0,1,.52.43c-.21.14-.41.41-.63.41-1.38,0-2.76,0-4.15,0-.17,0-.33-.15-.5-.24a2.76,2.76,0,0,1,.3-.5A.94.94,0,0,1,151,60c1-.25,1.06-.38,1.24-1.43s.51-2.31.76-3.46c.33-1.51.67-3,1-4.52a1,1,0,0,0-.26-.87,1.66,1.66,0,0,0-1.89.49c-.23.43-.4.9-.61,1.35a1.29,1.29,0,0,1-.27.49,9.11,9.11,0,0,1-.92.52,3.18,3.18,0,0,1-.23-1c.07-.68.28-1.34.39-2a.68.68,0,0,1,.79-.64c2.89,0,5.78,0,8.67,0A5.32,5.32,0,0,1,160.59,49.11Z"/><path d="M135,59.66c0,.71-.34,1-1.2,1.16-1.23.2-1.77-.1-2.09-1.25-.25.2-.47.35-.68.53a3,3,0,0,1-2.54.7c-.8-.12-1.24-.72-1.31-1.73a6.45,6.45,0,0,1,1.3-4.92,4.3,4.3,0,0,1,3.36-1.76h2.92c.39,0,.55.12.46.54-.34,1.55-.64,3.11-1,4.67a12.29,12.29,0,0,0-.33,1.43c0,.2.25.46.45.61S134.7,59.66,135,59.66Zm-5.78-1.76a2.8,2.8,0,0,0,0,.87,1.29,1.29,0,0,0,.54.7c.17.07.56-.12.72-.31.52-.62,1-1.26,1.47-1.93a9.44,9.44,0,0,0,1-3.07c.22-.83,0-1.19-.91-1a2.45,2.45,0,0,0-.94.47A5.28,5.28,0,0,0,129.17,57.9Z"/><path d="M375.11,59.82a2.48,2.48,0,0,1-2.65,1,1.77,1.77,0,0,1-.66-.76c-.23-.36-.37-.52-.71-.08-.86,1.1-2.92,1.31-3.55.26a4.3,4.3,0,0,1-.49-2.38,5.26,5.26,0,0,1,6.24-5.41c.44,0,.88,0,1.32,0s.63.19.55.62c-.23,1.11-.47,2.21-.72,3.32-.18.85-.38,1.71-.56,2.56-.1.45.05.74.56.78A3.8,3.8,0,0,1,375.11,59.82ZM369,58.17c.13.28.25,1.06.66,1.27s.94-.4,1.32-.85a9.73,9.73,0,0,0,2-4.72c.09-.47-.16-.82-.63-.73a3.2,3.2,0,0,0-1.42.55C369.6,54.74,369.24,56.27,369,58.17Z"/><path d="M165.58,59.53c-.32.29-.56.5-.8.73a2.31,2.31,0,0,1-3.21-.08,2.75,2.75,0,0,1-.47-1.38,6.28,6.28,0,0,1,1.82-5.21,3.8,3.8,0,0,1,2.66-1.2h3c.5,0,.72,0,.56.7-.43,1.82-.72,3.67-1.08,5.51a4.38,4.38,0,0,1-.31.77l1.13.39c.06.58-.14.8-1.06,1C166.66,61.12,166.11,60.83,165.58,59.53ZM163.1,58a6.14,6.14,0,0,0,.18,1c.16.46.49.66.94.32a5.38,5.38,0,0,0,.55-.52,8.2,8.2,0,0,0,2.14-4.67c0-.29.06-.75-.09-.87a1.51,1.51,0,0,0-1-.13,2.24,2.24,0,0,0-.84.51A5.82,5.82,0,0,0,163.1,58Z"/><path d="M459.61,59.82a2.54,2.54,0,0,1-2.74,1c-.24-.12-.38-.46-.52-.72s-.34-.6-.75-.11a2.61,2.61,0,0,1-2.66.84c-1-.19-1.31-1.09-1.37-1.93A6.14,6.14,0,0,1,454.18,53c1.11-.78,2.36-.63,3.6-.62h1.4c.42,0,.59.19.51.58-.35,1.64-.71,3.28-1.07,4.92-.08.37-.15.74-.22,1.11s.11.58.47.66Zm-6-2.15a2.78,2.78,0,0,0,0,.55c.12.47,0,1.18.59,1.23.39,0,.82-.44,1.24-.69,0,0,0-.09.06-.12a9.06,9.06,0,0,0,1.92-4.52c.11-.84-.17-1.2-1-1a2.77,2.77,0,0,0-.94.47A5.82,5.82,0,0,0,453.58,57.67Z"/><path d="M87.45,59.7a9,9,0,0,1-1.78,1c-2.11.6-2.76-.59-2.77-2.37a7.86,7.86,0,0,1,.63-3.05c.6-1.51,2.74-3,4.1-2.89a18.71,18.71,0,0,0,2.7,0c.59,0,.73.26.64.75-.39,1.9-.74,3.81-1.2,5.69-.15.62,0,.78.53.85a2,2,0,0,1,.52.27c-.13.16-.22.42-.37.46a9.29,9.29,0,0,1-2.08.38c-.24,0-.5-.46-.74-.72A1.21,1.21,0,0,1,87.45,59.7Zm1.36-6.22c-.12-.08-.31-.34-.51-.33a2.54,2.54,0,0,0-1.15.25,4.17,4.17,0,0,0-2,2.85A9.27,9.27,0,0,0,85,58.83c0,.69.63.94,1.09.51A9,9,0,0,0,88.81,53.48Z"/><path d="M352.5,59.26c-.39.31-.64.5-.88.71a2.88,2.88,0,0,1-2.83.76c-.91-.27-1.24-1.18-1-2.31.33-1.38.66-2.76,1-4.15.08-.37,0-.73-.51-.74-.12,0-.3-.23-.32-.38s.18-.29.31-.33c.69-.16,1.38-.31,2.08-.43s.73.28.62.75c-.34,1.45-.73,2.89-1.07,4.34a4,4,0,0,0-.12,1.46c.09.63.46.79,1,.41a6.68,6.68,0,0,0,2.44-3.61c.23-1,.38-2,.61-2.93a.65.65,0,0,1,.41-.4c1.22-.34,1.7.12,1.45,1.33-.35,1.74-.66,3.5-1,5.23-.12.54.13.6.51.7a2.8,2.8,0,0,1,.54.33c-.14.18-.26.45-.44.51a6.11,6.11,0,0,1-1.52.3C352.64,60.85,352.36,60.52,352.5,59.26Z"/><path d="M418.51,48.9h3.15c.47,0,.93,0,1.39,0,.17,0,.47.19.47.29s-.17.54-.28.55c-1.91.09-1.67,1.72-2,2.86-.42,1.52-.63,3.1-.95,4.66-.15.74-.36,1.47-.52,2.21-.09.41.07.63.54.62.75,0,1.51.06,2.25,0a1.46,1.46,0,0,0,.84-.64c.42-.6.73-1.28,1.16-1.88.13-.19.49-.24.74-.35.09.22.29.46.26.67a18.46,18.46,0,0,1-.48,2.44.85.85,0,0,1-.65.49c-2.62,0-5.24,0-7.86,0-.17,0-.34-.16-.51-.25.11-.17.2-.48.33-.5,1.22-.19,1.34-1.06,1.5-2.07.29-1.77.78-3.51,1.18-5.27.15-.67.22-1.35.4-2,.13-.47-.1-.61-.44-.8a4.36,4.36,0,0,1-.71-.59Z"/><path d="M408.48,59.68c.17.49,0,.77-.45.86a12.47,12.47,0,0,1-1.46.27c-.84,0-1.21-.46-1-1.28.36-1.49.72-3,1.07-4.48a1.1,1.1,0,0,0,0-.57c-.05-.26-.14-.71-.28-.73a1.37,1.37,0,0,0-.9.22,7.26,7.26,0,0,0-2.6,4.89,9.53,9.53,0,0,1-.28,1.31,1.25,1.25,0,0,1-1.82.5.56.56,0,0,1-.11-.47c.33-1.57.69-3.14,1-4.72a2.9,2.9,0,0,0,.14-1.26,3.71,3.71,0,0,0-.74-1.06,3.21,3.21,0,0,1,2.82-.72c.25.15.28.69.45,1.15a4.58,4.58,0,0,0,.6-.44,3,3,0,0,1,2.74-.73,1,1,0,0,1,.86,1,19.94,19.94,0,0,1-.21,2.57c-.15.89-.45,1.74-.66,2.61C407.42,59.63,407.43,59.63,408.48,59.68Z"/><path d="M124.3,59.7c.17.55,0,.81-.53.91-.18,0-.35.14-.53.19-1.45.35-2.1-.29-1.78-1.83.23-1.14.57-2.25.84-3.37a6.88,6.88,0,0,0,.15-1.27c0-.63-.33-.87-.87-.52a6.53,6.53,0,0,0-1.43,1.3c-1.12,1.35-1.31,3.06-1.61,4.7a1.17,1.17,0,0,1-1.8.89.77.77,0,0,1-.24-.64c.29-1.49.61-3,.92-4.45a7.15,7.15,0,0,0,.22-1.12c0-.4.16-.85-.5-1-.37-.09-.3-.55,0-.64a20.27,20.27,0,0,1,2.43-.43c.11,0,.3.25.36.42a3.36,3.36,0,0,1,0,.8,3.4,3.4,0,0,0,.64-.37,3.16,3.16,0,0,1,2.91-.87c.57.06,1,.91.86,1.63-.29,1.53-.6,3.06-.91,4.59C123.28,59.59,123.27,59.59,124.3,59.7Z"/><path d="M229.23,59.73c.07.71-.25,1-1.25,1.09-.29,0-.59,0-.88,0-.52,0-.79-.25-.72-.75.14-1,.32-1.92.49-2.87s.38-1.81.5-2.72a.87.87,0,0,0-.26-.74.9.9,0,0,0-.8.14,6.3,6.3,0,0,0-2.42,3.91,23.64,23.64,0,0,1-.47,2.37,1.23,1.23,0,0,1-1.57.64c-.6-.17-.44-.6-.35-1q.57-2.64,1.07-5.29c.07-.37.09-.77-.46-1s-.37-.56,0-.67a20.84,20.84,0,0,1,2.36-.43c.12,0,.34.23.39.4a4,4,0,0,1,0,.88,4.5,4.5,0,0,0,.72-.5,3.07,3.07,0,0,1,2.87-.77c.53.08.75.59.79,1.15a15.13,15.13,0,0,1-.79,4.76c0,.07-.06.13-.08.2C228.17,59.56,228.17,59.56,229.23,59.73Z"/><path d="M290.26,58.2l.54-1.35a5.35,5.35,0,0,0,.59-3.72c-.14-.47.05-.81.64-.75a7,7,0,0,0,1,0c.55,0,.74.2.57.75a39.64,39.64,0,0,1-3.33,7.65,7.48,7.48,0,0,1-2.37,3,3.25,3.25,0,0,1-2.43.36c-.62-.09-.73-1.17-.21-1.78.37-.45.82-.69,1.38-.31s1,.2,1.4-.37a2.35,2.35,0,0,0,.15-2.58c-.54-1.46-.85-3-1.28-4.5-.15-.49-.25-1.06-1-1.06-.08,0-.22-.24-.24-.38a.4.4,0,0,1,.18-.32,3.28,3.28,0,0,1,2.21-.41.74.74,0,0,1,.45.48c.38,1.44.71,2.89,1.08,4.34a8.56,8.56,0,0,0,.36,1Z"/><path d="M474.3,58.21c.15-.31.3-.62.43-.94a10.7,10.7,0,0,0,.79-2.05,5.87,5.87,0,0,0,0-2.09c-.1-.57.06-.76.6-.74a8.51,8.51,0,0,0,1,0c.66-.05.79.33.6.82-.63,1.62-1.27,3.25-2,4.84-.6,1.33-1.3,2.62-2,3.89a4,4,0,0,1-2.47,2.14,3.79,3.79,0,0,1-1.57.07.78.78,0,0,1-.56-1.12c.29-.91.77-1.34,1.36-1.12s.91.7,1.46.06a2.12,2.12,0,0,0,.63-2.25c-.59-1.8-1.08-3.62-1.6-5.44-.12-.42-.24-.78-.79-.73-.12,0-.36-.18-.36-.27a.67.67,0,0,1,.24-.47,3.11,3.11,0,0,1,2.21-.38.65.65,0,0,1,.41.44c.37,1.44.69,2.9,1.05,4.34a7.85,7.85,0,0,0,.4,1Z"/><path d="M319.43,52.39c.19.6-.17.69-.58.72-1.53.13-1.5.17-1.7,1.68a59.46,59.46,0,0,1-1,6.25,4.26,4.26,0,0,1-2.74,3.05c-.23.08-.53,0-.8-.08.1-.24.14-.55.31-.71a6.56,6.56,0,0,0,1.67-4c.23-1.38.48-2.76.7-4.14.08-.49.12-1,.17-1.49s-.12-.56-.53-.6c-.17,0-.32-.26-.48-.4.17-.1.33-.27.51-.29a1.05,1.05,0,0,0,.95-.81c.27-.77.61-1.52.95-2.27s1.31-1.08,2.12-1.27a6.37,6.37,0,0,1,1.95,0c.23,0,.63.32.61.44a4.17,4.17,0,0,1-.48,1.36,1.13,1.13,0,0,1-.8-.19c-1.19-1-1.62-.87-2,.71-.11.41-.28.81-.39,1.22s0,.86.63.8C318.75,52.37,319.09,52.39,319.43,52.39Z"/><path d="M310.93,29.92a6.25,6.25,0,0,0,1.1-.23c1.11-.45,2.19,0,3.28.07a9.6,9.6,0,0,1,2.52.67c2.08.64,3,2.28,3.68,4.18a.86.86,0,0,1-.18.72,5.66,5.66,0,0,1-1.3,1,1,1,0,0,1-.83-.18c-1.68-1.25-3.31-2.57-5-3.78a15,15,0,0,0-2.79-1.57C310.93,30.57,310.86,30.35,310.93,29.92Z"/><path d="M111,52.39c2.09-.21,2.86,1.38,2.87,2.85a6.69,6.69,0,0,1-1.19,4c-1.09,1.54-4,2.11-5.47,1A2.75,2.75,0,0,1,106.16,58a5.44,5.44,0,0,1,1.62-4.42A4.13,4.13,0,0,1,111,52.39Zm.81,3a4.25,4.25,0,0,0,0-.8c-.12-.59-.26-1.32-.94-1.36a2,2,0,0,0-1.49.61,6.05,6.05,0,0,0-1,5.27c.14.68,1.14,1.18,1.6.87a3,3,0,0,0,.84-.83A6.66,6.66,0,0,0,111.82,55.35Z"/><path d="M398.49,55.23a5.59,5.59,0,0,1-1.67,4.55,4.23,4.23,0,0,1-4.67.69,2.83,2.83,0,0,1-1.36-2.89,5.68,5.68,0,0,1,1.8-4.19,4.59,4.59,0,0,1,4.87-.57C398.28,53.37,398.49,53.94,398.49,55.23Zm-2,.21c0-.33,0-.68,0-1-.08-.84-.86-1.53-1.49-1.27a3,3,0,0,0-1.12.83,5.9,5.9,0,0,0-1,3.56,3.63,3.63,0,0,0,.27,1.59c.2.48.56,1.08,1.2.91a2.36,2.36,0,0,0,1.13-.9A6.07,6.07,0,0,0,396.45,55.44Z"/><path d="M192.8,52.36a4,4,0,0,1,1.09.15,1.36,1.36,0,0,1,1,1.36,1.72,1.72,0,0,1-1.1,1.7,20.47,20.47,0,0,1-3.27.87c-.44.09-.67.21-.79.66-.24.87.72,2.55,1.58,2.52A5.28,5.28,0,0,0,193,59c.16-.06.28-.24.42-.25a.88.88,0,0,1,.61.13c.09.08.08.39,0,.54a2.74,2.74,0,0,1-2.23,1.32c-1.15.18-2.36.29-3.28-.72a2.47,2.47,0,0,1-.75-1.86,6.73,6.73,0,0,1,1.08-3.91A4.54,4.54,0,0,1,192.8,52.36Zm-2.89,3a2.6,2.6,0,0,0,2.77-.72.86.86,0,0,0,.07-1.28.83.83,0,0,0-1.32.06C190.91,54.05,190.46,54.7,189.91,55.4Z"/><path d="M251.94,52.22a9.26,9.26,0,0,1,1.6.6,1.43,1.43,0,0,1,.25,2.24,4.23,4.23,0,0,1-2.41,1.11c-.63.11-1.28.15-1.9.32a1,1,0,0,0-.5.61,2.88,2.88,0,0,0,.8,2.11c.93.64,1.48.56,2.64-.28a.94.94,0,0,1,.84-.1c.45.27.05.56-.13.81a2.77,2.77,0,0,1-2,1.12c-1.25.16-2.52.24-3.45-.88a3.47,3.47,0,0,1-.59-2.88,5.48,5.48,0,0,1,2.12-3.87,3.52,3.52,0,0,1,2.71-.71Zm-2.65,3.48c.55-.11,1-.16,1.34-.26.6-.16,1.25-.33,1.44-1a1.33,1.33,0,0,0-.15-1.09c-.19-.17-.75-.09-1.07.05C250,53.75,249.68,54.57,249.29,55.7Z"/><path d="M241.85,57.93c.33-.56.68-1.12,1-1.68.17-.29.3-.59.45-.88a2.28,2.28,0,0,0,.19-2c-.28-.73-.06-1,.72-1h.87c.65,0,.87.4.61,1A28,28,0,0,1,242,60c-.06.07-.1.18-.18.22l-1.31.61a5.7,5.7,0,0,1-.53-1.19c-.33-1.82-.58-3.65-.92-5.47,0-.23-.39-.4-.61-.59s-.34-.26-.52-.39c.19-.17.34-.41.56-.48a5.4,5.4,0,0,1,1.37-.29c.83,0,1.05.27,1.14,1.1.16,1.45.39,2.9.59,4.34Z"/><path d="M268.24,52.27a15.43,15.43,0,0,1,1.72.42c.18.06.44.39.4.51a3.36,3.36,0,0,1-.63,1.16c-.09.1-.54,0-.77-.14a2.75,2.75,0,0,1-.62-.61c-.5-.56-.75-.58-1.33-.1a1.17,1.17,0,0,0-.09,1.44c.46.44,1,.81,1.48,1.24a2.7,2.7,0,0,1,1.26,2.13,2.48,2.48,0,0,1-1.62,2.2,7.17,7.17,0,0,1-4.3,0,.73.73,0,0,1-.28-.18,6.33,6.33,0,0,1,.65-1.58c.29-.39.64,0,.9.25s.27.27.41.41c.7.7,1.32.7,1.89,0s.31-1.26-.4-1.83a11.16,11.16,0,0,1-1.75-1.53,2.13,2.13,0,0,1,1.11-3.41C266.91,52.52,267.56,52.41,268.24,52.27Z"/><path d="M140.61,47.92c1,.11,1,.23.86,1.15-.57,2.76-1.11,5.52-1.67,8.28a9.57,9.57,0,0,1-.34,1.52c-.23.58,0,.71.52.8a2,2,0,0,1,.55.33c-.15.17-.26.45-.44.51a6.57,6.57,0,0,1-1.59.3c-.95,0-1.34-.41-1.16-1.34.32-1.67.69-3.33,1-5,.32-1.46.67-2.91,1-4.37.1-.45,0-.86-.61-.94a.55.55,0,0,1-.37-.33c0-.09.14-.32.26-.36C139.28,48.27,140,48.11,140.61,47.92Z"/><path d="M280,53.14c-.59,0-1.09,0-.92-.71a1.4,1.4,0,0,0,1.52-1.17,1.39,1.39,0,0,1,1.59-.79c.45.06.57.3.45.7-.37,1.22-.37,1.22.88,1.22h.72l.13.22a1.32,1.32,0,0,1-1.43.51c-.81,0-1,.22-1.15,1-.19,1.09-.45,2.17-.68,3.25a3.24,3.24,0,0,0-.13.41c0,.55-.28,1.15.24,1.63s.9-.07,1.35-.15.85-.08.92.06c.23.45-.19.66-.55.84a4,4,0,0,1-3.08.53c-.65-.2-1.07-.57-1-1.29.22-1.45.49-2.89.74-4.34C279.7,54.46,279.82,53.84,280,53.14Z"/><path d="M93.17,52.63c.28-.13.41-.23.54-.23a1.05,1.05,0,0,0,1.15-.89,1.75,1.75,0,0,1,1.45-1.12c.51-.13.81.29.65.81-.07.24-.17.49-.27.79.41.88,1.45,0,2.13.75a3.08,3.08,0,0,1-.88.36c-1.43.08-1.45.06-1.78,1.47s-.59,2.64-.81,4c-.15.91.35,1.28,1.2,1a4.25,4.25,0,0,1,.79-.3,1.59,1.59,0,0,1,.62.14c-.06.19-.06.44-.18.58a4.25,4.25,0,0,1-3.78.73,1,1,0,0,1-.69-1c.16-1.12.3-2.26.5-3.38.12-.74.37-1.47.5-2.21.07-.41.18-.91-.55-.92C93.6,53.09,93.44,52.85,93.17,52.63Z"/><path d="M377.42,52.68c.17-.13.26-.27.35-.27.82,0,1.17-.41,1.37-1.17s1.17-.94,2.05-.64a6.13,6.13,0,0,1-.2,1c-.22.57.05.73.54.77l1.36.08.05.32a4.39,4.39,0,0,1-.83.31c-.31.06-.66-.07-.93,0a1.24,1.24,0,0,0-.73.62c-.38,1.54-.71,3.09-1,4.65a1.29,1.29,0,0,0,.28,1c.17.17.63.06.95,0s.54-.2.82-.23a2,2,0,0,1,.62.11c-.07.21-.07.49-.21.63a4.34,4.34,0,0,1-3.85.66.89.89,0,0,1-.59-.88,21.65,21.65,0,0,1,.8-5c.06-.27.15-.55.2-.82s.14-.79-.48-.83C377.82,53.08,377.65,52.85,377.42,52.68Z"/><path d="M358.25,57.8a5.49,5.49,0,0,1,2.52-4.75,6.08,6.08,0,0,1,4.11-.62c.55.06.45.61.35.92a2.15,2.15,0,0,1-.67.89c-.09.07-.43-.08-.62-.2-.41-.25-.6-1-1.22-.74a4,4,0,0,0-1.51,1.26,5,5,0,0,0-.76,3.86,1.56,1.56,0,0,0,2.24,1,6.22,6.22,0,0,1,.84-.53,2.64,2.64,0,0,1,.76-.09c0,.28,0,.63-.1.84a2.84,2.84,0,0,1-2,1.13c-1.24.21-2.51.28-3.33-.88a9.06,9.06,0,0,1-.81-2Z"/><path d="M256.74,53a5.06,5.06,0,0,1,2.76-.65c.09,0,.23,0,.25.1.33.75.71.29,1.18.14a7,7,0,0,1,1.83-.22c.12,0,.3.21.37.37.27.59-.53,1.69-1.16,1.65-.44,0-1-.19-1.29,0a4,4,0,0,0-1.2,1.61c-.45,1.26-.69,2.59-1.06,3.88-.09.31-.34.72-.59.78a2.67,2.67,0,0,1-1.31-.09c-.09,0-.15-.48-.1-.71.37-1.69.72-3.38,1.16-5.05.17-.67.18-1.16-.52-1.47C257,53.36,256.9,53.23,256.74,53Z"/><path d="M447.68,53.11A2.45,2.45,0,0,1,450,52.4c.23,0,.64.25.63.34a3.67,3.67,0,0,1-.36,1.4c-.11.2-.6.3-.89.26-1.13-.18-1.26-.13-1.9.78a6.35,6.35,0,0,0-1,2.69,18.48,18.48,0,0,1-.59,2.33,1.23,1.23,0,0,1-1.75.5.73.73,0,0,1-.18-.6c.39-1.83.79-3.65,1.23-5.47a.85.85,0,0,0-.39-1.07c-.14-.09-.35-.3-.32-.38a.82.82,0,0,1,.42-.42,6.34,6.34,0,0,1,1.22-.36C446.88,52.24,447.17,52.38,447.68,53.11Z"/><path d="M466.1,53.24a2.67,2.67,0,0,1,2.58-.84.46.46,0,0,1,.3.17c.36.57,0,1-.26,1.5-.09.2-.48.31-.74.34-.42,0-1-.22-1.23,0a4,4,0,0,0-1.3,1.59,31.76,31.76,0,0,0-1.07,3.88,1.18,1.18,0,0,1-1.77.87.74.74,0,0,1-.26-.63c.39-1.85.81-3.7,1.24-5.54.1-.46,0-.79-.41-1-.14-.08-.23-.27-.35-.4a2.07,2.07,0,0,1,.47-.34,9.23,9.23,0,0,1,1.43-.4C465.33,52.3,465.91,52.35,466.1,53.24Z"/><path d="M273.2,53.05a5.09,5.09,0,0,1,2.9-.63.73.73,0,0,1,.36.61c-.25,1.23-.56,2.44-.85,3.66-.19.78-.4,1.55-.55,2.34s.47.61.93.65c.18.42.13.74-.37.85a8.16,8.16,0,0,1-1.75.27c-.77,0-1.07-.72-.83-1.78.33-1.48.61-3,1-4.42.17-.61,0-.9-.47-1.14C273.47,53.4,273.39,53.26,273.2,53.05Z"/><path d="M232.29,53.1a5.15,5.15,0,0,1,2.94-.68.75.75,0,0,1,.41.62c-.14.94-.35,1.86-.57,2.78s-.55,2-.8,3.08c-.12.47,0,.82.6.78.14,0,.4.15.41.24s-.12.43-.23.46a9,9,0,0,1-2.14.4c-.63,0-.88-.69-.69-1.56.33-1.57.65-3.15,1.05-4.7.13-.51.06-.77-.38-1A4.26,4.26,0,0,1,232.29,53.1Z"/><path d="M197.35,53.08a5.14,5.14,0,0,1,2.91-.66.84.84,0,0,1,.42.71c-.23,1.16-.55,2.3-.83,3.45-.2.8-.4,1.6-.57,2.41-.09.42,0,.69.56.69.18,0,.36.2.54.32-.14.17-.24.45-.42.51a4.67,4.67,0,0,1-1.38.3c-1.18.06-1.6-.43-1.34-1.59.29-1.32.63-2.62.94-3.93a2.94,2.94,0,0,0,.18-.9,1.71,1.71,0,0,0-.33-.8A3.19,3.19,0,0,0,197.35,53.08Z"/><path d="M172.74,60.91c-1.19-.09-1.47-.46-1.21-1.59.39-1.68.78-3.36,1.11-5,0-.19-.25-.46-.4-.68s-.32-.3-.34-.46.23-.31.38-.35c.64-.15,1.29-.27,1.94-.39s.79.33.7.84c-.12.67-.3,1.33-.47,2-.31,1.25-.63,2.51-.94,3.77-.12.46,0,.67.54.68.19,0,.38.18.57.28-.15.19-.26.47-.46.55A13.56,13.56,0,0,1,172.74,60.91Z"/><path d="M430.92,52.22c-.09.74-.12,1.23-.23,1.71-.37,1.68-.77,3.35-1.14,5-.17.79.41.71.92.71.18.43.12.73-.37.87a7.34,7.34,0,0,1-1,.28c-1.37.15-1.85-.37-1.57-1.73s.58-2.53.87-3.79c.16-.72.7-1.54-.5-1.91.06-.18.09-.51.2-.53C429,52.63,429.85,52.45,430.92,52.22Z"/><path d="M344.44,16.32a7.11,7.11,0,0,1-.19,1.44,1.08,1.08,0,0,1-.66.69,1,1,0,0,1-.88-.4,17,17,0,0,1-.61-2.46c-.24-1.15-.18-2.38-.9-3.39-.26-.37-.62-.68-.84-1.07a1.83,1.83,0,0,1-.07-.79,2.4,2.4,0,0,1,.71,0c.58.2,1.13.48,1.71.67a2.31,2.31,0,0,1,1.55,2.08C344.38,14.08,344.38,15.07,344.44,16.32Z"/><path d="M100.5,59.67c.29-1.3.56-2.57.85-3.84a8.31,8.31,0,0,0,.37-1.51c0-.27-.32-.55-.51-.81a2,2,0,0,0-.31-.33c.12-.12.23-.31.38-.34a15.85,15.85,0,0,1,2.16-.42c.15,0,.38.29.5.5a.78.78,0,0,1,0,.5c-.37,1.63-.76,3.26-1.14,4.89a5,5,0,0,1-.16.55c-.21.5,0,.75.5.81a.7.7,0,0,1,.48.3c0,.09-.11.35-.24.46a2.81,2.81,0,0,1-2.53.2C100.63,60.45,100.62,60,100.5,59.67Z"/><path d="M384.69,59.51l.66-2.83c.18-.81.41-1.61.52-2.42,0-.23-.29-.51-.46-.75s-.32-.27-.3-.32a.71.71,0,0,1,.36-.38,17.29,17.29,0,0,1,2.15-.39c.16,0,.39.28.51.48a.78.78,0,0,1,0,.5c-.44,1.84-.88,3.67-1.36,5.5-.15.6.15.7.62.77.16,0,.43.19.43.26s-.15.49-.28.52a8.89,8.89,0,0,1-2,.34C384.65,60.81,384.77,60.11,384.69,59.51Z"/><path d="M346.82,11.84c-.07,1.08-.17,2.16-.2,3.23,0,.57.14,1.15.11,1.71,0,.24-.3.46-.47.69-.22-.16-.55-.29-.65-.51a5,5,0,0,1-.36-2.69,22,22,0,0,0-.11-3.8c0-.48-.34-.68-.82-.72a.59.59,0,0,1-.45-.32c0-.2,0-.56.17-.63a4.87,4.87,0,0,1,1.72-.58,1,1,0,0,1,1,1.08c0,.85,0,1.69,0,2.54Z"/><path d="M92,13.56c.08.87-.65,1.29-1.11,1.82-.11.13-.67,0-.9-.15-1-.73-2-1.51-3-2.28a5.11,5.11,0,0,1-.48-.45c-.33-.36-.24-.61.19-.81a4.77,4.77,0,0,1,4.06.05A1.85,1.85,0,0,1,92,13.56Z"/><path d="M473.25,9.58a1.63,1.63,0,0,1-1.07,1.74,1.37,1.37,0,0,1-1.82-.3c-.7-.87-1.42-1.72-2.06-2.64-.32-.47-.1-.78.44-.79h1.82a3.19,3.19,0,0,1,2.6,1.57A2.87,2.87,0,0,1,473.25,9.58Z"/><path d="M150,22.86c0,.28.14.6,0,.83-.31.7-.72,1.37-1.06,2a6.78,6.78,0,0,0-.31.83c.83.25,1.53-.68,2.25.07-.08.08-.18.27-.25.26-1.16-.13-1.66.85-2.36,1.43s-1.09.69-1.48-.38a3.79,3.79,0,0,0-.29-.65,2,2,0,0,1,.61-2.6,26.19,26.19,0,0,1,2.46-2Z"/><path d="M174.53,48.46a1.1,1.1,0,1,1,0,2.18c-.85,0-1.19-.29-1.2-1.06S173.63,48.47,174.53,48.46Z"/><path d="M103.58,50.64c-.86.06-1.16-.24-1.22-1.1a1.09,1.09,0,0,1,1.22-1.08c.81,0,1.26.41,1.25,1.13S104.34,50.64,103.58,50.64Z"/><path d="M200.27,48.46a1.11,1.11,0,1,1,0,2.19c-1,0-1.23-.45-1.32-1.07S199.48,48.47,200.27,48.46Z"/><path d="M387.75,48.46A1.13,1.13,0,0,1,389,49.58a1.14,1.14,0,0,1-1.19,1.07c-.86,0-1.2-.15-1.28-1.13C386.49,48.81,386.91,48.47,387.75,48.46Z"/><path d="M430.56,50.64c-.85,0-1.28-.37-1.31-1.12a1.13,1.13,0,0,1,1.25-1.06c.87,0,1.23.34,1.22,1.12A1,1,0,0,1,430.56,50.64Z"/><path d="M235.26,50.64c-.95,0-1.28-.5-1.27-1.09s.33-1.13,1.28-1.09a1.29,1.29,0,0,1,1.26,1.07C236.55,50.2,236.05,50.64,235.26,50.64Z"/><path d="M276.1,50.64a1.09,1.09,0,0,1-1.32-1.06c-.09-.65.49-1.11,1.27-1.12s1.18.33,1.19,1.07S276.92,50.64,276.1,50.64Z"/><path class="cls-1" d="M67.48,1.49c-.35.19-.4.58-.57.89q-15.88,29-31.68,58c-.36.67-.66,1.4-1.5,1.65H33.4a5.89,5.89,0,0,1-1.16-1.61L5.09,10.73.37,2.1C-.38.71,0,0,1.59,0H65.87a1.5,1.5,0,0,1,1.61,1ZM33.74.69h-32C.51.69.45.79,1.07,1.91q2.17,4,4.36,7.94L33.11,60.56c.15.26.21.69.65.66s.45-.4.59-.65q16-29.32,32-58.66c.59-1.07.5-1.22-.73-1.22Z"/><path class="cls-2" d="M33.74.69H65.62c1.23,0,1.32.15.73,1.22q-16,29.34-32,58.66c-.14.25-.21.62-.59.65s-.5-.4-.65-.66L5.43,9.89Q3.26,5.9,1.07,2C.45.83.51.73,1.76.73h32ZM61.42,8.42c.14,0,.16-.05.18-.15l3.19-5.81c.47-.86.47-.86-.47-.86H54.8a25,25,0,0,0-3.46,0H44.11a12.26,12.26,0,0,0-2.57,0H26.28a21.17,21.17,0,0,0-3,0H16.87a40.25,40.25,0,0,0-4.11,0H2.91c-.22,0-.78-.17-.47.41,1.1,2.17,2.29,4.22,3.45,6.32l.8,1.56,5.12,9.36.63,1.13,2.63,4.81.38.73a.17.17,0,0,0,.06.16l16.93,31c.4.73.81,1.44,1.2,2.18a1.41,1.41,0,0,0,.53-.72L48.8,31.74c1.07-2,2.12-4,3.18-6l.4-.67L55,20.24l.6-1C57,16.64,58.47,14,59.89,11.4a3.86,3.86,0,0,0,.71-1.47h0c.16.07.14-.06.17-.15a3.37,3.37,0,0,0,.68-1.38Z"/><path class="cls-1" d="M60.6,10a3.86,3.86,0,0,1-.71,1.47C58.47,14,57,16.66,55.61,19.27L45.26,20v.32H55l-2.63,4.87A42.69,42.69,0,0,1,48,24.25a3,3,0,0,0-.84-2,3,3,0,0,0-.66,1.7H45.47v.15l1.12.38a2.06,2.06,0,0,0,.3,1.05c.5.75.21,1.47,0,2.33a4.2,4.2,0,0,0-1.74-2.7,2.62,2.62,0,0,0,1.17,3.37c.26.2.4.37.27.7A8.82,8.82,0,0,1,45.81,31c-.35-2-.44-2.18-1.15-3A2.72,2.72,0,0,0,45,31.58c.13.16.42.28.26.55a5.8,5.8,0,0,1-1.56,1.75,4,4,0,0,0-.27-3.21c-.84.92-1.32,2-.74,3.08a1.11,1.11,0,0,1-.22,1.55,1.23,1.23,0,0,1-.25.14c-.28.18-.55.39-.81.59l-.12-.16A4,4,0,0,0,41.68,33a2.77,2.77,0,0,0-1.46,3.2c0,.24.23.49-.11.65a6,6,0,0,1-2,.75,4.56,4.56,0,0,0,1.25-2.87,2.61,2.61,0,0,0-2.21,2.68c0,.26.12.61-.32.66a2.84,2.84,0,0,1-1.46.11,2.18,2.18,0,0,0,.4-.34c.23-.34.62-.66.2-1.1s-.9-.13-1.24.17a7,7,0,0,0-.85,1.17V36.41c.45-.23.92-.41,1.34-.68a4.16,4.16,0,0,0,2-3,4.11,4.11,0,0,0-2.16.9,9,9,0,0,0-1.42,1.84,4.27,4.27,0,0,0-2.87-2.63c-.18,0-.4-.21-.54,0s0,.31.08.47a4.71,4.71,0,0,0,3.25,3.13v1.75a3.85,3.85,0,0,0-1.13-1.43.67.67,0,0,0-.91,0c-.29.27-.19.56,0,.82s.33.44.51.68c-1.44,0-1.47,0-1.73-1.31a2.59,2.59,0,0,0-2.15-2.15,4.73,4.73,0,0,0,1.09,2.8,4.73,4.73,0,0,1-1.36-.45c-.6-.21-.79-.49-.64-1.18a2.52,2.52,0,0,0-1.43-2.88,3.88,3.88,0,0,0,.24,2.62l-.17.22-.75-.55c-.54-.38-.83-.7-.41-1.47A2.42,2.42,0,0,0,24,30.76a4.71,4.71,0,0,0-.35,3.07,18.15,18.15,0,0,1-1.15-1.47c-.19-.24-.26-.43,0-.71,1.13-1.08,1-2.32.4-3.67A3,3,0,0,0,22,29.36c-.13.51-.2,1.05-.33,1.75-.28-.62-.47-1.11-.7-1.58a.77.77,0,0,1,.36-1.15,2.52,2.52,0,0,0,1-3.22,4.4,4.4,0,0,0-1.75,2.38c-.68-1.16.12-2.08.29-3.07.33-.21.81-.12,1.11-.52h-1a2.57,2.57,0,0,0-.76-1.73,3.23,3.23,0,0,0-.76,2l-4.33.93-2.63-4.81c3.23-.3,6.49,0,9.73-.17v-.23l-10.36-.68L6.69,9.89a1.62,1.62,0,0,1,.88.26l14.49,6.09c.26.1.51.33.86.19-.2-.34-.52-.4-.79-.53-2.59-1.22-5.18-2.44-7.77-3.64-2.81-1.32-5.64-2.62-8.47-4C4.73,6.23,3.54,4.18,2.4,2c-.31-.58.25-.41.47-.41h9.85a2.11,2.11,0,0,1,1.64.81q4.88,5,9.8,9.92a1.06,1.06,0,0,0,.91.51L14.81,1.68l2-.11h6.5c.69-.06,1,.31,1.28.91,1.27,2.8,2.57,5.56,3.87,8.33.11.25.14.59.7.74L25.27,1.69l1-.13H41.52c.58,0,.49.33.33.73-1.11,2.78-2.19,5.57-3.28,8.36-.09.24-.3.47-.14.82.34-.14.38-.47.5-.73,1.29-2.73,2.6-5.46,3.84-8.22.28-.62.6-1,1.32-1h7.22c.38.16.81-.07,1.22.18L42.76,12.33c.5.06.68-.25.9-.48,3.07-3.11,6.15-6.23,9.19-9.37a2.42,2.42,0,0,1,1.92-1h9.52c1,0,1,0,.47.87l-3.19,5.8-.18.15h0a1.8,1.8,0,0,0-.32.06L45,16.09c-.15.07-.41.08-.36.38.27.08.49-.1.7-.19,4-1.7,8.07-3.42,12.11-5.09A15.37,15.37,0,0,1,60.6,10ZM33.74,12.42H27.16a.89.89,0,0,0-.91.54,20.1,20.1,0,0,0-1.17,17.87c.2.49.36.56.82.31a16.26,16.26,0,0,1,15.66,0c.53.28.68.14.87-.35A20.37,20.37,0,0,0,41.29,13a1,1,0,0,0-1-.58Zm0-9.76H31.32c-.21,0-.4-.05-.49.29-.33,1.16.71,2,.61,3.12a.51.51,0,0,0,.32.1c1-.2.89.39.85,1q0,.63,0,1.26c0,.35-.07.56-.45.5-.71-.12-.8.25-.75.82,0,.23.16.56-.31.63a.86.86,0,0,0-.47,1.1l.05.09c.17.2.49.21.5,0,0-.66.46-.49.82-.49h3.37c.39,0,1-.24,1,.53,0,.18.29.18.42.08.3-.21.12-.56.15-.85s0-.44-.28-.41c-.71.08-.56-.41-.58-.81s.11-.68-.33-.63c-1,.14-.9-.42-.86-1.05V6.66c0-.23,0-.51.31-.45.91.16.94-.38.89-1,0-.11,0-.29.07-.31,1-.35.37-1.16.51-1.76.09-.38-.13-.47-.47-.46Zm9.09,10.09c0-.14-.06-.24-.16-.17a.31.31,0,0,0-.13.17c0,.06,0,.16.13.09l.18-.09Z"/><path class="cls-1" d="M52,25.83c-1.06,2-2.11,4-3.18,6L34.17,58.58a1.41,1.41,0,0,1-.53.72c-.39-.74-.8-1.45-1.2-2.18l-16.93-31a.25.25,0,0,0-.06-.16,13.61,13.61,0,0,1,4-1c.12.72.63,1.37.33,2.25a5.22,5.22,0,0,0-1.47-1.08c-.19-.08-.4-.32-.58-.12s-.05.38,0,.56a2.7,2.7,0,0,0,1.69,2.05,1.92,1.92,0,0,1,1.39,2.11,4.45,4.45,0,0,0-2.39-.81c.39,1.17,1,2.12,2.27,2.13s1.58.79,2.14,1.7a6.55,6.55,0,0,0-2.57-.15,2.59,2.59,0,0,0,3.06,1.51c.28,0,.56-.3.87,0s.82.73,1.35,1.19a3.72,3.72,0,0,0-2.63.54,2.82,2.82,0,0,0,3.21.65,2,2,0,0,1,2.41.59,3.87,3.87,0,0,0-2.21,1,2.58,2.58,0,0,0,3.38-.23c.22-.17.38-.47.77-.4.89.15,1.79.27,2.85.41A10.88,10.88,0,0,0,31.62,40a6.61,6.61,0,0,0-1.2,1.44c.41.12.52-.21.67-.4a7.7,7.7,0,0,1,2-1.6c.37-.22.55-.23.54.29v3.45c0,.33-.07.51-.43.57a2.41,2.41,0,0,0-1.92,1.69c-.14.4-.36.48-.75.47h-2.1c-.24,0-.46,0-.46.34s.28.27.48.28a8.45,8.45,0,0,0,1.59,0c1-.18,1.28.36,1.5,1.12.11.38.14.65-.42.59a10.11,10.11,0,0,0-1.35,0c-.21,0-.36,0-.35.33s.15.33.37.33h1.43c.44,0,.5.09.45.47a12.9,12.9,0,0,1-.46,1.83,2.77,2.77,0,0,0,1-1.7c.08-.37.12-.67.59-.58.25,0,.61-.19.74.18s-.05.65-.41.89a1,1,0,0,0-.29,1.37l.14.18a1.09,1.09,0,0,0,1.52,0,1,1,0,0,0,0-1.41L34.34,50c-.34-.24-.53-.48-.42-.88s.46-.17.71-.21c.51-.1.55.28.64.65a3.32,3.32,0,0,0,1,1.69c.11-.28-.06-.44-.12-.62-.6-1.69-.59-1.71,1.2-1.73h.09c.26-.05.69.17.68-.36s-.42-.28-.64-.29H35.9c.32-1.68.32-1.68,1.89-1.68h1.27c.2,0,.49.11.48-.27s-.25-.31-.48-.32H37c-.34,0-.55,0-.69-.44a2.35,2.35,0,0,0-1.84-1.65c-.19,0-.48,0-.48-.37V39.27a6.93,6.93,0,0,1,2.37,1.63l.22.32c.11-.18.14-.36-.07-.49a6.31,6.31,0,0,0-2.36-2,14.48,14.48,0,0,0,2.27-.26,1.43,1.43,0,0,1,1.49.4,2.5,2.5,0,0,0,3.25.1,5.56,5.56,0,0,0-2.41-1.06c1-.46,1.7-1.06,2.81-.42a2.28,2.28,0,0,0,2.89-.78,4.81,4.81,0,0,0-2.5-.53c.79-.75,1.38-1.43,2.63-1.07a2.28,2.28,0,0,0,2.53-1.57,5.39,5.39,0,0,0-2.67.28c.64-.9,1-1.77,2.26-1.8a2.26,2.26,0,0,0,2.16-2.15,4.69,4.69,0,0,0-2.2.74l-.15-.17a2.33,2.33,0,0,1,1.67-2,2.32,2.32,0,0,0,1.49-2.54,4,4,0,0,0-2.25,1.57,9.28,9.28,0,0,1,.54-2.55A26.46,26.46,0,0,1,52,25.83Z"/><path class="cls-3" d="M5.89,8.33c2.83,1.31,5.66,2.61,8.47,4,2.59,1.2,5.18,2.42,7.77,3.64.27.13.59.19.79.53-.35.14-.6-.09-.86-.19L7.57,10.14a1.62,1.62,0,0,0-.88-.26Z"/><path class="cls-3" d="M60.6,10a15.18,15.18,0,0,0-3.2,1.18c-4,1.68-8.07,3.39-12.11,5.09-.21.09-.43.27-.7.19,0-.3.21-.31.36-.38L61.11,8.44a1.8,1.8,0,0,1,.32-.06,3.37,3.37,0,0,1-.68,1.38c-.1,0-.17,0-.17.15Z"/><path class="cls-3" d="M16.87,1.57l-2,.11L25.07,12.85a1.06,1.06,0,0,1-.91-.51q-4.92-5-9.8-9.92a2.11,2.11,0,0,0-1.64-.81A38.31,38.31,0,0,1,16.87,1.57Z"/><path class="cls-3" d="M54.79,1.57a2.42,2.42,0,0,0-1.92,1c-3,3.14-6.12,6.26-9.19,9.37-.22.23-.4.54-.9.48L52.6,1.76c-.41-.25-.84,0-1.22-.18A25.86,25.86,0,0,1,54.79,1.57Z"/><path class="cls-3" d="M44.11,1.59c-.72-.07-1,.33-1.32,1C41.55,5.34,40.24,8.07,39,10.8c-.12.26-.16.59-.5.72a.78.78,0,0,1,.14-.81c1.09-2.79,2.17-5.58,3.28-8.36.16-.4.25-.69-.33-.73A12.28,12.28,0,0,1,44.11,1.59Z"/><path class="cls-3" d="M26.28,1.56l-1,.13,3.87,9.86c-.56-.15-.59-.49-.71-.74C27.15,8,25.86,5.28,24.59,2.48c-.27-.6-.59-1-1.28-.91A21,21,0,0,1,26.28,1.56Z"/><path class="cls-3" d="M11.81,19.25,22.17,20v.23c-3.24.19-6.5-.13-9.73.17Z"/><path class="cls-3" d="M55,20.29H45.27V20l10.31-.7Z"/><path class="cls-3" d="M19.48,25a13.61,13.61,0,0,0-4,1l-.38-.73,4.33-.93A3.42,3.42,0,0,0,20.92,24H22c-.29.4-.77.31-1.1.51S19.85,24.48,19.48,25Z"/><path class="cls-3" d="M52,25.83a27.2,27.2,0,0,0-4-.9,2.44,2.44,0,0,0-1.4-.46l-1.12-.39v-.15h1.11a2.7,2.7,0,0,0,1.5.32,42.69,42.69,0,0,0,4.33.91Z"/><path class="cls-1" d="M60.54,10c0-.12.07-.15.17-.15S60.74,10,60.54,10Z"/><path class="cls-3" d="M61.41,8.42l.18-.15C61.53,8.37,61.53,8.46,61.41,8.42Z"/><path class="cls-2" d="M46.56,24.47a2.44,2.44,0,0,1,1.4.46,9.28,9.28,0,0,0-.54,2.55,4,4,0,0,1,2.25-1.57,2.32,2.32,0,0,1-1.49,2.54,2.31,2.31,0,0,0-1.67,2c-.11.06-.16.19-.09.27s.17,0,.24-.1a4.69,4.69,0,0,1,2.2-.74A2.26,2.26,0,0,1,46.7,32c-1.28,0-1.62.9-2.26,1.8a5.28,5.28,0,0,1,2.67-.27,2.29,2.29,0,0,1-2.53,1.56c-1.25-.36-1.84.32-2.63,1.07a4.81,4.81,0,0,1,2.5.53,2.28,2.28,0,0,1-2.89.78c-1.11-.64-1.81,0-2.81.42A5.54,5.54,0,0,1,41.12,39a2.5,2.5,0,0,1-3.25-.1,1.43,1.43,0,0,0-1.49-.4,15.78,15.78,0,0,1-2.27.26,6.31,6.31,0,0,1,2.36,2l-.15.11a6.91,6.91,0,0,0-2.43-1.74v4.23c0,.33.29.33.48.37a2.38,2.38,0,0,1,1.85,1.65c.13.4.34.44.68.44H39c.23,0,.48,0,.48.32s-.28.27-.48.28H37.71c-1.56,0-1.56,0-1.89,1.67h1.57c.22,0,.62-.19.64.29s-.42.31-.68.36h-.09c-1.79,0-1.8,0-1.2,1.73.06.18.23.34.13.62a3.26,3.26,0,0,1-1-1.69c-.09-.36-.13-.75-.64-.65-.25,0-.6-.2-.71.22s.08.63.42.87a1,1,0,0,1,.29,1.37,1.24,1.24,0,0,1-.14.18,1.09,1.09,0,0,1-1.52,0,1,1,0,0,1,0-1.41l.18-.14c.36-.24.54-.5.41-.88s-.49-.15-.74-.19c-.47-.09-.51.22-.59.58a2.74,2.74,0,0,1-1,1.7,12.9,12.9,0,0,0,.46-1.83c.05-.38-.08-.48-.45-.47H29.71c-.23,0-.37-.06-.38-.33s.14-.33.36-.33H31c.44,0,.52-.21.41-.59-.22-.76-.52-1.3-1.5-1.11a8.45,8.45,0,0,1-1.59,0c-.2,0-.48.08-.48-.29s.22-.34.46-.34h2.1c.39,0,.61-.07.75-.47a2.41,2.41,0,0,1,1.92-1.69c.36-.06.43-.24.43-.57V39.61c0-.52-.17-.51-.54-.29a7.49,7.49,0,0,0-2,1.6c-.16.19-.27.52-.68.4a6.91,6.91,0,0,1,1.2-1.44,11.15,11.15,0,0,1,1.8-1c-1.06-.15-2-.26-2.85-.41-.39-.07-.55.23-.77.4a2.58,2.58,0,0,1-3.38.23,3.87,3.87,0,0,1,2.21-1,2,2,0,0,0-2.41-.59,2.82,2.82,0,0,1-3.21-.65c.75-.63,1.63-.51,2.63-.54-.53-.46-1-.81-1.35-1.19s-.59,0-.87,0a2.59,2.59,0,0,1-3.06-1.51,6.55,6.55,0,0,1,2.57.15c-.56-.91-.92-1.69-2.14-1.7s-1.88-1-2.27-2.13a4.37,4.37,0,0,1,2.39.81,1.93,1.93,0,0,0-1.38-2.15,2.69,2.69,0,0,1-1.7-2c0-.18-.09-.46,0-.56s.39,0,.58.12a5.46,5.46,0,0,1,1.52,1.08c.3-.88-.21-1.53-.33-2.25.36-.47.92-.4,1.4-.48-.17,1-1,1.91-.29,3.07a4.4,4.4,0,0,1,1.75-2.38,2.52,2.52,0,0,1-1,3.22c-.53.34-.6.65-.36,1.15s.42,1,.7,1.58c.13-.7.2-1.24.33-1.75A3.13,3.13,0,0,1,22.83,28c.61,1.35.73,2.59-.4,3.67-.29.28-.22.47,0,.71a18.15,18.15,0,0,0,1.15,1.47,4.71,4.71,0,0,1,.35-3.07,2.42,2.42,0,0,1,.77,3.11c-.42.77-.13,1.09.41,1.47l.75.55c.06.07.14.2.23.11a.22.22,0,0,0-.06-.33,3.88,3.88,0,0,1-.22-2.64,2.51,2.51,0,0,1,1.45,2.89c-.15.69,0,1,.64,1.18a4.73,4.73,0,0,0,1.36.45,4.73,4.73,0,0,1-1.09-2.8,2.59,2.59,0,0,1,2.15,2.16c.26,1.28.29,1.31,1.73,1.31-.18-.24-.36-.45-.51-.68a.59.59,0,0,1,0-.82.67.67,0,0,1,.91,0,3.85,3.85,0,0,1,1.13,1.43V36.4h.29v1.67c.35-.47.49-.9.85-1.17s.74-.59,1.18-.15,0,.76-.2,1.1a2.18,2.18,0,0,1-.4.34c.53.2,1-.06,1.46-.11s.31-.4.32-.65a2.62,2.62,0,0,1,2.21-2.69A4.56,4.56,0,0,1,38,37.61a6,6,0,0,0,2-.75c.34-.16.15-.41.11-.65A2.76,2.76,0,0,1,41.68,33a4.08,4.08,0,0,1-.33,2.85l-.09.15h.2c.27-.2.54-.41.82-.59A1.11,1.11,0,0,0,42.81,34a2.39,2.39,0,0,0-.13-.21c-.58-1.12-.1-2.16.74-3.08a4,4,0,0,1,.25,3.21,5.81,5.81,0,0,0,1.47-1.76c.16-.27-.13-.39-.26-.55A2.74,2.74,0,0,1,44.66,28c.71.77.8,1,1.15,3a8.82,8.82,0,0,0,.78-1.78c.13-.33,0-.5-.27-.7a2.62,2.62,0,0,1-1.17-3.37,4.2,4.2,0,0,1,1.74,2.7c.23-.86.52-1.58,0-2.33A2,2,0,0,1,46.56,24.47ZM31.76,46.52c.18.54.35.95.46,1.37s.54.26.83.3.42.07.51-.26c.27-1,0-1.42-1-1.41Zm4,0a4.12,4.12,0,0,1-.86,0c-.79-.12-1.09.2-.93,1,.06.27-.27.74.35.74.46,0,1,.15,1-.59A6,6,0,0,1,35.73,46.52Zm-4-.66c2.29.1,1.7.11,1.8-1,0-.53-.22-.56-.61-.42A1.83,1.83,0,0,0,31.76,45.86Zm3.12,0c.13-.12.68.4.72-.25s-.89-1.3-1.42-1.25-.22.47-.27.72C33.79,45.7,34,46.07,34.88,45.86Zm-.41-7.69a1.49,1.49,0,0,0,1.26-1,.2.2,0,0,0-.11-.26.17.17,0,0,0-.12,0A1.37,1.37,0,0,0,34.44,38a.27.27,0,0,0,0,.14Zm-1.38,0A2,2,0,0,0,32.25,37a.35.35,0,0,0-.45,0c-.15.16-.05.31.05.44a1.5,1.5,0,0,0,1.24.64Z"/><path class="cls-2" d="M33.74,12.42h6.57a1,1,0,0,1,1,.58,20.37,20.37,0,0,1,1.14,17.78c-.19.49-.34.63-.87.35a16.26,16.26,0,0,0-15.66,0c-.46.25-.62.18-.82-.31A20.1,20.1,0,0,1,26.27,13a.89.89,0,0,1,.91-.54h6.56Zm0,.81H27.51a.73.73,0,0,0-.77.46,20.45,20.45,0,0,0-2.4,9.69,20.79,20.79,0,0,0,.8,5c.15.58.36.61.85.39a18.25,18.25,0,0,1,15.49,0c.56.25.73.16.89-.43A20,20,0,0,0,40.8,13.81a.93.93,0,0,0-1-.58ZM26,29.89a18.58,18.58,0,0,1,15.75.25C38.91,27.44,29.52,27.3,26,29.89Z"/><path class="cls-2" d="M33.74,2.66h2.37c.34,0,.56.08.47.46-.14.6.48,1.41-.51,1.76-.06,0-.08.2-.07.31,0,.65,0,1.19-.89,1-.33-.06-.31.22-.31.45V7.91c0,.63-.08,1.19.86,1.05.44-.05.31.37.33.63s-.13.89.58.81c.28,0,.31.2.28.41s.15.64-.15.85c-.13.1-.42.1-.42-.08,0-.77-.57-.52-1-.53H31.92c-.36,0-.8-.17-.82.49,0,.26-.33.25-.5,0a.83.83,0,0,1,.33-1.14l.1-.05c.46-.07.32-.4.3-.63,0-.57,0-.94.75-.82.38.06.47-.15.45-.5s0-.84,0-1.26c0-.63.09-1.22-.85-1A.5.5,0,0,1,31.39,6c.1-1.09-.94-2-.61-3.12.09-.34.28-.28.49-.29Zm0,1.43h1.77c.29,0,.47,0,.47-.39s-.2-.4-.48-.4H31.89c-.27,0-.49,0-.49.4s.23.39.5.39Zm0,1.47h1.34c.45,0,.37-.14.37-.42s-.08-.41-.38-.4H32.46c-.35,0-.38.2-.39.47s.16.37.41.36S33.29,5.56,33.74,5.56Zm0,4.85h1.18c.4,0,.52-.05.51-.45s-.21-.38-.48-.38H32.49c-.28,0-.47,0-.46.4s.1.45.43.43S33.31,10.41,33.74,10.41Zm.5-2.81V6.76c0-.28-.09-.59-.5-.59s-.5.17-.49.54V8.47c0,.33.06.52.45.49s.63,0,.58-.46a3.86,3.86,0,0,1-.05-.9Z"/><path class="cls-3" d="M33.87,36.41h-.29a4.71,4.71,0,0,1-3.25-3.13c0-.16-.14-.38-.08-.47s.36,0,.54,0a4.25,4.25,0,0,1,2.86,2.63,9,9,0,0,1,1.42-1.84,4.11,4.11,0,0,1,2.16-.9,4.16,4.16,0,0,1-2,3C34.79,36,34.32,36.18,33.87,36.41Z"/><path class="cls-2" d="M20.92,24a3.42,3.42,0,0,1-1.52.31,3.23,3.23,0,0,1,.76-2A2.62,2.62,0,0,1,20.92,24Z"/><path class="cls-2" d="M48.05,24.25a2.7,2.7,0,0,1-1.5-.32,3,3,0,0,1,.66-1.7A3,3,0,0,1,48.05,24.25Z"/><path class="cls-3" d="M42.85,12.75l-.16.09c-.13.07-.14,0-.13-.09a.31.31,0,0,1,.13-.17C42.79,12.51,42.8,12.61,42.85,12.75Z"/><path class="cls-2" d="M36.47,40.76c.21.13.18.31.07.49l-.22-.35Z"/><path class="cls-1" d="M31.76,46.52h.75c1,0,1.32.41,1,1.41-.09.33-.31.3-.51.26s-.69.24-.83-.3S31.93,47.06,31.76,46.52Z"/><path class="cls-1" d="M35.73,46.52a5.28,5.28,0,0,0-.4,1.09c-.07.74-.58.6-1,.59-.62,0-.29-.47-.35-.74-.16-.75.14-1.07.93-1A7.19,7.19,0,0,0,35.73,46.52Z"/><path class="cls-1" d="M31.76,45.86A1.81,1.81,0,0,1,33,44.4c.39-.14.66-.11.61.42C33.46,46,34.05,45.94,31.76,45.86Z"/><path class="cls-1" d="M34.88,45.86c-.87.25-1.09-.12-1-.78,0-.25-.24-.67.27-.72s1.45.74,1.42,1.25S35,45.7,34.88,45.86Z"/><path class="cls-1" d="M34.47,38.13c0-.1-.06-.13,0-.14a1.37,1.37,0,0,1,1-1.06.2.2,0,0,1,.24.15.25.25,0,0,1,0,.12A1.49,1.49,0,0,1,34.47,38.13Z"/><path class="cls-1" d="M33.09,38.12a1.51,1.51,0,0,1-1.24-.68c-.1-.13-.2-.28-.05-.44a.35.35,0,0,1,.45,0A2.05,2.05,0,0,1,33.09,38.12Z"/><path class="cls-1" d="M46.64,30.63c-.07.05-.13.22-.24.1s0-.21.09-.27Z"/><path class="cls-1" d="M26,35.67c.12.09.16.23.06.33s-.17,0-.23-.11Z"/><path class="cls-1" d="M41.41,36h-.2l.09-.15Z"/><path class="cls-1" d="M33.74,13.23h6.08a.93.93,0,0,1,1,.58,20,20,0,0,1,1.57,14.55c-.16.59-.33.68-.89.43a18.25,18.25,0,0,0-15.49,0c-.49.22-.7.19-.85-.39a20.79,20.79,0,0,1-.8-5,20.45,20.45,0,0,1,2.4-9.69.73.73,0,0,1,.77-.46h6.22ZM27.94,17l-.15-.17a4.46,4.46,0,0,1,.73-1.54c.14.52-.27.74-.08,1.08A4.54,4.54,0,0,0,30,14.81H28.37c-.23,0-.43,0-.56.25a11,11,0,0,0-1,2.73,5,5,0,0,0,4.58-4.18H27.87a.88.88,0,0,0-1,.59,20.21,20.21,0,0,0-2.26,9.52,20.3,20.3,0,0,0,.75,4.37c.08.32.19.45.57.29a25.11,25.11,0,0,1,6.41-1.71A8.52,8.52,0,0,1,26,21.15,14.67,14.67,0,0,0,26,25c.35,2.17-.2,2.06,2.13,1.24l.09-.12c-.47-.2-.62-1.26-1.45-.35a4.13,4.13,0,0,1-.13-1.44l2.39,2c-.89.29-1.7.52-2.47.81-.44.17-.53,0-.61-.35a18.28,18.28,0,0,1,1.49-11.91c.13-.27.22-.5.59-.49h2.49A4.44,4.44,0,0,1,27.92,17Zm9.92,2.84a1.62,1.62,0,0,0-1.53-1.71h-.11c-.47,0-.72-.07-.88-.6a1.56,1.56,0,0,0-1.7-1.11,1.48,1.48,0,0,0-1.55,1.16c-.12.48-.32.55-.75.52a1.51,1.51,0,0,0-1.57,1.08,1.64,1.64,0,0,0,.56,2c.39.26.4.46.28.87a1.67,1.67,0,0,0,.66,2,1.56,1.56,0,0,0,2,0c.38-.31.61-.17,1,0a1.73,1.73,0,0,0,2.39-.45c.53-.67,0-1.48.19-2s1.05-1,1-1.79ZM35.1,26.56c.06.1.09.18.12.18a19.47,19.47,0,0,1,6.32,1.64c.43.19.45,0,.53-.35a19.07,19.07,0,0,0-1.52-13.9c-.12-.22-.18-.52-.56-.51H36c.55,2.41,2.69,4.26,4.67,4.15a16.75,16.75,0,0,0-1-2.58c-.1-.23-.21-.38-.49-.38H37.45a4.87,4.87,0,0,0,1.71,1.54,4,4,0,0,1-.17-.49c0-.12-.18-.24,0-.38a2.09,2.09,0,0,1,.7,1.5A4,4,0,0,1,37,14.43h2.19A.77.77,0,0,1,40,15a18,18,0,0,1,1.62,10.91c-.22,1.41-.25,1.4-1.55,1l-1.69-.53,2.51-2.09-.23,1.63c-.51-.71-.62-.67-1.45.33,1.85.76,1.85.76,2.14-1.12,0-.11.09-.21.1-.32a14.7,14.7,0,0,0-.09-3.63,8.3,8.3,0,0,1-6.33,5.41ZM34.35,15a.57.57,0,0,0-.54-.6h-.05a.55.55,0,0,0-.58.51v.08a.53.53,0,0,0,.48.57h.1a.54.54,0,0,0,.55-.54h0Zm6.14,4.81a.54.54,0,0,0-.58-.57.55.55,0,0,0-.6.49v.06a.57.57,0,0,0,.52.6h.06a.59.59,0,0,0,.6-.55Zm-13-.58a.52.52,0,0,0-.56.47.34.34,0,0,0,0,.1.55.55,0,0,0,.5.59h.06a.59.59,0,0,0,.66-.51.58.58,0,0,0-.51-.65h-.16ZM33.74,26a.54.54,0,0,0,.59-.5v-.06a.52.52,0,0,0-.45-.59h-.1a.52.52,0,0,0-.57.45v.11a.54.54,0,0,0,.48.6Z"/><path class="cls-1" d="M26,29.89c3.51-2.59,12.9-2.45,15.75.25A18.58,18.58,0,0,0,26,29.89Z"/><path class="cls-1" d="M33.74,4.09H31.9c-.27,0-.49,0-.5-.39s.22-.4.49-.4H35.5c.28,0,.49,0,.48.4s-.18.4-.47.39Z"/><path class="cls-1" d="M33.74,5.56H32.48c-.25,0-.43,0-.41-.36s0-.47.39-.47h2.61c.3,0,.37.14.38.4s-.06.43-.37.42S34.16,5.56,33.74,5.56Z"/><path class="cls-1" d="M33.74,10.41H32.47c-.41,0-.42-.12-.43-.43s.18-.41.46-.4H35c.27,0,.48,0,.48.38s-.18.47-.5.45S34.12,10.41,33.74,10.41Z"/><path class="cls-1" d="M34.23,7.6v.91c0,.47-.26.44-.58.46s-.46-.16-.45-.49V6.72c0-.37.06-.54.49-.54s.59.16.54.58A4.64,4.64,0,0,0,34.23,7.6Z"/><path class="cls-3" d="M37.82,19.79c.06.8-.8,1.14-1,1.73s.34,1.34-.19,2a1.73,1.73,0,0,1-2.39.45c-.34-.21-.57-.35-1,0a1.56,1.56,0,0,1-2,0,1.67,1.67,0,0,1-.66-2c.12-.41.11-.61-.28-.87a1.66,1.66,0,0,1-.56-2A1.5,1.5,0,0,1,31.37,18c.43,0,.63-.05.75-.53a1.48,1.48,0,0,1,1.55-1.16,1.56,1.56,0,0,1,1.7,1.11c.16.54.41.59.88.6a1.64,1.64,0,0,1,1.58,1.68A.28.28,0,0,1,37.82,19.79Z"/><path class="cls-2" d="M27.92,17a4.44,4.44,0,0,0,2.62-2.51H28.05c-.37,0-.46.22-.59.49A18.28,18.28,0,0,0,26,26.84c.08.37.17.52.61.35.77-.29,1.58-.52,2.47-.81l-2.39-2a4,4,0,0,0,.14,1.38c.83-.91,1,.15,1.45.35-.06.08-.07.12-.09.12-2.33.82-1.78.93-2.13-1.24a14.67,14.67,0,0,1,0-3.86,8.52,8.52,0,0,0,6.31,5.52,25.11,25.11,0,0,0-6.41,1.71c-.38.16-.49,0-.57-.29a20.3,20.3,0,0,1-.75-4.37,20.21,20.21,0,0,1,2.26-9.52.88.88,0,0,1,1-.59h3.53A5,5,0,0,1,26.8,17.8a11.21,11.21,0,0,1,1-2.7c.13-.27.33-.25.56-.25h1.56a4.45,4.45,0,0,1-1.51,1.51c-.19-.34.22-.56.08-1.08a4.56,4.56,0,0,0-.69,1.5l-.06.19Z"/><path class="cls-2" d="M35.06,26.56a8.3,8.3,0,0,0,6.29-5.41,14.7,14.7,0,0,1,.09,3.63c0,.11-.08.21-.1.32C41.05,27,41.05,27,39.2,26.22c.83-1,1-1,1.45-.33l.23-1.62-2.51,2.09,1.69.53c1.31.43,1.34.44,1.55-1A18,18,0,0,0,40,15a.77.77,0,0,0-.82-.54H37A4,4,0,0,0,39.7,17a2.09,2.09,0,0,0-.7-1.5c-.15.14,0,.26,0,.38a4,4,0,0,0,.17.49,4.87,4.87,0,0,1-1.71-1.54h1.76c.28,0,.39.15.49.38a16.75,16.75,0,0,1,1,2.58c-2,.11-4.11-1.74-4.69-4.14h4c.38,0,.44.29.56.51a19.07,19.07,0,0,1,1.52,13.9c-.08.31-.1.54-.53.35a19.47,19.47,0,0,0-6.32-1.64A1.53,1.53,0,0,1,35.06,26.56Z"/><path class="cls-2" d="M34.31,15a.55.55,0,0,1-.53.56h-.06a.52.52,0,0,1-.58-.46v-.1a.55.55,0,0,1,.5-.59h.08a.57.57,0,0,1,.59.55Z"/><path class="cls-2" d="M40.49,19.76a.57.57,0,0,1-.57.58h0a.56.56,0,0,1-.58-.54v-.06a.55.55,0,0,1,.53-.56h.07C40.28,19.2,40.44,19.43,40.49,19.76Z"/><path class="cls-2" d="M27.52,19.18a.58.58,0,0,1,.66.5.6.6,0,0,1-.51.66h-.15a.55.55,0,0,1-.56-.53.06.06,0,0,1,0-.06.5.5,0,0,1,.45-.57Z"/><path class="cls-2" d="M33.74,26a.53.53,0,0,1-.53-.55v0a.51.51,0,0,1,.47-.56h.1a.53.53,0,0,1,.55.5.34.34,0,0,1,0,.1.54.54,0,0,1-.52.56A.09.09,0,0,1,33.74,26Z"/><path class="cls-1" d="M27.92,17h-.21l.08-.17Z"/><path class="cls-4" d="M35.17,20.38a3.8,3.8,0,0,1-1.43,2.5,3.8,3.8,0,0,1-1.43-2.5,3.8,3.8,0,0,1,1.43-2.5A3.8,3.8,0,0,1,35.17,20.38Z"/><circle class="cls-5" cx="33.74" cy="20.38" r="1.07"/></g></svg>