<svg xmlns="http://www.w3.org/2000/svg" viewBox="0 0 784.39 77.28"><line x1="495.09" y1="2.54" x2="495.09" y2="74.74" fill="none" stroke="#000" stroke-miterlimit="10" stroke-width="3"/><path d="M537.49,23.48h-1.78v-6H523.39v7h-1.77v-7H510.13v6h-1.84V15.8h13.33V13.21H509.56V11.56h26.78v1.65h-13V15.8h14.1Zm1.07,13.83a5.41,5.41,0,0,1-1.09,3.06,4.46,4.46,0,0,1-3,1c-1.44.08-3.05.13-4.85.13-1.56,0-3,0-4.42-.11a4.5,4.5,0,0,1-2.8-.79,2.89,2.89,0,0,1-.72-2.18V35.87H510.44V25.8h24.34V35.87H523.53V38.6a.76.76,0,0,0,.31.67,6.38,6.38,0,0,0,2.24.35c1.28.09,2.72.13,4.3.13a30.66,30.66,0,0,0,4.83-.2,1.6,1.6,0,0,0,1.06-1,7.58,7.58,0,0,0,.42-2.15Zm-18.38-14a41.25,41.25,0,0,1-7.94,1.33l-.57-1.62A46.62,46.62,0,0,0,519.59,22Zm0-3.59-.59,1.51a50.76,50.76,0,0,0-7.68-1.1l.78-1.51A53.9,53.9,0,0,1,520.18,19.75ZM521.67,30V27.45h-9.4V30Zm0,4.21V31.57h-9.4V34.2ZM532.92,30V27.45h-9.39V30Zm0,4.21V31.57h-9.39V34.2ZM534,23.38l-.81,1.47a48.54,48.54,0,0,0-8.3-1.37l.78-1.41A46.09,46.09,0,0,1,534,23.38Zm-.24-3.18a78.45,78.45,0,0,1-8,1l-.53-1.44a71.9,71.9,0,0,0,7.92-1.1Z"/><path d="M573.31,27.07H559.14V38.82a2.68,2.68,0,0,1-.8,2,2.9,2.9,0,0,1-2.12.78c-1.4,0-2.92,0-4.55-.07L551,39.63c2.67.07,4.49.1,5.47.1a.74.74,0,0,0,.59-.31,1,1,0,0,0,.25-.63V27.07H542.8V25.2h14.47V20.63a54,54,0,0,0,9.57-7.11H546.69V11.63h22.79v1.89a69,69,0,0,1-10.34,8.12V25.2h14.17Z"/><path d="M603.43,36.61h-14l.88,1.15a46.78,46.78,0,0,1-11.55,4l-.91-1.67a37.68,37.68,0,0,0,10.74-3.5h-5.46V23.72h20.27ZM588,20.39h-9.85V18.62H588Zm-.28-6.34h-8.86V12.36h8.86Zm13.9,13.33v-2H585v2Zm0,3.76V29H585v2.18Zm0,3.8V32.72H585v2.22ZM608.7,21.5l-.77,1.72q-6.75-1-10.51-4.1a16.42,16.42,0,0,1-8.06,4l-1-1.68q6.48-1,8.94-5.28l1.92.35a4.72,4.72,0,0,1-.8,1.37Q602,20.81,608.7,21.5ZM608,15.06a29,29,0,0,1-3.3,4l-1.34-1.27a29.79,29.79,0,0,0,2.56-3H593A18.1,18.1,0,0,1,589.81,18l-1.22-1.22a18.33,18.33,0,0,0,5.1-6.2l1.72.6-1.12,1.94H608Zm.53,25.14-.84,1.61a67,67,0,0,0-10.21-3l.88-1.58A62.76,62.76,0,0,1,608.5,40.2Z"/><path d="M619.2,29.92a88.19,88.19,0,0,1-4.86,11.19l-1.41-1.48a86.08,86.08,0,0,0,4.6-10.77Zm.55-5.8-1.18,1.4A67.29,67.29,0,0,0,613,21.47l1.34-1.34A43.83,43.83,0,0,1,619.75,24.12Zm.67-8.39-1.37,1.34a42.07,42.07,0,0,0-5.66-4.33l1.41-1.37A55.57,55.57,0,0,1,620.42,15.73Zm23.37-2.18h-8.27a29.19,29.19,0,0,1-1.06,3.69h7.75V29.42h-6.82V39a2.79,2.79,0,0,1-.68,1.8c-.46.55-1.5.83-3.12.83a17.32,17.32,0,0,1-1.81-.11l-.53-1.82a19.12,19.12,0,0,0,2.42.16,3.08,3.08,0,0,0,1.53-.22.66.66,0,0,0,.28-.54V29.42h-6.55V17.24h5.53q.45-1.24,1-3.69H624V25a30.3,30.3,0,0,1-4.53,16.59L618,40.23a20.33,20.33,0,0,0,3-6.56,46.7,46.7,0,0,0,1.18-12.06V11.83h21.63Zm-13,19.29a41.2,41.2,0,0,1-5.94,6.79l-1.25-1.34a41.23,41.23,0,0,0,5.79-6.82Zm9.5-10.46V19H628.81v3.4Zm0,5.36V24.12H628.81v3.62ZM644,38.32l-1.32,1.38a44.94,44.94,0,0,0-5-6.82l1.41-1.27A52.33,52.33,0,0,1,644,38.32Z"/><path d="M679.07,22.88,678,24.49a70.15,70.15,0,0,0-13.48-5.94v5.07h10.42V36H652.38V23.62h10.34V16.73q-4.4,4.27-13.51,7.87L648,23q8.44-2.79,13.3-7.21H648.36V14h14.36V10.66h1.79V14h14.36v1.76H664.51v1A78.5,78.5,0,0,1,679.07,22.88Zm0,17.87H648.29V39H679Zm-6-11.93V25.37H654.2v3.45Zm0,5.31v-3.5H654.2v3.5Z"/><path d="M695.36,16.2H683.57V14.46h5.3L687.3,11.2l1.77-.67,1.72,3.93h4.57Zm-1,5.13h-10V19.65h10Zm0,5.07h-10V24.67h10Zm-.47,14.31h-1.82V38.86H686.5v2.66h-1.83V29.8h9.21Zm-1.82-3.62V31.57H686.5v5.52Zm21.36-21.67q0,6.68-.21,13.88c-.14,4.81-.28,7.65-.42,8.5a4.52,4.52,0,0,1-1,2.2,3.82,3.82,0,0,1-1.94,1.24,12.36,12.36,0,0,1-3.09.31H704.9l-.62-1.85c.67,0,1.43,0,2.26,0a7.51,7.51,0,0,0,3.35-.44,2.44,2.44,0,0,0,.92-1.12,52.3,52.3,0,0,0,.56-7.42q.3-6.73.29-13.63h-11a41.92,41.92,0,0,1-2.75,3.9h9.57V35.76h-9.81V21.44A15.36,15.36,0,0,1,696.36,23L695,21.93a41.09,41.09,0,0,0,6.92-11.4l1.7.56a25,25,0,0,1-2,4.33Zm-7.73,11.75V22.81h-6.28v4.36Zm0,6.79v-5h-6.28v5Z"/><path d="M729.77,34a31.89,31.89,0,0,1-10,5.5l-1.17-1.57q6.84-2.52,9.7-5.13Zm18.59-2.71-1.58,1.06a29.74,29.74,0,0,0-2.08-2.75q-6.84.72-9.46,1v8.91a1.84,1.84,0,0,1-.52,1.31,2.28,2.28,0,0,1-1.15.67,13.37,13.37,0,0,1-2.36.14c-.64,0-1.23,0-1.78-.06l-.78-1.85c.66,0,1.34,0,2.05,0a17.91,17.91,0,0,0,2.22-.08c.27-.06.41-.33.41-.81V30.7q-7.74.48-11.65.61l-.55-1.54a97.37,97.37,0,0,0,12.66-5.65c-4.06.24-7.69.4-10.87.48l-.47-1.29A37.76,37.76,0,0,0,735.2,16L737,17a40.47,40.47,0,0,1-8.76,5.67l3.29-.15c1,0,2.08-.12,3.09-.2a14.9,14.9,0,0,0,3.21-.43,53,53,0,0,0,4.38-3.07L743.79,20q-5.65,4.35-17,9.4,8.52-.32,16.47-1.34a29.57,29.57,0,0,0-2.68-2.56l1.58-1.06A39.1,39.1,0,0,1,748.36,31.25ZM737.62,11.63q-4.9,4.44-14.77,7L721.44,17q9.81-2.13,14.6-6.44ZM749.24,38,748,39.53a40.47,40.47,0,0,0-8.86-5.5l1.2-1.48A45.07,45.07,0,0,1,749.24,38Z"/><path d="M757.64,33.19a35.68,35.68,0,0,1-2.13,8.26l-1.67-.6a32.93,32.93,0,0,0,2.08-8.09ZM766.12,31l-1.61.56a14.44,14.44,0,0,0-.57-2A91.91,91.91,0,0,1,754.65,32l-.52-1.61a54.72,54.72,0,0,0,6.93-8.7c-1.86.39-3.93.74-6.22,1L754.37,21a36.85,36.85,0,0,0,5.81-10.35l1.65.61a36.07,36.07,0,0,1-5.14,9.43,43.7,43.7,0,0,0,5.53-1A18.77,18.77,0,0,0,763.63,17l1.62.7a53.85,53.85,0,0,1-8.06,11.86,44.73,44.73,0,0,0,6.19-1.76c-.24-.68-.54-1.41-.88-2.18l1.58-.67A31.76,31.76,0,0,1,766.12,31ZM762,40l-1.79.36a26.72,26.72,0,0,0-1.13-7.18l1.77-.27A45.25,45.25,0,0,1,762,40Zm4-2.78-1.65.53a33,33,0,0,0-1.41-5l1.61-.48A30.44,30.44,0,0,1,766,37.19Zm18.4-20.68H773.61a44.21,44.21,0,0,1-4.7,7.92,94.37,94.37,0,0,0,11-1.17A28.78,28.78,0,0,0,777.31,20l1.55-1A45.88,45.88,0,0,1,784,26.37l-1.48,1.08a18.27,18.27,0,0,0-1.62-2.63l-3.26.52V38.46c0,.52.27.77.81.77H781a1.13,1.13,0,0,0,.81-.3,5,5,0,0,0,.52-2.15,41.55,41.55,0,0,0,.25-4.16l1.77.64a24,24,0,0,1-.53,5.42,3,3,0,0,1-1.32,1.89,6.84,6.84,0,0,1-2.93.45,5.78,5.78,0,0,1-2.87-.5,2.09,2.09,0,0,1-.77-1.89V25.56c-1.95.23-3.16.34-3.62.34q0,10.6-6.55,15.65l-1.22-1.25a15.67,15.67,0,0,0,4.41-5.54,20.84,20.84,0,0,0,1.57-8.69,37.57,37.57,0,0,1-3.87.23l-.39-1.6a29.46,29.46,0,0,0,5.46-8.19h-6V14.79h6.77c.4-.91,1-2.29,1.65-4.16l1.72.53c-.6,1.63-1.09,2.84-1.48,3.63h10Z"/><path d="M537.64,68.57H528.1V50.41h9.13v1.83h-7.14v6.18h6.6v1.83h-6.6v6.49h7.55Z"/><path d="M547.5,62.11h-6.91V60.55h6.91Z"/><path d="M564.38,68.57H562l-3-5.11a6.49,6.49,0,0,0-1.77-2.15,3.4,3.4,0,0,0-1.87-.51h-1.79v7.77h-2V50.41h5.34a5.8,5.8,0,0,1,4,1.29,4.41,4.41,0,0,1,1.48,3.54q0,3.76-4,4.89v0a3.6,3.6,0,0,1,1.24.85A16.56,16.56,0,0,1,561,63.12Zm-10.86-16.3V59h3a3.81,3.81,0,0,0,2.69-1,3.32,3.32,0,0,0,1-2.57,2.88,2.88,0,0,0-1-2.31,4,4,0,0,0-2.76-.83Z"/><path d="M576.27,62.57h-9.19A5,5,0,0,0,568.26,66a4,4,0,0,0,3.08,1.2,6.37,6.37,0,0,0,4-1.47v1.88a7.41,7.41,0,0,1-4.5,1.26,5.39,5.39,0,0,1-4.27-1.77,7.24,7.24,0,0,1-1.57-5,7.2,7.2,0,0,1,1.69-4.89A5.44,5.44,0,0,1,571,55.3a4.83,4.83,0,0,1,3.89,1.64,6.86,6.86,0,0,1,1.4,4.57Zm-2-1.73a4.3,4.3,0,0,0-.88-2.84A3,3,0,0,0,571,57a3.49,3.49,0,0,0-2.49,1,4.76,4.76,0,0,0-1.36,2.83Z"/><path d="M578.65,65.93a6.09,6.09,0,0,0,3.72,1.25c1.85,0,2.77-.62,2.77-1.86a1.67,1.67,0,0,0-.61-1.34,9,9,0,0,0-2.37-1.18,7,7,0,0,1-2.8-1.67,3.24,3.24,0,0,1-.69-2.1,3.19,3.19,0,0,1,1.42-2.7,5.8,5.8,0,0,1,3.5-1,7.27,7.27,0,0,1,3,.59v2a5.85,5.85,0,0,0-3.3-.94,3.2,3.2,0,0,0-1.87.51,1.61,1.61,0,0,0-.72,1.36,1.63,1.63,0,0,0,.5,1.29,8.64,8.64,0,0,0,2.25,1.16,7.86,7.86,0,0,1,3,1.71,3.1,3.1,0,0,1,.75,2.11,3.17,3.17,0,0,1-1.42,2.74,6.19,6.19,0,0,1-3.65,1,7,7,0,0,1-3.43-.78Z"/><path d="M589.52,62.25a7.11,7.11,0,0,1,1.76-5.09,6.31,6.31,0,0,1,4.8-1.86,5.78,5.78,0,0,1,4.49,1.79,7.14,7.14,0,0,1,1.62,5,7,7,0,0,1-1.76,5,6.07,6.07,0,0,1-4.65,1.87,6,6,0,0,1-4.53-1.8A6.7,6.7,0,0,1,589.52,62.25Zm2-.08a5.39,5.39,0,0,0,1.2,3.67,4.06,4.06,0,0,0,3.21,1.37,3.9,3.9,0,0,0,3.16-1.34,5.71,5.71,0,0,0,1.12-3.75,5.81,5.81,0,0,0-1.11-3.81A3.87,3.87,0,0,0,595.92,57a4,4,0,0,0-3.21,1.38A5.66,5.66,0,0,0,591.51,62.17Z"/><path d="M615.91,68.57h-2v-2h0a4.24,4.24,0,0,1-4,2.35q-4.63,0-4.64-5.52V55.61h1.93V63c0,2.79,1.07,4.19,3.19,4.19A3.25,3.25,0,0,0,613,66.05a4.45,4.45,0,0,0,1-3V55.61h2Z"/><path d="M626.8,57.61a2.57,2.57,0,0,0-1.56-.41A2.65,2.65,0,0,0,623,58.51a6,6,0,0,0-.88,3.42v6.64h-2v-13h2v2.68h.06a4.49,4.49,0,0,1,1.36-2.15,3.11,3.11,0,0,1,2-.76,3.46,3.46,0,0,1,1.27.18Z"/><path d="M637.51,68a6.66,6.66,0,0,1-3.52.91,5.8,5.8,0,0,1-4.44-1.8,6.55,6.55,0,0,1-1.7-4.68,7.2,7.2,0,0,1,1.83-5.16,6.41,6.41,0,0,1,4.86-1.93,6.81,6.81,0,0,1,3,.63v2a5.36,5.36,0,0,0-3.1-1,4.22,4.22,0,0,0-3.29,1.43,5.51,5.51,0,0,0-1.3,3.82,5.27,5.27,0,0,0,1.21,3.65,4.18,4.18,0,0,0,3.25,1.34,5.17,5.17,0,0,0,3.21-1.14Z"/><path d="M651,62.57h-9.19A5,5,0,0,0,643,66a4,4,0,0,0,3.09,1.2,6.35,6.35,0,0,0,4-1.47v1.88a7.37,7.37,0,0,1-4.5,1.26,5.39,5.39,0,0,1-4.27-1.77,7.29,7.29,0,0,1-1.57-5,7.15,7.15,0,0,1,1.7-4.89,5.42,5.42,0,0,1,4.23-1.93,4.83,4.83,0,0,1,3.89,1.64,6.86,6.86,0,0,1,1.4,4.57Zm-2-1.73a4.25,4.25,0,0,0-.88-2.84,3,3,0,0,0-2.42-1,3.49,3.49,0,0,0-2.49,1,4.76,4.76,0,0,0-1.36,2.83Z"/><path d="M653.39,65.93a6.09,6.09,0,0,0,3.72,1.25c1.85,0,2.77-.62,2.77-1.86a1.69,1.69,0,0,0-.6-1.34,9.29,9.29,0,0,0-2.38-1.18,7.08,7.08,0,0,1-2.8-1.67,3.38,3.38,0,0,1,.73-4.8,5.8,5.8,0,0,1,3.5-1,7.27,7.27,0,0,1,3,.59v2A5.82,5.82,0,0,0,658,57a3.16,3.16,0,0,0-1.87.51,1.77,1.77,0,0,0-.23,2.65,8.82,8.82,0,0,0,2.25,1.16,7.7,7.7,0,0,1,3,1.71,3.1,3.1,0,0,1,.76,2.11,3.18,3.18,0,0,1-1.43,2.74,6.17,6.17,0,0,1-3.65,1,7.07,7.07,0,0,1-3.43-.78Z"/><path d="M684.9,67.32a11.93,11.93,0,0,1-6,1.55,8.2,8.2,0,0,1-6.24-2.52,9.25,9.25,0,0,1-2.38-6.62,9.47,9.47,0,0,1,2.65-6.91,9,9,0,0,1,6.72-2.71,11.12,11.12,0,0,1,5,1v2.26a9.44,9.44,0,0,0-5.2-1.39,6.61,6.61,0,0,0-5.06,2.11,7.75,7.75,0,0,0-2,5.52,7.84,7.84,0,0,0,1.82,5.47,6.39,6.39,0,0,0,5,2,7.7,7.7,0,0,0,3.77-.88V61h-4V59.16h6Z"/><path d="M689.18,56.53a7.89,7.89,0,0,1,4.37-1.23q4.51,0,4.51,4.79v8.48h-2v-2H696a4.72,4.72,0,0,1-7,1.32,3.54,3.54,0,0,1-1.11-2.72q0-3.6,4.27-4.2l3.91-.57q0-3.37-2.69-3.37a6.27,6.27,0,0,0-4.22,1.6Zm3.73,5.88a4.42,4.42,0,0,0-2.31.81A2.27,2.27,0,0,0,690,65a2,2,0,0,0,.7,1.59,2.69,2.69,0,0,0,1.82.61,3.4,3.4,0,0,0,2.59-1.12,3.91,3.91,0,0,0,1-2.77V62Z"/><path d="M707.9,68.44a3.77,3.77,0,0,1-1.88.41c-2.23,0-3.34-1.26-3.34-3.76v-7.8h-2.25V55.61h2.25V52.42l1.94-.63v3.82h3.28v1.68h-3.28v7.44a3,3,0,0,0,.45,1.89,1.76,1.76,0,0,0,1.49.56,2.07,2.07,0,0,0,1.34-.43Z"/><path d="M720.85,62.57h-9.19A5,5,0,0,0,712.85,66a4,4,0,0,0,3.08,1.2,6.35,6.35,0,0,0,4-1.47v1.88a7.37,7.37,0,0,1-4.5,1.26,5.41,5.41,0,0,1-4.27-1.77,7.29,7.29,0,0,1-1.56-5,7.15,7.15,0,0,1,1.69-4.89,5.43,5.43,0,0,1,4.24-1.93,4.85,4.85,0,0,1,3.89,1.64,6.86,6.86,0,0,1,1.39,4.57Zm-2-1.73A4.3,4.3,0,0,0,718,58a3,3,0,0,0-2.43-1A3.52,3.52,0,0,0,713,58a4.81,4.81,0,0,0-1.35,2.83Z"/><path d="M740.21,55.61l-3.89,13h-2l-2.72-9.39a5.72,5.72,0,0,1-.19-1.17h0a5.51,5.51,0,0,1-.27,1.15l-2.94,9.41h-2l-3.93-13h2L727,65.44a6.27,6.27,0,0,1,.17,1.15h.1a6.42,6.42,0,0,1,.23-1.18l3-9.8h1.78l2.73,9.85a9.37,9.37,0,0,1,.19,1.15h.1a4.78,4.78,0,0,1,.21-1.15l2.7-9.85Z"/><path d="M742.94,56.53a7.91,7.91,0,0,1,4.37-1.23q4.52,0,4.51,4.79v8.48h-2v-2h-.07a4.73,4.73,0,0,1-7,1.32,3.56,3.56,0,0,1-1.1-2.72q0-3.6,4.26-4.2l3.92-.57q0-3.37-2.7-3.37a6.28,6.28,0,0,0-4.22,1.6Zm3.74,5.88a4.38,4.38,0,0,0-2.31.81,2.23,2.23,0,0,0-.65,1.78,2,2,0,0,0,.69,1.59,2.73,2.73,0,0,0,1.83.61,3.38,3.38,0,0,0,2.58-1.12,3.92,3.92,0,0,0,1-2.77V62Z"/><path d="M766,55.61l-6,15.1q-1.58,4-4.41,4a5,5,0,0,1-1.28-.15V72.74a4,4,0,0,0,1.2.21,2.57,2.57,0,0,0,2.37-1.9l1-2.51-5-12.93H756l3.57,10.11c0,.14.14.45.27.92h.07c0-.16.12-.46.25-.9l3.76-10.13Z"/><path d="M68,12.29c-.36.19-.41.58-.58.89q-16,29.24-31.92,58.47c-.37.68-.67,1.41-1.51,1.66h-.34a6,6,0,0,1-1.17-1.62L5.12,21.6.37,12.9C-.39,11.5,0,10.8,1.6,10.8l44.37,0c6.8,0,13.6,0,20.4,0a1.51,1.51,0,0,1,1.63,1Zm-34-.81H1.77c-1.26,0-1.32.1-.7,1.23,1.46,2.68,2.94,5.35,4.4,8L33.36,71.81c.15.27.21.7.66.67s.45-.4.59-.66Q50.75,42.27,66.86,12.71c.59-1.08.5-1.23-.74-1.23Z" fill="#262339"/><path d="M34,11.48H66.12c1.24,0,1.33.15.74,1.23Q50.74,42.28,34.61,71.82c-.14.26-.21.63-.59.66s-.51-.4-.66-.67L5.47,20.75c-1.46-2.68-2.94-5.35-4.4-8-.62-1.13-.56-1.23.7-1.23H34Zm27.89,7.79c.14,0,.16-.05.18-.15l3.22-5.85c.47-.87.47-.87-.48-.87l-9.59,0a25.41,25.41,0,0,0-3.49,0H44.45a11.8,11.8,0,0,0-2.59,0l-4.5,0-10.88,0a21,21,0,0,0-3,0H17a38.3,38.3,0,0,0-4.15,0c-.23,0-.45,0-.68,0l-9.24,0c-.22,0-.79-.17-.48.41C3.56,15,4.76,17.06,5.93,19.18l.81,1.57,5.16,9.43.63,1.14,2.65,4.85.38.74c0,.06,0,.11.07.16L32.69,68.3c.4.73.81,1.45,1.21,2.19a1.43,1.43,0,0,0,.53-.72l14.74-27c1.08-2,2.14-4,3.21-6l.4-.68,2.65-4.91.6-1c1.44-2.63,2.89-5.27,4.32-7.91a3.7,3.7,0,0,0,.71-1.48h0c.16.07.14-.06.17-.15a3.31,3.31,0,0,0,.69-1.39Z" fill="#fefefe"/><path d="M61.06,20.81a3.7,3.7,0,0,1-.71,1.48c-1.43,2.64-2.88,5.28-4.32,7.91l-10.43.71v.32h9.82l-2.65,4.91a40.7,40.7,0,0,1-4.36-.92,3.05,3.05,0,0,0-.85-2,3.06,3.06,0,0,0-.67,1.71H45.82l0,.15,1.12.39a2,2,0,0,0,.31,1.05c.5.76.21,1.48,0,2.35a4.23,4.23,0,0,0-1.76-2.72,2.65,2.65,0,0,0,1.18,3.4c.26.2.41.37.28.7a9.4,9.4,0,0,1-.79,1.8c-.35-2-.44-2.2-1.16-3a2.76,2.76,0,0,0,.31,3.56c.13.16.43.28.26.55A5.68,5.68,0,0,1,44,44.93a4.05,4.05,0,0,0-.27-3.24c-.85.93-1.33,2-.75,3.11a1.11,1.11,0,0,1-.47,1.7c-.28.18-.55.39-.82.59l-.12-.16A4.07,4.07,0,0,0,42,44.06a2.78,2.78,0,0,0-1.47,3.23c0,.24.23.49-.12.65a6,6,0,0,1-2,.76,4.62,4.62,0,0,0,1.26-2.9,2.64,2.64,0,0,0-2.23,2.71c0,.26.12.61-.32.66s-.94.31-1.47.11a2.36,2.36,0,0,0,.4-.34c.23-.34.63-.67.2-1.11S35.35,47.7,35,48s-.5.71-.85,1.18V47.48c.45-.23.92-.42,1.35-.69a4.18,4.18,0,0,0,2-3.06,4.06,4.06,0,0,0-2.17.91,8.42,8.42,0,0,0-1.43,1.85A4.31,4.31,0,0,0,31,43.84c-.18,0-.4-.21-.54,0s0,.31.08.47a4.76,4.76,0,0,0,3.27,3.16v1.76a3.87,3.87,0,0,0-1.13-1.44.68.68,0,0,0-.92,0c-.29.27-.19.56,0,.83s.33.44.51.68c-1.45,0-1.48,0-1.74-1.32a2.62,2.62,0,0,0-2.17-2.17c-.1,1.07.55,1.89,1.1,2.83a4.88,4.88,0,0,1-1.37-.46c-.6-.21-.8-.49-.64-1.19A2.54,2.54,0,0,0,26,44.09a3.93,3.93,0,0,0,.25,2.64l-.17.22-.76-.55c-.54-.38-.84-.71-.41-1.48a2.45,2.45,0,0,0-.78-3.14,4.79,4.79,0,0,0-.35,3.1,18.72,18.72,0,0,1-1.16-1.48c-.19-.25-.26-.44,0-.72,1.14-1.09,1-2.34.4-3.7a3.06,3.06,0,0,0-.86,1.39c-.14.52-.21,1.06-.34,1.77-.28-.63-.47-1.12-.7-1.6s-.17-.81.36-1.15a2.56,2.56,0,0,0,1-3.25,4.44,4.44,0,0,0-1.77,2.4c-.68-1.17.13-2.1.3-3.1.33-.21.81-.12,1.11-.52H21.08a2.6,2.6,0,0,0-.77-1.74,3.18,3.18,0,0,0-.76,2l-4.37.94-2.65-4.85c3.26-.3,6.54,0,9.81-.17v-.23L11.9,30.18,6.74,20.75a1.62,1.62,0,0,1,.88.26l14.61,6.14c.26.1.51.33.86.19-.2-.34-.52-.4-.79-.53-2.61-1.23-5.22-2.46-7.83-3.67-2.84-1.33-5.69-2.64-8.54-4C4.76,17.06,3.56,15,2.41,12.83c-.31-.58.26-.41.48-.41l9.24,0c.23,0,.45,0,.68,0a2.14,2.14,0,0,1,1.66.81q4.9,5,9.87,10a1.09,1.09,0,0,0,.92.52L14.92,12.48l2-.11h6.55c.69-.06,1,.31,1.29.92,1.27,2.82,2.58,5.6,3.89,8.39.12.25.15.59.71.75l-3.9-9.94,1-.13,10.88,0,4.5,0c.58,0,.49.33.33.73-1.12,2.81-2.21,5.62-3.31,8.43-.09.24-.3.47-.14.82.34-.14.39-.47.51-.73,1.3-2.75,2.62-5.5,3.87-8.28.28-.63.6-1,1.33-1h7.27c.38.16.82-.07,1.23.18l-9.84,10.7c.5.06.68-.25.9-.48,3.1-3.14,6.2-6.28,9.26-9.44a2.41,2.41,0,0,1,1.94-1l9.59,0c1,0,1,0,.48.87l-3.22,5.85-.18.15h0a1.52,1.52,0,0,0-.32.06L45.29,27c-.15.07-.41.08-.36.38.27.08.49-.1.71-.19,4.07-1.71,8.13-3.44,12.2-5.13A15.5,15.5,0,0,1,61.06,20.81ZM34,23.3v0c-2.21,0-4.42,0-6.63,0a.9.9,0,0,0-.92.55,20.24,20.24,0,0,0-1.18,18c.2.5.36.57.83.32a16.38,16.38,0,0,1,15.78,0c.53.28.68.14.87-.36a20.48,20.48,0,0,0-1.15-17.91,1,1,0,0,0-1-.59C38.4,23.31,36.19,23.3,34,23.3Zm0-9.83H31.56c-.21,0-.41-.05-.5.29-.33,1.17.72,2,.62,3.14A.46.46,0,0,0,32,17c1-.2.9.4.86,1a10.76,10.76,0,0,0,0,1.27c0,.35-.07.57-.46.5-.71-.12-.8.26-.75.83,0,.23.16.57-.31.64a.85.85,0,0,0-.43,1.2c.17.2.5.21.51,0,0-.67.46-.5.82-.5,1.14,0,2.27,0,3.4,0,.39,0,1-.24,1,.54,0,.18.29.18.42.08.3-.22.12-.57.15-.86s0-.44-.28-.41c-.72.08-.57-.42-.59-.82s.11-.69-.33-.63c-1,.14-.91-.43-.87-1.06,0-.43,0-.85,0-1.28,0-.23,0-.52.32-.46.91.17.94-.38.89-1,0-.11,0-.3.07-.32,1-.35.38-1.17.52-1.77.09-.38-.13-.47-.48-.46C35.61,13.48,34.81,13.47,34,13.47Zm9.16,10.16c0-.14-.06-.24-.17-.17a.36.36,0,0,0-.13.17c0,.06,0,.17.13.1A1.94,1.94,0,0,0,43.18,23.63Z" fill="#262339"/><path d="M52.38,36.82c-1.07,2-2.13,4-3.21,6l-14.74,27a1.43,1.43,0,0,1-.53.72c-.4-.74-.81-1.46-1.21-2.19L15.63,37.07s0-.1-.07-.16a13.69,13.69,0,0,1,4.07-1c.12.72.63,1.38.33,2.27a5.27,5.27,0,0,0-1.48-1.09c-.19-.08-.41-.32-.59-.12s-.05.38,0,.56A2.72,2.72,0,0,0,19.6,39.6,1.94,1.94,0,0,1,21,41.72a4.49,4.49,0,0,0-2.41-.81c.39,1.18,1,2.13,2.29,2.14s1.59.8,2.15,1.72a6.39,6.39,0,0,0-2.59-.15,2.62,2.62,0,0,0,3.09,1.52c.28,0,.56-.31.87,0s.83.73,1.36,1.2c-1,0-1.89-.09-2.65.54a2.87,2.87,0,0,0,3.24.66,2.06,2.06,0,0,1,2.43.59,3.9,3.9,0,0,0-2.23,1.05,2.59,2.59,0,0,0,3.4-.23c.23-.18.39-.48.78-.41.9.15,1.8.27,2.87.42a11.4,11.4,0,0,0-1.74,1.12,6.82,6.82,0,0,0-1.21,1.46c.41.12.52-.22.68-.41a7.81,7.81,0,0,1,2-1.61c.37-.22.55-.23.54.29,0,1.16,0,2.32,0,3.48,0,.33-.07.51-.43.57a2.43,2.43,0,0,0-1.93,1.71c-.14.4-.37.48-.76.47-.7,0-1.41,0-2.12,0-.24,0-.46,0-.46.34s.28.28.48.29a8.63,8.63,0,0,0,1.61,0c1-.19,1.29.36,1.51,1.12.11.39.14.66-.42.6s-.91,0-1.36,0c-.22,0-.37,0-.36.33s.15.33.38.33c.48,0,1,0,1.44,0s.5.09.45.48a13,13,0,0,1-.46,1.84,2.77,2.77,0,0,0,1-1.71c.08-.37.12-.68.6-.59.25,0,.61-.19.74.19s-.05.65-.41.89a1,1,0,0,0-.15,1.56,1.1,1.1,0,0,0,1.53,0,1,1,0,0,0-.15-1.56c-.34-.24-.53-.48-.42-.88s.46-.18.71-.22c.52-.1.56.29.65.66a3.27,3.27,0,0,0,1,1.7c.11-.28-.07-.44-.13-.62-.6-1.71-.59-1.73,1.21-1.75h.09c.27-.05.7.17.69-.36s-.42-.28-.65-.29c-.52,0-1,0-1.58,0,.33-1.69.33-1.69,1.91-1.69h1.28c.2,0,.49.11.48-.28s-.25-.31-.48-.32c-.71,0-1.41,0-2.12,0-.34,0-.55,0-.69-.44a2.39,2.39,0,0,0-1.86-1.67c-.19,0-.48,0-.48-.37,0-1.39,0-2.78,0-4.26A7.09,7.09,0,0,1,36.6,52l.22.32c.11-.18.14-.36-.07-.49a6.33,6.33,0,0,0-2.38-2,14.85,14.85,0,0,0,2.29-.27,1.45,1.45,0,0,1,1.5.41,2.53,2.53,0,0,0,3.27.1A5.44,5.44,0,0,0,39,49c1-.46,1.72-1.07,2.84-.42a2.3,2.3,0,0,0,2.91-.79,4.76,4.76,0,0,0-2.52-.53c.8-.76,1.39-1.45,2.65-1.08a2.31,2.31,0,0,0,2.55-1.58,5.3,5.3,0,0,0-2.69.28c.64-.91,1-1.79,2.28-1.82a2.27,2.27,0,0,0,2.17-2.16,4.69,4.69,0,0,0-2.21.74l-.16-.17a2.33,2.33,0,0,1,1.69-2,2.34,2.34,0,0,0,1.5-2.56,4,4,0,0,0-2.27,1.58,9.42,9.42,0,0,1,.55-2.57A26.65,26.65,0,0,1,52.38,36.82Z" fill="#262339"/><path d="M5.93,19.18c2.85,1.32,5.7,2.63,8.54,4,2.61,1.21,5.22,2.44,7.83,3.67.27.13.59.19.79.53-.35.14-.6-.09-.86-.19L7.62,21a1.62,1.62,0,0,0-.88-.26Z" fill="#dd9036"/><path d="M61.06,20.81A15.5,15.5,0,0,0,57.84,22c-4.07,1.69-8.13,3.42-12.2,5.13-.22.09-.44.27-.71.19,0-.3.21-.31.36-.38l16.29-7.65a1.52,1.52,0,0,1,.32-.06,3.31,3.31,0,0,1-.69,1.39c-.1,0-.17,0-.17.15Z" fill="#dd9036"/><path d="M17,12.37l-2,.11L25.26,23.74a1.09,1.09,0,0,1-.92-.52q-4.95-5-9.87-10a2.14,2.14,0,0,0-1.66-.81A38.3,38.3,0,0,1,17,12.37Z" fill="#dd9036"/><path d="M55.21,12.37a2.41,2.41,0,0,0-1.94,1c-3.06,3.16-6.16,6.3-9.26,9.44-.22.23-.4.54-.9.48L53,12.56c-.41-.25-.85,0-1.23-.18A25.41,25.41,0,0,1,55.21,12.37Z" fill="#dd9036"/><path d="M44.45,12.39c-.73-.07-1.05.33-1.33,1-1.25,2.78-2.57,5.53-3.87,8.28-.12.26-.17.59-.51.73-.16-.35,0-.58.14-.82,1.1-2.81,2.19-5.62,3.31-8.43.16-.4.25-.69-.33-.73A11.8,11.8,0,0,1,44.45,12.39Z" fill="#dd9036"/><path d="M26.48,12.36l-1,.13,3.9,9.94c-.56-.16-.59-.5-.71-.75-1.31-2.79-2.62-5.57-3.89-8.39-.28-.61-.6-1-1.29-.92A21,21,0,0,1,26.48,12.36Z" fill="#dd9036"/><path d="M11.9,30.18l10.44.74v.23c-3.27.19-6.55-.13-9.81.17Z" fill="#dd9036"/><path d="M55.43,31.23H45.61v-.32L56,30.2Z" fill="#dd9036"/><path d="M19.63,35.93a13.69,13.69,0,0,0-4.07,1c-.12-.25-.25-.5-.38-.74l4.37-.94a3.39,3.39,0,0,0,1.53-.31h1.07c-.3.4-.78.31-1.11.52C20.55,35.53,20,35.46,19.63,35.93Z" fill="#dd9036"/><path d="M52.38,36.82a26.65,26.65,0,0,0-4.05-.91,2.49,2.49,0,0,0-1.42-.47l-1.12-.39,0-.15H46.9a2.67,2.67,0,0,0,1.52.32,40.7,40.7,0,0,0,4.36.92Z" fill="#dd9036"/><path d="M61,20.81c0-.12.07-.15.17-.15S61.2,20.88,61,20.81Z" fill="#262339"/><path d="M61.88,19.27l.18-.15C62,19.22,62,19.31,61.88,19.27Z" fill="#dd9036"/><path d="M46.91,35.44a2.49,2.49,0,0,1,1.42.47,9.42,9.42,0,0,0-.55,2.57,4,4,0,0,1,2.27-1.58,2.34,2.34,0,0,1-1.5,2.56,2.33,2.33,0,0,0-1.69,2c-.11.06-.16.19-.09.27s.17,0,.25-.1a4.69,4.69,0,0,1,2.21-.74,2.27,2.27,0,0,1-2.17,2.16c-1.29,0-1.64.91-2.28,1.82a5.3,5.3,0,0,1,2.69-.28,2.31,2.31,0,0,1-2.55,1.58c-1.26-.37-1.85.32-2.65,1.08a4.76,4.76,0,0,1,2.52.53,2.3,2.3,0,0,1-2.91.79c-1.12-.65-1.83,0-2.84.42a5.44,5.44,0,0,1,2.39,1.14,2.53,2.53,0,0,1-3.27-.1,1.45,1.45,0,0,0-1.5-.41,14.85,14.85,0,0,1-2.29.27,6.33,6.33,0,0,1,2.38,2L36.6,52a7.09,7.09,0,0,0-2.45-1.75c0,1.48,0,2.87,0,4.26,0,.33.29.33.48.37a2.39,2.39,0,0,1,1.86,1.67c.14.4.35.44.69.44.71,0,1.41,0,2.12,0,.23,0,.48,0,.48.32s-.28.27-.48.28H38c-1.58,0-1.58,0-1.91,1.69.54,0,1.06,0,1.58,0,.23,0,.63-.19.65.29s-.42.31-.69.36h-.09c-1.8,0-1.81,0-1.21,1.75.06.18.24.34.13.62a3.27,3.27,0,0,1-1-1.7c-.09-.37-.13-.76-.65-.66-.25,0-.6-.2-.71.22s.08.64.42.88a1,1,0,0,1,.15,1.56,1.1,1.1,0,0,1-1.53,0,1,1,0,0,1,.15-1.56c.36-.24.54-.5.41-.89s-.49-.15-.74-.19c-.48-.09-.52.22-.6.59a2.77,2.77,0,0,1-1,1.71,13,13,0,0,0,.46-1.84c.05-.39-.08-.49-.45-.48s-1,0-1.44,0c-.23,0-.37-.06-.38-.33s.14-.33.36-.33c.45,0,.91,0,1.36,0s.53-.21.42-.6c-.22-.76-.53-1.31-1.51-1.12a8.63,8.63,0,0,1-1.61,0c-.2,0-.48.08-.48-.29s.22-.34.46-.34c.71,0,1.42,0,2.12,0,.39,0,.62-.07.76-.47a2.43,2.43,0,0,1,1.93-1.71c.36-.06.43-.24.43-.57,0-1.16,0-2.32,0-3.48,0-.52-.17-.51-.54-.29a7.81,7.81,0,0,0-2,1.61c-.16.19-.27.53-.68.41a6.82,6.82,0,0,1,1.21-1.46A11.4,11.4,0,0,1,33.59,50c-1.07-.15-2-.27-2.87-.42-.39-.07-.55.23-.78.41a2.59,2.59,0,0,1-3.4.23,3.9,3.9,0,0,1,2.23-1.05,2.06,2.06,0,0,0-2.43-.59,2.87,2.87,0,0,1-3.24-.66c.76-.63,1.65-.51,2.65-.54-.53-.47-1-.82-1.36-1.2s-.59,0-.87,0a2.62,2.62,0,0,1-3.09-1.52,6.39,6.39,0,0,1,2.59.15c-.56-.92-.93-1.71-2.15-1.72s-1.9-1-2.29-2.14a4.49,4.49,0,0,1,2.41.81A1.94,1.94,0,0,0,19.6,39.6a2.72,2.72,0,0,1-1.72-2.05c0-.18-.09-.46,0-.56s.4,0,.59.12A5.27,5.27,0,0,1,20,38.2c.3-.89-.21-1.55-.33-2.27.36-.47.92-.4,1.41-.49-.17,1-1,1.93-.3,3.1a4.44,4.44,0,0,1,1.77-2.4,2.56,2.56,0,0,1-1,3.25c-.53.34-.6.65-.36,1.15s.42,1,.7,1.6c.13-.71.2-1.25.34-1.77A3.06,3.06,0,0,1,23,39c.62,1.36.74,2.61-.4,3.7-.29.28-.22.47,0,.72a18.72,18.72,0,0,0,1.16,1.48,4.79,4.79,0,0,1,.35-3.1,2.45,2.45,0,0,1,.78,3.14c-.43.77-.13,1.1.41,1.48l.76.55c.06.07.14.2.23.11s.06-.24-.06-.33A3.93,3.93,0,0,1,26,44.09,2.54,2.54,0,0,1,27.47,47c-.16.7,0,1,.64,1.19a4.88,4.88,0,0,0,1.37.46c-.55-.94-1.2-1.76-1.1-2.83A2.62,2.62,0,0,1,30.55,48c.26,1.29.29,1.32,1.74,1.32-.18-.24-.36-.45-.51-.68s-.29-.56,0-.83a.68.68,0,0,1,.92,0,3.87,3.87,0,0,1,1.13,1.44V47.47h.3v1.68c.35-.47.49-.91.85-1.18s.75-.59,1.19-.15,0,.77-.2,1.11a2.36,2.36,0,0,1-.4.34c.53.2,1-.06,1.47-.11s.31-.4.32-.66a2.64,2.64,0,0,1,2.23-2.71,4.62,4.62,0,0,1-1.26,2.9,6,6,0,0,0,2-.76c.35-.16.16-.41.12-.65A2.78,2.78,0,0,1,42,44.06a4.07,4.07,0,0,1-.34,2.87l-.09.15h.21c.27-.2.54-.41.82-.59A1.11,1.11,0,0,0,43,44.8c-.58-1.13-.1-2.18.75-3.11A4.05,4.05,0,0,1,44,44.93a5.68,5.68,0,0,0,1.48-1.78c.17-.27-.13-.39-.26-.55A2.76,2.76,0,0,1,45,39c.72.78.81,1,1.16,3a9.4,9.4,0,0,0,.79-1.8c.13-.33,0-.5-.28-.7a2.65,2.65,0,0,1-1.18-3.4,4.23,4.23,0,0,1,1.76,2.72c.23-.87.52-1.59,0-2.35A2,2,0,0,1,46.91,35.44ZM32,57.67c.18.54.35.95.46,1.38s.55.26.84.3.42.07.51-.26c.28-1,0-1.43-1-1.42Zm4,0a6,6,0,0,1-.87,0c-.79-.13-1.09.2-.93,1,.06.27-.27.75.35.75.46,0,1,.15,1-.6A5.34,5.34,0,0,1,36,57.67ZM32,57c2.31.1,1.71.11,1.81-1,0-.53-.22-.56-.61-.42A1.82,1.82,0,0,0,32,57Zm3.14,0c.14-.12.69.4.73-.25s-.9-1.31-1.43-1.26-.22.47-.27.72C34.05,56.84,34.27,57.21,35.14,57Zm-.41-7.75A1.5,1.5,0,0,0,36,48.27a.2.2,0,0,0-.23-.27,1.38,1.38,0,0,0-1.07,1.07S34.69,49.11,34.73,49.21Zm-1.39,0a2,2,0,0,0-.85-1.14.34.34,0,0,0-.45,0c-.15.16-.05.31.05.45A1.52,1.52,0,0,0,33.34,49.2Z" fill="#fefefe"/><path d="M34,23.3c2.21,0,4.42,0,6.62,0a1,1,0,0,1,1,.59,20.48,20.48,0,0,1,1.15,17.91c-.19.5-.34.64-.87.36a16.38,16.38,0,0,0-15.78,0c-.47.25-.63.18-.83-.32a20.24,20.24,0,0,1,1.18-18,.9.9,0,0,1,.92-.55c2.21,0,4.42,0,6.63,0Zm0,.82v0c-2.09,0-4.19,0-6.28,0a.73.73,0,0,0-.78.46,20.73,20.73,0,0,0-2.42,9.77,20.87,20.87,0,0,0,.81,5.06c.15.58.36.61.86.39a18.38,18.38,0,0,1,15.61,0c.56.25.73.16.89-.44a20.17,20.17,0,0,0-1.58-14.66.93.93,0,0,0-1-.58C38.06,24.13,36,24.12,34,24.12ZM26.21,40.91a18.71,18.71,0,0,1,15.87.25C39.21,38.44,29.74,38.3,26.21,40.91Z" fill="#fefefe"/><path d="M34,13.47c.79,0,1.59,0,2.38,0,.35,0,.57.08.48.46-.14.6.48,1.42-.52,1.77-.06,0-.08.21-.07.32.05.65,0,1.2-.89,1-.34-.06-.32.23-.32.46,0,.43,0,.85,0,1.28,0,.63-.08,1.2.87,1.06.44-.06.31.37.33.63s-.13.9.59.82c.28,0,.31.2.28.41s.15.64-.15.86c-.13.1-.42.1-.42-.08,0-.78-.58-.53-1-.54-1.13,0-2.26,0-3.4,0-.36,0-.8-.17-.82.5,0,.26-.34.25-.51,0a.85.85,0,0,1,.43-1.2c.47-.07.33-.41.31-.64-.05-.57,0-.95.75-.83.39.07.48-.15.46-.5a10.76,10.76,0,0,1,0-1.27c0-.63.09-1.23-.86-1a.46.46,0,0,1-.29-.12c.1-1.1-.95-2-.62-3.14.09-.34.29-.28.5-.29Zm0,1.44h1.78c.29,0,.47,0,.47-.4s-.2-.4-.48-.4H32.13c-.27,0-.49,0-.49.4s.23.4.5.4Zm0,1.48c.45,0,.9,0,1.35,0s.37-.14.37-.42-.08-.42-.38-.41c-.88,0-1.75,0-2.63,0-.36,0-.39.2-.4.48s.16.37.42.36C33.12,16.38,33.54,16.39,34,16.39Zm0,4.89c.39,0,.79,0,1.19,0s.52-.05.51-.46-.21-.38-.48-.38H32.74c-.29,0-.48,0-.47.4s.1.46.44.44S33.56,21.28,34,21.28Zm.5-2.84c0-.28,0-.56,0-.84S34.41,17,34,17s-.51.18-.5.55q0,.89,0,1.77c0,.33.06.53.46.5s.63,0,.58-.47C34.47,19.06,34.49,18.75,34.49,18.44Z" fill="#fefefe"/><path d="M34.13,47.48h-.3a4.76,4.76,0,0,1-3.27-3.16c0-.16-.14-.38-.08-.47s.36,0,.54,0a4.31,4.31,0,0,1,2.89,2.65,8.42,8.42,0,0,1,1.43-1.85,4.06,4.06,0,0,1,2.17-.91,4.18,4.18,0,0,1-2,3.06C35.05,47.06,34.58,47.25,34.13,47.48Z" fill="#dd9036"/><path d="M21.08,34.92a3.39,3.39,0,0,1-1.53.31,3.18,3.18,0,0,1,.76-2A2.6,2.6,0,0,1,21.08,34.92Z" fill="#fefefe"/><path d="M48.42,35.22a2.67,2.67,0,0,1-1.52-.32,3.06,3.06,0,0,1,.67-1.71A3.05,3.05,0,0,1,48.42,35.22Z" fill="#fefefe"/><path d="M43.18,23.63a1.94,1.94,0,0,1-.17.1c-.13.07-.14,0-.13-.1a.36.36,0,0,1,.13-.17C43.12,23.39,43.13,23.49,43.18,23.63Z" fill="#dd9036"/><path d="M36.75,51.86c.21.13.18.31.07.49L36.6,52Z" fill="#fefefe"/><path d="M32,57.67h.76c1,0,1.33.41,1,1.42-.09.33-.31.3-.51.26s-.7.24-.84-.3S32.17,58.21,32,57.67Z" fill="#262339"/><path d="M36,57.67a5.34,5.34,0,0,0-.4,1.09c-.07.75-.59.61-1,.6-.62,0-.29-.48-.35-.75-.16-.75.14-1.08.93-1A6,6,0,0,0,36,57.67Z" fill="#262339"/><path d="M32,57a1.82,1.82,0,0,1,1.2-1.47c.39-.14.66-.11.61.42C33.71,57.09,34.31,57.08,32,57Z" fill="#262339"/><path d="M35.14,57c-.87.25-1.09-.12-1-.79,0-.25-.24-.67.27-.72s1.46.74,1.43,1.26S35.28,56.84,35.14,57Z" fill="#262339"/><path d="M34.73,49.21c0-.1-.06-.13,0-.14A1.38,1.38,0,0,1,35.75,48a.2.2,0,0,1,.23.27A1.5,1.5,0,0,1,34.73,49.21Z" fill="#262339"/><path d="M33.34,49.2a1.52,1.52,0,0,1-1.25-.68c-.1-.14-.2-.29-.05-.45a.34.34,0,0,1,.45,0A2,2,0,0,1,33.34,49.2Z" fill="#262339"/><path d="M47,41.65c-.08.05-.14.22-.25.1s0-.21.09-.27Z" fill="#262339"/><path d="M26.24,46.73c.12.09.16.23.06.33s-.17,0-.23-.11Z" fill="#262339"/><path d="M41.73,47.09h-.21l.09-.15Z" fill="#262339"/><path d="M34,24.12c2,0,4.08,0,6.12,0a.93.93,0,0,1,1,.58,20.17,20.17,0,0,1,1.58,14.66c-.16.6-.33.69-.89.44a18.38,18.38,0,0,0-15.61,0c-.5.22-.71.19-.86-.39a20.87,20.87,0,0,1-.81-5.06,20.73,20.73,0,0,1,2.42-9.77.73.73,0,0,1,.78-.46c2.09,0,4.19,0,6.28,0Zm-5.85,3.75L28,27.7a4.57,4.57,0,0,1,.74-1.56c.14.53-.28.75-.09,1.09a4.54,4.54,0,0,0,1.53-1.52H28.58c-.23,0-.43,0-.56.25a11.52,11.52,0,0,0-1,2.75,5,5,0,0,0,4.62-4.21c-1.19,0-2.38,0-3.56,0a.89.89,0,0,0-1,.6,20.28,20.28,0,0,0-2.27,9.59,20.57,20.57,0,0,0,.75,4.4c.08.33.19.46.58.3a25.16,25.16,0,0,1,6.46-1.73,8.57,8.57,0,0,1-6.36-5.56,14.1,14.1,0,0,0,0,3.89c.35,2.19-.21,2.08,2.14,1.25,0,0,0,0,.09-.12-.47-.2-.62-1.27-1.46-.35a4.18,4.18,0,0,1-.13-1.46l2.41,2c-.9.29-1.71.52-2.49.82-.44.17-.53,0-.61-.36a18.37,18.37,0,0,1,1.5-12c.13-.27.22-.5.59-.49.81,0,1.62,0,2.51,0A4.49,4.49,0,0,1,28.13,27.87Zm10,2.86A1.64,1.64,0,0,0,36.5,29c-.48,0-.73-.07-.89-.61a1.58,1.58,0,0,0-1.71-1.12,1.5,1.5,0,0,0-1.57,1.17c-.12.48-.32.56-.75.53A1.51,1.51,0,0,0,30,30.05a1.66,1.66,0,0,0,.56,2.05c.39.26.4.46.28.88a1.68,1.68,0,0,0,.67,2,1.56,1.56,0,0,0,2,0c.39-.31.62-.17,1,0a1.75,1.75,0,0,0,2.41-.45c.53-.68,0-1.49.19-2S38.17,31.54,38.11,30.73Zm-2.78,6.82c.06.1.09.18.12.18a19.6,19.6,0,0,1,6.37,1.66c.43.19.45,0,.53-.36a19.18,19.18,0,0,0-1.53-14c-.12-.23-.18-.53-.57-.52-1.32,0-2.65,0-4,0C36.85,26.94,39,28.8,41,28.69a17.43,17.43,0,0,0-1-2.6c-.1-.23-.21-.38-.49-.38-.55,0-1.09,0-1.78,0a4.89,4.89,0,0,0,1.73,1.55,2.89,2.89,0,0,1-.17-.49c0-.12-.18-.24,0-.38a2.08,2.08,0,0,1,.7,1.51,4,4,0,0,1-2.69-2.57c.75,0,1.48,0,2.21,0a.77.77,0,0,1,.82.54,18.06,18.06,0,0,1,1.64,11c-.22,1.42-.25,1.41-1.57,1l-1.7-.53,2.53-2.11L41,36.88c-.51-.72-.63-.68-1.46.33,1.86.76,1.86.76,2.15-1.13,0-.11.1-.21.11-.32a15,15,0,0,0-.1-3.66A8.34,8.34,0,0,1,35.33,37.55Zm-.76-11.7a.57.57,0,0,0-.59-.6.55.55,0,0,0-.59.59.53.53,0,0,0,.59.57A.55.55,0,0,0,34.57,25.85ZM40.8,30.7c0-.33-.21-.57-.59-.58a.55.55,0,0,0-.6.56.56.56,0,0,0,.58.6A.58.58,0,0,0,40.8,30.7Zm-13.07-.59a.52.52,0,0,0-.56.58.55.55,0,0,0,.57.59.59.59,0,1,0,0-1.17ZM34,36.94a.55.55,0,0,0,.59-.57.53.53,0,0,0-.55-.6.52.52,0,0,0-.58.56A.55.55,0,0,0,34,36.94Z" fill="#262339"/><path d="M26.21,40.91c3.53-2.61,13-2.47,15.87.25A18.71,18.71,0,0,0,26.21,40.91Z" fill="#262339"/><path d="M34,14.91H32.14c-.27,0-.49,0-.5-.4s.22-.4.49-.4h3.64c.28,0,.49,0,.48.4s-.18.41-.47.4Z" fill="#262339"/><path d="M34,16.39c-.43,0-.85,0-1.27,0-.26,0-.44,0-.42-.36s0-.48.4-.48c.88,0,1.75,0,2.63,0,.3,0,.37.14.38.41s-.06.43-.37.42S34.42,16.39,34,16.39Z" fill="#262339"/><path d="M34,21.28c-.43,0-.86,0-1.28,0s-.43-.12-.44-.44.18-.41.47-.4h2.47c.27,0,.48,0,.48.38s-.18.48-.51.46S34.38,21.28,34,21.28Z" fill="#262339"/><path d="M34.49,18.44c0,.31,0,.62,0,.92,0,.48-.26.45-.58.47s-.47-.17-.46-.5q0-.88,0-1.77c0-.37.06-.55.5-.55s.59.17.54.59S34.49,18.16,34.49,18.44Z" fill="#262339"/><path d="M38.11,30.73c.06.81-.81,1.15-1,1.74s.34,1.35-.19,2a1.75,1.75,0,0,1-2.41.45c-.34-.21-.57-.35-1,0a1.56,1.56,0,0,1-2,0,1.68,1.68,0,0,1-.67-2c.12-.42.11-.62-.28-.88A1.66,1.66,0,0,1,30,30.05a1.51,1.51,0,0,1,1.61-1.13c.43,0,.63-.05.75-.53a1.5,1.5,0,0,1,1.57-1.17,1.58,1.58,0,0,1,1.71,1.12c.16.54.41.6.89.61A1.64,1.64,0,0,1,38.11,30.73Zm-3.77-1.1-.05-.07h0l.11.06c0,.14,0,.28.15.35s0,.21.12.07L34.49,30Zm.57,1.1c-.07.81-.07.82-.71.38-.23-.17-.41-.08-.59.09s-.5.17-.59-.27c-.26.47-.1.86,0,1.41.06-.53,0-1.05.62-.58a.43.43,0,0,0,.61-.05c.31-.35.51,0,.78.14A1.67,1.67,0,0,0,34.91,30.73ZM33.27,32.6l0-.05s0,0,0,.05l0,0Zm.13.38,0-.06h0Zm1.37-2.64s-.05,0-.05.05l0,.05s0,0,0-.05A.09.09,0,0,0,34.77,30.34Z" fill="#dd9036"/><path d="M28.13,27.87a4.49,4.49,0,0,0,2.64-2.53c-.89,0-1.7,0-2.51,0-.37,0-.46.22-.59.49a18.37,18.37,0,0,0-1.5,12c.08.38.17.53.61.36.78-.3,1.59-.53,2.49-.82l-2.41-2A4.18,4.18,0,0,0,27,36.77c.84-.92,1,.15,1.46.35-.06.08-.07.12-.09.12-2.35.83-1.79.94-2.14-1.25a14.1,14.1,0,0,1,0-3.89,8.57,8.57,0,0,0,6.36,5.56,25.16,25.16,0,0,0-6.46,1.73c-.39.16-.5,0-.58-.3a20.57,20.57,0,0,1-.75-4.4,20.28,20.28,0,0,1,2.27-9.59.89.89,0,0,1,1-.6c1.18,0,2.37,0,3.56,0A5,5,0,0,1,27,28.72,11.52,11.52,0,0,1,28,26c.13-.27.33-.25.56-.25h1.58a4.54,4.54,0,0,1-1.53,1.52c-.19-.34.23-.56.09-1.09A4.57,4.57,0,0,0,28,27.7l-.06.19Z" fill="#fefefe"/><path d="M35.33,37.55a8.34,8.34,0,0,0,6.33-5.45,15,15,0,0,1,.1,3.66c0,.11-.09.21-.11.32C41.36,38,41.36,38,39.5,37.21c.83-1,1-1.05,1.46-.33l.23-1.64-2.53,2.11,1.7.53c1.32.44,1.35.45,1.57-1a18.06,18.06,0,0,0-1.64-11,.77.77,0,0,0-.82-.54c-.73,0-1.46,0-2.21,0A4,4,0,0,0,40,27.91a2.08,2.08,0,0,0-.7-1.51c-.15.14,0,.26,0,.38a2.89,2.89,0,0,0,.17.49,4.89,4.89,0,0,1-1.73-1.55c.69,0,1.23,0,1.78,0,.28,0,.39.15.49.38a17.43,17.43,0,0,1,1,2.6c-2,.11-4.14-1.75-4.73-4.17,1.34,0,2.67,0,4,0,.39,0,.45.29.57.52a19.18,19.18,0,0,1,1.53,14c-.08.31-.1.55-.53.36a19.6,19.6,0,0,0-6.37-1.66S35.39,37.65,35.33,37.55Z" fill="#fefefe"/><path d="M34.57,25.85a.55.55,0,0,1-.59.56.53.53,0,0,1-.59-.57.55.55,0,0,1,.59-.59A.57.57,0,0,1,34.57,25.85Z" fill="#fefefe"/><path d="M40.8,30.7a.58.58,0,0,1-.61.58.56.56,0,0,1-.58-.6.55.55,0,0,1,.6-.56C40.59,30.13,40.75,30.37,40.8,30.7Z" fill="#fefefe"/><path d="M27.73,30.11a.59.59,0,1,1,0,1.17.55.55,0,0,1-.57-.59A.52.52,0,0,1,27.73,30.11Z" fill="#fefefe"/><path d="M34,36.94a.55.55,0,0,1-.54-.61.52.52,0,0,1,.58-.56.53.53,0,0,1,.55.6A.55.55,0,0,1,34,36.94Z" fill="#fefefe"/><path d="M34.91,30.73a1.67,1.67,0,0,1,.17,1.12c-.27-.11-.47-.49-.78-.14a.43.43,0,0,1-.61.05c-.62-.47-.56,0-.62.58-.15-.55-.31-.94,0-1.41.09.44.28.55.59.27s.36-.26.59-.09C34.84,31.55,34.84,31.54,34.91,30.73Z" fill="#fefefe"/><path d="M34.5,30c-.14-.07-.15-.21-.15-.35v0l.15.35Z" fill="#fefefe"/><path d="M33.27,32.6l-.05,0,0,0s0,0,0-.05Z" fill="#fefefe"/><polygon points="33.4 32.98 33.38 32.91 33.43 32.92 33.4 32.98" fill="#fefefe"/><path d="M34.49,30l.13.05c-.13.14-.08,0-.12-.07Z" fill="#fefefe"/><path d="M34.35,29.61l-.11-.06h0l.05.07Z" fill="#fefefe"/><path d="M34.77,30.34a.09.09,0,0,1,0,.05s0,0,0,.05l0-.05S34.75,30.35,34.77,30.34Z" fill="#fefefe"/><path d="M28.13,27.87l-.21,0L28,27.7Z" fill="#262339"/><path d="M203.43,41.2a4.16,4.16,0,0,0-2.34.24,4.31,4.31,0,0,1-1.18.27c-.5,0-.65-.13-.62-.66,0-.75-.09-1-.84-1.18a5.08,5.08,0,0,1-3.27-3.09,3.22,3.22,0,0,1-.2-1.12c0-.89-.07-1.77-.1-2.66a1.56,1.56,0,0,0-.67-1.28,1.14,1.14,0,0,0-1.28-.13,12.39,12.39,0,0,0-1.13.76,3.2,3.2,0,0,1-.51.4,23.6,23.6,0,0,1-3.95,1.83,4.16,4.16,0,0,0-1.81,1,1.49,1.49,0,0,0-.46,1.43c.16,1,.35,2,.45,3a9.46,9.46,0,0,1,0,2.06A2.79,2.79,0,0,1,182.71,44a1.26,1.26,0,0,1-.94-.71,10.74,10.74,0,0,1-.43-1.36c-.14-.53-.23-1.07-.38-1.6a.92.92,0,0,0-.84-.77,1,1,0,0,0-1,.59c-.07.12-.11.27-.18.39a11.59,11.59,0,0,1-.85,1.4,4.21,4.21,0,0,0-.85,1.72,2.2,2.2,0,0,1-1.87,1.63,1.53,1.53,0,0,1-1.32-.74,4,4,0,0,1-.81-2.84,2.64,2.64,0,0,1,.17-.61c.21-.56.41-1.12.63-1.67a10.08,10.08,0,0,1,.49-1.11,1.56,1.56,0,0,0,.22-1.23,3.08,3.08,0,0,1,0-.86,2.9,2.9,0,0,0-1.06-2.41l-1.33-1.08a10.29,10.29,0,0,1-1-.77.67.67,0,0,1,.21-1.17,2.15,2.15,0,0,1,.59-.24c.88-.23,1.77-.41,2.65-.65a1.61,1.61,0,0,1,1.7.49,5.53,5.53,0,0,1,1.21,2,1.45,1.45,0,0,1-.33,1.59A4.76,4.76,0,0,0,176,36.72a3.69,3.69,0,0,1-.37.93.85.85,0,0,0,.06,1,1.06,1.06,0,0,0,1.14.43,1.82,1.82,0,0,0,.67-.39c.67-.62,1.34-1.23,2-1.89a9.72,9.72,0,0,0,1.24-1.57A3,3,0,0,0,181,34c.09-.67.1-1.34.15-2a3.08,3.08,0,0,0,0-.43c0-1-.15-1.92-.12-2.87a8.17,8.17,0,0,0-1.86-5.3,5.61,5.61,0,0,1-.49-.71c-.19-.36-.07-.59.33-.67a1.45,1.45,0,0,1,.36,0c.81.05,1.63.08,2.44.16a1.9,1.9,0,0,1,1.33.76l2.37,2.89a1.22,1.22,0,0,1,.19,1.34,5,5,0,0,1-.26.52,3.51,3.51,0,0,0-.4,1.94c0,.45,0,.9,0,1.35a2.2,2.2,0,0,0,.07.77.66.66,0,0,0,.93.51c.5-.15,1-.35,1.48-.55a7.36,7.36,0,0,1,.9-.43c2.14-.58,3.66-2.13,5.36-3.39a2.06,2.06,0,0,0,.77-2.18,10.49,10.49,0,0,0-.88-2.94,2,2,0,0,1,.81-2.55,1.64,1.64,0,0,1,2.27.73,10.7,10.7,0,0,1,1.24,2.73c.2,1,.93,1.26,1.86.82.48-.23,1-.44,1.44-.65a1.19,1.19,0,0,1,1.17.12,8.7,8.7,0,0,1,1.18.92.72.72,0,0,1,0,1.08,4.87,4.87,0,0,1-.52.37c-.48.36-.94.73-1.43,1.08s-.75.5-1.14.73c-.59.35-1.21.66-1.8,1a1.84,1.84,0,0,0-.77,1.18,4.76,4.76,0,0,0,.09,2.82c.26.64.5,1.3.77,1.93a1.56,1.56,0,0,0,1.59,1,6,6,0,0,1,2,.35,10.17,10.17,0,0,0,1.89.36,5.15,5.15,0,0,1,3.17,1.53,1.12,1.12,0,0,1,0,1.71,2.43,2.43,0,0,1-2.05,1A13.83,13.83,0,0,0,203.43,41.2Z"/><path d="M297.38,20.4a4.61,4.61,0,0,1,3.34,1.4,9.23,9.23,0,0,0,1.45,1.27,2.49,2.49,0,0,0,2.65.24,4.71,4.71,0,0,1,2.22-.48c.84,0,1.68,0,2.51,0a2.9,2.9,0,0,1,2.32,1.25,1.1,1.1,0,0,1,.25.66,3.37,3.37,0,0,1-.85,2.64,15.29,15.29,0,0,1-1.33,1.08,1.43,1.43,0,0,1-1.57.08,2.53,2.53,0,0,0-2.2,0,4.6,4.6,0,0,1-1.4.14c-.17,0-.34,0-.5,0-.48.05-.69.26-.7.74a1.81,1.81,0,0,0,.05.57,7.91,7.91,0,0,1,.1,3,2.55,2.55,0,0,0,.86,2.52c.35.28.59.74,1,.94a8.74,8.74,0,0,0,1.69.53,4.62,4.62,0,0,0,.65.06,3.78,3.78,0,0,1,2.07.7.29.29,0,0,0,.12.07c1.45.19,2.3,1.3,3.29,2.17a1,1,0,0,1,.11,1.58c-.45.55-1,1-1.46,1.57-.29.31-.56.65-.82,1-.13.15-.22.32-.34.46a.49.49,0,0,1-.88-.07,4.58,4.58,0,0,1-.33-.71c-.28-.72-.53-1.44-.83-2.14A3.24,3.24,0,0,0,307.15,40a11.29,11.29,0,0,0-2.68-1.19,1.71,1.71,0,0,1-.62-.36.89.89,0,0,0-1.18,0,7.83,7.83,0,0,0-.9.83,6.7,6.7,0,0,0-.64.77,2.19,2.19,0,0,1-1.76,1.07.83.83,0,0,0-.41.13,6,6,0,0,1-3.37.76,17.69,17.69,0,0,1-3-.14,4,4,0,0,1-1.34-.49,4.11,4.11,0,0,0-1.42-.43,5.93,5.93,0,0,1-1.37-.38,1.45,1.45,0,0,1-.55-.44.66.66,0,0,1,.41-1.14,3.44,3.44,0,0,1,.72,0,3.17,3.17,0,0,0,1.84-.49,2,2,0,0,1,1.43-.28,2,2,0,0,0,1.84-.57A2.87,2.87,0,0,1,295,37a6.19,6.19,0,0,0,2.67-2.52,3.28,3.28,0,0,0,.29-.95c.13-.53.23-1.07.36-1.6.08-.33.18-.66-.14-.93a.88.88,0,0,0-1-.14,6.05,6.05,0,0,0-.55.32c-.08.06-.13.15-.2.21a3.27,3.27,0,0,1-.78.49c-1.07.31-1.89,1.42-3.17,1a4.7,4.7,0,0,1-1.19-.44,20,20,0,0,1-1.67-1.24,1.14,1.14,0,0,0-.37-.21,5.65,5.65,0,0,1-1.93-1.22A1,1,0,0,1,287.6,28a5.41,5.41,0,0,1,.69-.19,1.78,1.78,0,0,0,.6-.22,3.63,3.63,0,0,1,2.32-.8c.73-.1,1.45-.25,2.17-.42s1.53-.39,2.29-.59l.21-.05a1.18,1.18,0,0,0,.6-2.09c-.3-.36-.56-.77-.83-1.16a1.41,1.41,0,0,1,1.15-2.05Z"/><path d="M126,29.69a2.66,2.66,0,0,1,0-.28c0-.84.45-1.22,1.2-.9A4,4,0,0,1,129,29.87a1.41,1.41,0,0,1,.16,1.48,6.26,6.26,0,0,1-1.6,2.17c-.45.43-.95.81-1.42,1.21a.64.64,0,0,1-.25.15,4.73,4.73,0,0,0-2.13,1.41,4.85,4.85,0,0,1-1.27.77,9.31,9.31,0,0,0-1.32.71.82.82,0,0,0-.41.92.92.92,0,0,0,.94.52,23.2,23.2,0,0,0,4.45-.72,5.61,5.61,0,0,1,3-.06,2.87,2.87,0,0,1,1.14.58,5.15,5.15,0,0,1,1.71,1.91c.12.26.32.48.45.73a2,2,0,0,1,.27.72.66.66,0,0,1-.64.79,10.28,10.28,0,0,1-1.35.13,1.82,1.82,0,0,1-.83-.17,4.55,4.55,0,0,0-1.88-.38,18.89,18.89,0,0,0-2.71.19,11.48,11.48,0,0,1-2.87,0,11.62,11.62,0,0,0-2.21.07c-.74,0-1.47.15-2.2.25a3.5,3.5,0,0,0-.56.13c-.71.21-1.43.4-2.12.65a3,3,0,0,0-.91.54c-.72.6-1.15.51-1.53-.35-.22-.5-.46-1-.71-1.49a1.27,1.27,0,0,1,.09-1.29,7.21,7.21,0,0,0,.52-.94,4.14,4.14,0,0,1,3.28-2.38,4.06,4.06,0,0,0,1.62-.7c1.2-.88,2.44-1.68,3.62-2.58.9-.68,1.73-1.44,2.56-2.19.54-.48,1-1,1.54-1.51A1.64,1.64,0,0,0,126,29.69Z"/><path d="M461.26,17.64c.16.26.31.48.42.7s.26.57.4.84a1.61,1.61,0,0,0,2.64.34,3.39,3.39,0,0,1,1.84-1.2,1.81,1.81,0,0,0,1.51-1.43.62.62,0,0,1,.57-.48,1.19,1.19,0,0,1,.42,0,3.06,3.06,0,0,0,2.86-.76,2.75,2.75,0,0,1,1.79-.6,23.39,23.39,0,0,0,2.34-.3,4.17,4.17,0,0,1,.78-.1,1.35,1.35,0,0,1,1.31.72c.28.52.6,1,.91,1.54.17.27.09.52-.16.58a2.43,2.43,0,0,0-1.47,1.28,2.14,2.14,0,0,1-.75.65,2.88,2.88,0,0,0-1.11,1.08,1.34,1.34,0,0,1-1.85.58.56.56,0,0,1-.33-.81,9.21,9.21,0,0,1,.45-.81,1.39,1.39,0,0,0,0-1.67,1.55,1.55,0,0,0-1.8,0c-.18.12-.33.28-.52.39a5.61,5.61,0,0,1-1.07.53,4.57,4.57,0,0,0-2.08,1.05,3.62,3.62,0,0,1-1.86,1,1.21,1.21,0,0,0-.82.64,3.88,3.88,0,0,1-1.23,1.19,10.57,10.57,0,0,0-1.29,1.12,1.42,1.42,0,0,0-.39,1.05,14.12,14.12,0,0,1-.05,1.72,1.67,1.67,0,0,1-1.2,1.54,1.9,1.9,0,0,1-2-.37,2.42,2.42,0,0,1-.77-2.27,4.54,4.54,0,0,1,.77-2.36,2.14,2.14,0,0,0,.32-1.37,3.12,3.12,0,0,1,.52-2.11,2.91,2.91,0,0,0,.34-1.08A1.06,1.06,0,0,1,461.26,17.64Z"/><path d="M157.15,28.68c.17-.23.34-.45.49-.68a7.42,7.42,0,0,0,.65-1c.24-.51-.08-.9-.64-.82a1,1,0,0,0-.33.14l-2.48,1.42a2.72,2.72,0,0,1-.46.21,15.3,15.3,0,0,0-3.45,1.74c-.78.46-1.6.86-2.42,1.25s-1.83.81-2.74,1.23c-.31.13-.57.36-.87.5a2.72,2.72,0,0,1-.94.3c-.65.05-1-.45-.74-1a4.17,4.17,0,0,1,1.55-1.83c1-.56,1.91-1.18,2.86-1.76l.51-.27a1.17,1.17,0,0,0,.36-.23,23.58,23.58,0,0,1,3.19-3.36l.2-.21c.85-.92.85-1,.11-2a1.54,1.54,0,0,1-.35-1.07c0-.16,0-.33,0-.5.08-1.31,0-1.43-1.33-1.73a2.84,2.84,0,0,1-.8-.29.47.47,0,0,1,.05-.89,4.32,4.32,0,0,1,.89-.24l1.48-.31a1.26,1.26,0,0,0,1-1.2c.1-.82.61-1.07,1.29-.58a4.37,4.37,0,0,0,2.2,1,.72.72,0,0,1,.29,1.27,3.18,3.18,0,0,1-.81.45,3.22,3.22,0,0,0-1.36.9c-.2.24-.41.49-.25.84a.89.89,0,0,0,.8.51c.29,0,.58,0,.86.05a2.58,2.58,0,0,1,.69.17c.94.43,1.07,1.05.31,1.75A6.56,6.56,0,0,1,154.59,24a7.79,7.79,0,0,0-2.26,1.49c-.8.61-1.56,1.26-2.36,1.87a4.29,4.29,0,0,1-.93.53.68.68,0,0,0-.45.51c-.06.3,0,.47.35.48a2.91,2.91,0,0,0,1.65-.37,19.65,19.65,0,0,1,3.61-1.88c.18-.06.34-.17.52-.24l1.62-.52c.27-.09.61-.09.81-.26a5,5,0,0,1,3.55-.82,2.56,2.56,0,0,1,1.2.4c.92.52,1,1.26.09,1.83a14.25,14.25,0,0,1-1.78.92c-.56.25-1.16.44-1.74.65a3,3,0,0,1-1.21.27Z"/><path d="M125.45,22.16a4.51,4.51,0,0,0-.59-.47,8.82,8.82,0,0,0-3.16-1.32,1.78,1.78,0,0,1-.89-.41,2.63,2.63,0,0,0-2-.74.73.73,0,0,1-.81-.47.92.92,0,0,1,.27-1,1.66,1.66,0,0,1,.74-.24c.45,0,.9,0,1.36.06a6.24,6.24,0,0,0,1.14,0,5.08,5.08,0,0,1,3.88,1.12,5.09,5.09,0,0,1,1.1,1.57,1,1,0,0,1-.15,1l-.54.85.66.54c.79.63.78,1.37-.13,1.81a22.51,22.51,0,0,0-2.85,1.76,6.7,6.7,0,0,0-1.64,1.45,6.75,6.75,0,0,1-.67.64.71.71,0,0,0-.19.8c.12.29.39.31.67.28a5.85,5.85,0,0,1,.6,0,1.31,1.31,0,0,1-.74,1.28,8.66,8.66,0,0,0-2.14,1.66c-.69.55-1.37,1.11-2,1.67-.2.17-.36.38-.55.56s-.45.53-.85.39a1.07,1.07,0,0,1-.72-.83,1.56,1.56,0,0,1,0-.57,4.41,4.41,0,0,1,1.45-2.73,14.73,14.73,0,0,0,1.33-1.4c.4-.44.8-.89,1.18-1.34a2.4,2.4,0,0,0,.37-.53c.25-.49,0-.88-.54-.84a3.76,3.76,0,0,0-1,.25c-.54.19-1.08.41-1.6.65a3.08,3.08,0,0,1-1.61.23,1.17,1.17,0,0,1-1-1.79,2.7,2.7,0,0,1,.24-.44c.27-.39.47-.49.91-.28a1.77,1.77,0,0,0,1.7-.08,13.52,13.52,0,0,1,1.77-.57c.45-.14.9-.3,1.35-.46s.84-.34,1.27-.47c1.21-.36,2.43-.69,3.65-1A1.07,1.07,0,0,0,125.45,22.16Z"/><path d="M158,35.19a.79.79,0,0,0,.27-.92,4.83,4.83,0,0,1-.22-.91c0-.43.21-.66.62-.53a2.2,2.2,0,0,1,1,.56,5.5,5.5,0,0,1,.86,1.31,1,1,0,0,1-.28,1.18,2.47,2.47,0,0,1-1.49.78,2,2,0,0,0-1.5.89c-.22.31-.42.63-.63,1-.5.76-1,1.52-1.49,2.28a2.21,2.21,0,0,0-.32.7.74.74,0,0,0,.72,1,5.53,5.53,0,0,0,1.14-.09c.23,0,.46-.13.69-.17a1.55,1.55,0,0,1,1.59.6,1,1,0,0,1,0,1.43,1.84,1.84,0,0,1-1.61.61,15,15,0,0,0-4,0,4.12,4.12,0,0,1-.93,0,1.52,1.52,0,0,1-1.43-1,1.59,1.59,0,0,1,.5-1.69l1.09-1a1.9,1.9,0,0,0,.31-.39c.29-.55.07-1-.53-1-.21,0-.43,0-.65,0a1,1,0,0,1-1-1.28,2.39,2.39,0,0,1,.4-.91,8.46,8.46,0,0,1,1.78-1.95c.17-.13.31-.29.47-.44a1.16,1.16,0,0,0,.26-1.32,12.51,12.51,0,0,0-.93-2.47c-.35-.61,0-1.13.66-1.25a2.3,2.3,0,0,1,2.32,1.1,2,2,0,0,1,.09.89,3.86,3.86,0,0,1-.17.55A1.37,1.37,0,0,0,156,34,3.91,3.91,0,0,0,158,35.19Z"/><path d="M470.16,64.13a4.59,4.59,0,0,0-3.26,1.66,2.55,2.55,0,0,0-.58,1.37,3.23,3.23,0,0,1-.88,2.07,1.17,1.17,0,0,1-.88.41c-.49,0-.77-.26-.73-.75a6.28,6.28,0,0,1,.15-.7c.11-.51.21-1,.34-1.53a6,6,0,0,1,.24-.67c.2-.54.11-.76-.4-1-.83-.46-.86-.73-.11-1.33a3.3,3.3,0,0,1,1.54-.74,1.27,1.27,0,0,1,1.31.33c.49.52.69.49,1.33.14a2.76,2.76,0,0,1,.93-.31,1,1,0,0,1,1.09.52c.13.25.32.29.6.24a3.84,3.84,0,0,0,1.51-.62,5.28,5.28,0,0,1,1.27-.66c.53-.2.78,0,1,.52a2,2,0,0,1-.11,1.26c-.12.44-.25.87-.35,1.31-.06.28-.15.63.17.77a1.13,1.13,0,0,0,.74-.06,3.52,3.52,0,0,0,1.48-1.11l1.23-1.58a1.5,1.5,0,0,1,1.72-.58c.46.15.66.39.54.86-.2.81-.46,1.61-.71,2.4-.14.46-.31.9-.46,1.35s-.36,1.1-.53,1.64c-.44,1.39-1.15,2.67-1.58,4.07a12.71,12.71,0,0,1-1.16,2.22c-.23.42-.49.82-.74,1.23s-.67.58-1,.37a.75.75,0,0,1-.2-1.12A10.23,10.23,0,0,0,475,73.71c.55-1.21,1.14-2.41,1.63-3.65a13.66,13.66,0,0,0,.62-2.36c0-.23,0-.62-.15-.71a1.1,1.1,0,0,0-.8,0c-.21.06-.37.29-.56.43l-2.36,1.75a1.33,1.33,0,0,1-.32.15.93.93,0,0,1-1.27-.43,2,2,0,0,1-.19-1.53,11.28,11.28,0,0,0,.26-1.26.8.8,0,0,0-.33-.82C471.07,65,470.68,64.57,470.16,64.13Z"/><path d="M83.5,64.54c-.39.13-.48.44-.52.79a10.79,10.79,0,0,1-1,3.29,3.69,3.69,0,0,1-.63.94.9.9,0,0,1-1,.27.62.62,0,0,1-.46-.83,1.53,1.53,0,0,1,.23-.52,8.48,8.48,0,0,0,1.13-3.08c.14-.51.23-1,.35-1.54a1.52,1.52,0,0,0,.06-.2c0-.41.18-.86-.24-1.12s-.72.08-1,.3-.48.4-.74.58a.72.72,0,0,1-.93,0,.79.79,0,0,1-.17-1,2.34,2.34,0,0,1,.6-.69,4.17,4.17,0,0,1,2-.92,3,3,0,0,0,1.46-.55,1.45,1.45,0,0,1,.45-.22c1-.35,1.62.07,1.6,1.11a2.7,2.7,0,0,0,.71,2,6.92,6.92,0,0,1,.58.9.69.69,0,0,0,1.19.12,2.43,2.43,0,0,0,.33-.46c.44-.83.86-1.66,1.3-2.48a3.47,3.47,0,0,1,.38-.61c.32-.44.66-.88,1-1.31a1.46,1.46,0,0,1,2.21-.27.74.74,0,0,1,0,1.27,2.2,2.2,0,0,1-.77.37A2.26,2.26,0,0,0,90,62.05c-.24.59-.55,1.16-.79,1.76A5.28,5.28,0,0,0,89,67.4c.32,1-.14,1.63-1,2.23A.92.92,0,0,1,86.5,69a5,5,0,0,0-1.33-2.5,12.16,12.16,0,0,1-.87-1.22C84.07,65,83.91,64.65,83.5,64.54Z"/><path d="M333.74,68.35h.36a2.58,2.58,0,0,0,2.17-.9,1.53,1.53,0,0,1,1.55-.54,1.62,1.62,0,0,1,.59.25.79.79,0,0,1,0,1.38,7.19,7.19,0,0,1-1.56.86,6.35,6.35,0,0,1-2.25.4c-1,0-2,.08-3,.13a1.88,1.88,0,0,0-1.11.6,4.43,4.43,0,0,1-.73.58c-.46.25-.79.15-1-.32a1.87,1.87,0,0,0-1.08-1.17.75.75,0,0,1-.53-.78.85.85,0,0,1,.6-.74,7.93,7.93,0,0,1,1.2-.22,1.27,1.27,0,0,0,1.31-1.09,29.29,29.29,0,0,0,.7-3.94,2.06,2.06,0,0,0,0-.43c0-1-.35-1.28-1.35-1.12a3.63,3.63,0,0,1-.56.09.57.57,0,0,1-.64-.36.64.64,0,0,1,.2-.78,2.41,2.41,0,0,1,.82-.4c.65-.13,1.33-.16,2-.28a6.1,6.1,0,0,1,2.62.13,4.48,4.48,0,0,0,2.89-.14,1.19,1.19,0,0,1,.41-.11.51.51,0,0,1,.59.71,1.55,1.55,0,0,1-.5.74,3,3,0,0,1-2.58.56,1.26,1.26,0,0,0-1.17.13c-.51.37-.48.94.1,1.18a2.92,2.92,0,0,0,.9.13,8.22,8.22,0,0,1,1.41.14c.48.13.53.54.13.86a2.07,2.07,0,0,1-1.31.52c-.38,0-.76,0-1.15,0a1.47,1.47,0,0,0-1.4.94,8.68,8.68,0,0,0-.49,1.65c-.18.85.18,1.28,1,1.33.26,0,.52,0,.79,0Z"/><path d="M299.3,66.42l-.59.56a8,8,0,0,1-3.12,2.24c-.95.33-1.53,0-1.56-1a6.87,6.87,0,0,1,.17-1.41c0-.21.14-.41.19-.62.14-.53.05-.73-.48-.93-.31-.13-.63-.21-.77-.57s-.1-.52.18-.68l2.33-1.25a2,2,0,0,1,.47-.17c.64-.16,1.06.14,1.05.79a6.54,6.54,0,0,1-.22,1.05,8.67,8.67,0,0,0-.2,1.34c0,.6.4.84.9.53a5.57,5.57,0,0,0,2.24-2.17A2.1,2.1,0,0,1,301.75,63c.75-.06,1.09.32.91,1.06-.08.37-.23.72-.35,1.09-.42,1.24-.83,2.49-1.27,3.73-.32.9-.7,1.77-1,2.67a22.72,22.72,0,0,1-2,4.21,9.5,9.5,0,0,1-.89,1.22.67.67,0,0,1-.88.23.8.8,0,0,1-.14-1,.47.47,0,0,1,.07-.12c.47-.41.58-1,.89-1.54.8-1.31,1.23-2.79,1.91-4.16a13.15,13.15,0,0,0,.78-2.68A1.1,1.1,0,0,0,299.3,66.42Z"/><path d="M219.18,67.22a2.22,2.22,0,0,0,.7-.23c.59-.41,1.15-.86,1.7-1.32a11.77,11.77,0,0,0,1.13-1,10.57,10.57,0,0,0,.88-1.12c.19-.27.31-.59.49-.88a2.07,2.07,0,0,1,1.6-1,.81.81,0,0,1,1,1,1.47,1.47,0,0,1-.19.53,4.61,4.61,0,0,0-.6,2.9,2.63,2.63,0,0,0,.41,1.12c.46.83.37,1.23-.45,1.8a1.18,1.18,0,0,1-1.86-.28,5.55,5.55,0,0,1-.56-1.38c-.19-.7-.46-.86-1.13-.56a2.12,2.12,0,0,0-.59.4,8.66,8.66,0,0,1-3.52,2c-.83.28-1.45-.11-1.36-1a23.22,23.22,0,0,1,.6-2.94c.06-.3.19-.59.27-.89a1.27,1.27,0,0,0-.31-1.32c-.53-.56-.41-1,.33-1.21a6,6,0,0,0,1.56-.71,3.89,3.89,0,0,1,1.06-.41,1.25,1.25,0,0,1,.69,0c.72.23.83.68.25,1.14a5.3,5.3,0,0,0-1.39,2,14.27,14.27,0,0,0-.72,1.88,6.45,6.45,0,0,0-.13,1.17Z"/><path d="M322.27,63a6.74,6.74,0,0,1,.78,0c.25,0,.47.13.51.43a.57.57,0,0,1-.33.65,7,7,0,0,1-1.17.32,6.19,6.19,0,0,1-.86,0,1.29,1.29,0,0,0-1.45,1.11c-.29,1.06-.52,2.13-.77,3.2-.14.58-.26,1.16-.42,1.73s-.34.9-.44,1.37a6.12,6.12,0,0,1-1.06,2.1,8.75,8.75,0,0,1-2.41,2.62,5.12,5.12,0,0,1-1,.51.47.47,0,0,1-.6-.26.48.48,0,0,1,.11-.65.94.94,0,0,1,.1-.1c2.26-1.54,3.12-3.89,3.71-6.4.24-1,.58-2,.88-3,.16-.58.35-1.14.51-1.72s0-.61-.45-.94a3,3,0,0,1-.82-.77c-.42-.71-.11-1.15.7-1.11a4,4,0,0,1,.5.07.83.83,0,0,0,1.1-.52,8,8,0,0,0,.34-.8,3.47,3.47,0,0,1,1.44-1.74,8.6,8.6,0,0,1,1.63-.89c1-.39,1.73-.16,2.07.52a.89.89,0,0,1,0,1,.81.81,0,0,1-.89.31c-.26,0-.53-.07-.78-.14a1.09,1.09,0,0,0-1.24.49c-.29.38-.56.78-.82,1.18a.91.91,0,0,0-.15,1.06c.22.38.59.36,1,.35h.36Z"/><path d="M418.3,67.73c1.31,0,1.32,0,1.58-1.3.31-1.55.65-3.08,1-4.62a2.38,2.38,0,0,1,1.4-1.79,1.05,1.05,0,0,0,.26-.13c1.17-.89,2.32-.43,3.44.1a.84.84,0,0,1,.34,1.37,1.3,1.3,0,0,1-1.55.59,6.66,6.66,0,0,1-.73-.31c-.69-.31-.93-.24-1.2.48-.2.56-.32,1.15-.47,1.73-.23.92-.45,1.85-.68,2.77l-.1.27a1,1,0,0,0,.94,1.45c.29,0,.58,0,.87,0a9.13,9.13,0,0,0,1.28,0,4.54,4.54,0,0,0,1.14-.34c.5-.22,1-.51,1.47-.74a1.67,1.67,0,0,1,.69-.14.67.67,0,0,1,.6.93,1.75,1.75,0,0,1-1.28,1.15,8.6,8.6,0,0,1-2.8.55c-.64,0-1.28.08-1.93.08s-1.38-.06-2.07-.09c-.5,0-1,0-1.5-.06a14.74,14.74,0,0,1-1.48-.25,1.13,1.13,0,0,1-.33-.13,1,1,0,0,1-.56-1,1,1,0,0,1,1-.64C417.78,67.71,418,67.73,418.3,67.73Z"/><path d="M348.58,64.38a2.7,2.7,0,0,1,1.73-1.3c.52-.16,1.06-.25,1.6-.36s.85.09.88.7a1.32,1.32,0,0,1-.32,1,3,3,0,0,0-.74,1.45,1.59,1.59,0,0,0-.07.2,1.05,1.05,0,0,0,.44.93.76.76,0,0,0,.84-.25l2.84-2.63a8.85,8.85,0,0,1,.89-.73,1.71,1.71,0,0,1,.72-.27c.75-.07,1,.26.79,1a7.27,7.27,0,0,0-.27,3.67.87.87,0,0,1-.56,1.12,4.83,4.83,0,0,1-1,.39.62.62,0,0,1-.86-.64,6.11,6.11,0,0,1,.06-.86c0-.12.09-.24.06-.35s-.08-.54-.23-.63a.74.74,0,0,0-.64.12,9.61,9.61,0,0,0-.93.88c-.33.31-.64.65-1,.93s-.83.57-1.24.85a1.32,1.32,0,0,1-2.23-.86,2.17,2.17,0,0,1,.25-1.66,3,3,0,0,0,.39-1.21c.08-.56-.14-.83-.66-1.05l-.59-.25S348.68,64.5,348.58,64.38Z"/><path d="M407.34,65.56a3.37,3.37,0,0,0-1.49.92c-.41.44-.73,1-1.11,1.41s-.85,1-1.28,1.45a.94.94,0,0,1-.23.16c-.44.28-.72.31-1,.09s-.31-.53-.07-1a5.45,5.45,0,0,0,.64-2,1.55,1.55,0,0,0-.55-1.66c-.5-.36-.43-.62.09-1,.37-.26.73-.54,1.09-.81a2,2,0,0,1,1.33-.46c.55,0,.8.3.68.84a6,6,0,0,1-.29.81c-.09.23-.17.46.18.67a5.7,5.7,0,0,0,.65-.33c.75-.47,1.5-.94,2.23-1.44a1.57,1.57,0,0,1,1-.3c.71,0,1,.34.8,1-.1.47-.26.92-.32,1.4a3.15,3.15,0,0,0,0,1.06c.09.44.36.58.8.54a3,3,0,0,1,.78-.07.72.72,0,0,1,.46.36c.05.13-.07.35-.16.51a.66.66,0,0,1-.27.22L409,69.41a1.12,1.12,0,0,1-1.82-1,9,9,0,0,1,.21-1.55A1.75,1.75,0,0,0,407.34,65.56Z"/><path d="M131.47,65.52a5.63,5.63,0,0,0-2.56,2.23c-.43.57-.94,1.07-1.41,1.61a1.24,1.24,0,0,1-.23.17c-.3.18-.6.32-.93.08s-.33-.52-.1-1a4.93,4.93,0,0,0,.66-2.46,1.2,1.2,0,0,0-.51-1.11.82.82,0,0,1-.32-.37.47.47,0,0,1,.22-.61c.43-.3.84-.62,1.27-.93a2,2,0,0,1,1.27-.42c.55,0,.78.27.69.82,0,.23-.16.45-.21.68a7.27,7.27,0,0,0-.1.77,2.74,2.74,0,0,0,1.43-.64c.62-.36,1.2-.79,1.8-1.17A1.49,1.49,0,0,1,133,63c.91-.1,1.24.3,1,1.19a13.58,13.58,0,0,0-.32,1.54,1.84,1.84,0,0,0,.1.77c.13.43.37.55.82.49.12,0,.23-.06.35-.07.31,0,.66,0,.8.33s-.17.58-.41.75c-.46.34-1,.63-1.45.93-.3.19-.62.36-.93.54a1.09,1.09,0,0,1-1.72-.73,3.93,3.93,0,0,1,0-1.28c.06-.42.2-.84.26-1.26A2.63,2.63,0,0,0,131.47,65.52Z"/><path d="M232.36,65.16a5.51,5.51,0,0,0,1.59-.72c.55-.38,1.07-.79,1.61-1.19a1.56,1.56,0,0,1,1.24-.2.63.63,0,0,1,.54.94,4.81,4.81,0,0,0-.43,2c0,.14,0,.29,0,.43.12.53.35.67.87.56a4.66,4.66,0,0,1,.63-.12.59.59,0,0,1,.67.43.77.77,0,0,1-.27.6,13.57,13.57,0,0,1-1.21.75c-.47.28-.95.55-1.42.84a.91.91,0,0,1-1.48-.38,2,2,0,0,1-.11-1.92,4.07,4.07,0,0,0,.26-1,.52.52,0,0,0-.35-.63.77.77,0,0,0-.56.22,19.94,19.94,0,0,0-2.28,2.57,6.57,6.57,0,0,1-1,1.08,1.09,1.09,0,0,1-.51.24c-.57.1-.89-.25-.75-.8a1.36,1.36,0,0,1,.14-.33,7.24,7.24,0,0,0,.59-2.63.49.49,0,0,0-.3-.59,1.66,1.66,0,0,1-.49-.3.48.48,0,0,1,0-.8,7.76,7.76,0,0,1,2.25-1.37c.3-.08.62-.23.89,0a.92.92,0,0,1,.18,1c-.08.3-.23.58-.32.88A1.73,1.73,0,0,0,232.36,65.16Z"/><path d="M285.78,68.51c.14-.39.26-.78.41-1.15a16.84,16.84,0,0,0,.68-1.65c.25-.86,0-1.19-.92-1.25-.62,0-.82-.19-.86-.64a.66.66,0,0,1,.64-.79c.33-.05.67-.05,1-.11a1.22,1.22,0,0,0,1.09-1,2.75,2.75,0,0,1,1.24-1.61.91.91,0,0,1,1.19,0c.27.24.28.66,0,1.12a1.13,1.13,0,0,0-.12.18c-.38.7-.13,1.18.66,1.22.29,0,.58,0,.86,0a1.09,1.09,0,0,1,.55.13,1,1,0,0,1,.35.55c0,.12-.26.33-.44.37a15,15,0,0,1-2.11.37,1.06,1.06,0,0,0-1.09.84c-.16.62-.35,1.24-.48,1.87a2,2,0,0,0,0,.85.69.69,0,0,0,1,.5c.43-.22.83-.49,1.23-.74s.6-.45,1-.2c.23.16.14.73-.16,1.12a1.29,1.29,0,0,1-.37.33c-.72.39-1.43.77-2.15,1.14a11.14,11.14,0,0,1-1.11.51,1.3,1.3,0,0,1-1.76-.65A10.18,10.18,0,0,1,285.78,68.51Z"/><path d="M108.16,60.1c.61,0,.8.17.77.65a3.59,3.59,0,0,1-.22.9c-.24.73-.09,1,.67,1.15.28.05.58,0,.86,0a1.74,1.74,0,0,1,.56.1c.37.18.43.6.08.79a4.76,4.76,0,0,1-1.27.43,3.66,3.66,0,0,1-1,.1,1.09,1.09,0,0,0-1.06.72,6.87,6.87,0,0,0-.62,2.56.86.86,0,0,0,.37.88c.37.19.67,0,1-.22a15.43,15.43,0,0,1,1.37-.77.49.49,0,0,1,.66.06.52.52,0,0,1,0,.72,3.05,3.05,0,0,1-.72.67c-.47.32-1,.6-1.48.88a8.08,8.08,0,0,1-.85.37c-.38.14-.76.26-1.13.42a.81.81,0,0,1-1.16-.37A4,4,0,0,1,104.5,69a2.2,2.2,0,0,1,.07-1c.17-.52.44-1,.63-1.53a4.07,4.07,0,0,0,.23-1c0-.67-.12-.87-.76-1-.19,0-.42,0-.56-.1s-.44-.37-.45-.57a.73.73,0,0,1,.38-.61,3.1,3.1,0,0,1,1.17-.29,1.12,1.12,0,0,0,1.11-.94,3,3,0,0,1,1.43-1.72A1,1,0,0,1,108.16,60.1Z"/><path d="M385.15,64.23c-1.1,0-1.42.15-1.73.93a5.35,5.35,0,0,0-.53,2.43,1.21,1.21,0,0,0,.32.81c.31.24.66,0,1-.17a8.83,8.83,0,0,1,1.51-.82c.46-.19.67,0,.63.52a1.15,1.15,0,0,1-.7.93l-1.74,1a3.62,3.62,0,0,1-.45.2l-1.41.5c-.54.21-.87.12-1.13-.4a9.45,9.45,0,0,1-.53-1.33,1.09,1.09,0,0,1,0-.62c.19-.54.44-1.06.64-1.59a7.61,7.61,0,0,0,.31-1c.13-.67-.09-1-.77-1.12a3.1,3.1,0,0,1-.62-.13.56.56,0,0,1-.17-1,1.88,1.88,0,0,1,.64-.3,2.73,2.73,0,0,1,.5-.06,1.35,1.35,0,0,0,1.38-1.19c.16-.78.85-1.19,1.47-1.59a.79.79,0,0,1,.94.1c.26.23.19.53.13.81s-.18.49-.27.74c-.18.56-.06.78.53.91.32.07.66.07,1,.11a1.8,1.8,0,0,1,.62.11.43.43,0,0,1,.09.79,1.12,1.12,0,0,1-.44.24C385.89,64.1,385.4,64.18,385.15,64.23Z"/><path d="M250.73,64.91c0,.36,0,.72,0,1.08a1.66,1.66,0,0,0,.07.49c.21.64.75.81,1.21.33.87-.89,1.7-1.81,2.53-2.74a.84.84,0,0,0,0-1.17c-.46-.62-.46-.73.09-1.25a2.14,2.14,0,0,1,1.63-.79c.82.06,1.13.48.79,1.24a15.52,15.52,0,0,1-3.15,5.09c-.51.5-1.1.91-1.65,1.36s-.84.64-1.23,1c-.8.71-1.84.6-2.12-.6q-.28-1.15-.51-2.31a1.8,1.8,0,0,0-1-1.49.71.71,0,0,1-.47-.74c0-.37.31-.5.61-.62s.66-.29,1-.44A2.63,2.63,0,0,1,250,63a.67.67,0,0,1,.69.75c0,.38,0,.76,0,1.14Z"/><path d="M171.5,59.29a3.1,3.1,0,0,1-.29.68,2.69,2.69,0,0,1-3.05,1.18c-.76-.2-1,0-1.44.71a11.41,11.41,0,0,0-1.26,4,10.89,10.89,0,0,1-.8,2.44,1.92,1.92,0,0,1-1.4,1.14,1,1,0,0,1-.72-.15.51.51,0,0,1-.11-.71c.78-1.15.8-2.53,1.24-3.79a7.09,7.09,0,0,0,.4-2.46c0-.82-.27-1-1-.68a8.05,8.05,0,0,0-1,.57c-.21.13-.39.29-.6.4a1,1,0,0,1-1.31-.37.9.9,0,0,1,.29-1.26,5.58,5.58,0,0,1,1.62-.72,24,24,0,0,1,3-.4c1-.07,2,0,2.94-.07s1.69-.29,2.54-.43C170.85,59.33,171.1,59.32,171.5,59.29Z"/><path d="M469.8,13.36a5.78,5.78,0,0,0-2.9,0c-.7.12-1-.26-1.12-1a1.72,1.72,0,0,1,.42-1.46,3.19,3.19,0,0,0,.72-2.74,9.55,9.55,0,0,1,0-1.07.71.71,0,0,1,.42-.7c.33-.15.57.07.75.27a2.87,2.87,0,0,0,1.58,1,1,1,0,0,1,.48.31c.5.57,1,1.14,1.47,1.74a12.37,12.37,0,0,1,.68,1.09,1.15,1.15,0,0,1-.27,1.76A2.92,2.92,0,0,1,469.8,13.36Z"/><path d="M201.18,62.88h.15c.62,0,1.2,0,1.48.73a1.91,1.91,0,0,1-.43,2,3.23,3.23,0,0,1-1.58.78,3.15,3.15,0,0,0-1,.39.85.85,0,0,0-.35.94c.09.28.4.43.85.38a5.08,5.08,0,0,0,2.41-.8c.54-.38.78-.37,1-.09s.21.75-.23,1.13a2.35,2.35,0,0,1-.86.48c-1.31.38-2.62.74-3.94,1.08-1.15.29-1.81-.22-1.81-1.42a4.52,4.52,0,0,1,.7-2.72,1.22,1.22,0,0,0,.17-.39,3.43,3.43,0,0,1,2-2.25,5.81,5.81,0,0,1,1.42-.38Z"/><path d="M257.35,68.24a5.76,5.76,0,0,1,.71-2.53c.11-.24.25-.46.36-.7a3.61,3.61,0,0,1,3.6-2.17,1.33,1.33,0,0,1,1.33.9,1.69,1.69,0,0,1-.58,2,12.74,12.74,0,0,1-1.55.71c-.29.12-.61.17-.88.3a.85.85,0,0,0-.38,1.11.69.69,0,0,0,1,.36c.77-.26,1.53-.55,2.29-.83l.2-.08c.47-.17.8-.09.94.22a.76.76,0,0,1-.37.92,7.59,7.59,0,0,1-2.4.91,17.76,17.76,0,0,0-2.29.55c-1.2.38-1.89-.09-1.92-1.37A2.81,2.81,0,0,1,257.35,68.24Z"/><path d="M151.78,67.47c.12-.06.35-.18.58-.28a4.09,4.09,0,0,1,.79-.32.54.54,0,0,1,.63.37.48.48,0,0,1-.25.61,8.55,8.55,0,0,1-2,1.18,3.45,3.45,0,0,0-1,.48c-.42.28-.83.48-1.31.16a1.76,1.76,0,0,1-.6-1.53c.33-1.09.69-2.17,1-3.26.14-.43.28-.87.41-1.3a1.41,1.41,0,0,0-.38-1.68c-.41-.36-.37-.66,0-.95l2.07-1.54a1.48,1.48,0,0,1,1.07-.32c.54,0,.73.3.53.8s-.41.76-.56,1.16c-.36,1-.68,1.94-1,2.9-.18.54-.38,1.08-.52,1.63a4.94,4.94,0,0,0-.2,1.26C151,67.25,151.27,67.45,151.78,67.47Z"/><path d="M360.3,67.8c.3-1.52.51-2.94,1.56-4.06a3.08,3.08,0,0,1,2-1.12c.34,0,.66-.12,1-.16a.92.92,0,0,1,1.07.64.77.77,0,0,1-.5,1,8.34,8.34,0,0,1-1.6.6,1.09,1.09,0,0,0-.85.68,3.09,3.09,0,0,0-.23,2c.17.77.52,1,1.3.85.58-.12,1.16-.29,1.74-.43a2.3,2.3,0,0,1,.63-.1.62.62,0,0,1,.61.52.56.56,0,0,1-.38.62,14.78,14.78,0,0,1-4.15,1.37,1.62,1.62,0,0,1-1.8-1C360.52,68.69,360.42,68.2,360.3,67.8Z"/><path d="M181,65.94a1,1,0,0,1,.36-1.12c.45-.34.95-.63,1.44-.93.3-.18.62-.34.93-.51.09-.05.15-.12.24-.16a1.1,1.1,0,0,1,1,0c.34.23.27.58.21.91-.15.83-.32,1.64-.44,2.47a.86.86,0,0,0,.13.64c.2.23.5.13.72,0a1.23,1.23,0,0,1,1.08-.17c.23.69.17,1-.36,1.37a6.37,6.37,0,0,1-.8.46c-.51.27-1,.52-1.54.76a2.17,2.17,0,0,1-.6.22,1.06,1.06,0,0,1-1.29-1.32c.06-.37.18-.74.26-1.11.24-1.07,0-1.39-1.09-1.45C181.19,66,181.12,66,181,65.94Z"/><path d="M242.3,69.88c-.86,0-1.3-.47-1.24-1.19,0-.31.14-.61.19-.91a8.27,8.27,0,0,0,.12-.85.76.76,0,0,0-.58-.87c-.09,0-.18,0-.27-.09-.62-.29-.7-.81-.14-1.21s1-.62,1.53-.92c.24-.15.48-.3.74-.43a2.39,2.39,0,0,1,.71-.28c.69-.07,1,.27.83,1l-.48,2.38,0,.21c0,.58.27.81.8.61.13-.05.25-.14.38-.19.3-.12.61-.19.85.1a.69.69,0,0,1-.1.92,3.11,3.11,0,0,1-.72.58c-.69.37-1.4.71-2.11,1A2.39,2.39,0,0,1,242.3,69.88Z"/><path d="M431.77,69.91a.76.76,0,0,1-.84-.59,3,3,0,0,1-.05-.84c0-.48.13-1,.14-1.43a.94.94,0,0,0-.61-1c-.09,0-.17-.08-.26-.12-.56-.32-.64-.7-.14-1.13a8.15,8.15,0,0,1,1.26-.8q.59-.34,1.2-.63a1.82,1.82,0,0,1,.66-.21c.58,0,.86.27.75.84-.14.79-.33,1.58-.5,2.38,0,.14-.08.27-.1.41-.07.47.13.67.62.59.28,0,.54-.2.82-.24a1,1,0,0,1,.65.12c.25.21.09.51-.08.7a3.63,3.63,0,0,1-.88.83c-.71.39-1.47.7-2.21,1A3.41,3.41,0,0,1,431.77,69.91Z"/><path d="M205.94,68.56c0-.52.07-1,.12-1.56a.91.91,0,0,0-.57-1c-.93-.49-1-.91-.07-1.53.33-.23.71-.39,1.06-.59l1-.53c.08,0,.15-.12.24-.16.71-.35,1.29,0,1.19.79s-.31,1.54-.44,2.31a1.49,1.49,0,0,0,0,.94c.21.3.61.08.93,0a2,2,0,0,1,.54-.17.73.73,0,0,1,.55.22.62.62,0,0,1-.09.58,3.71,3.71,0,0,1-.94.87,17.58,17.58,0,0,1-2,1C206.37,70.18,205.84,69.78,205.94,68.56Z"/><path d="M273.11,70.17c-.32-.11-.64-.07-.77-.42s.08-.59.33-.79a2.73,2.73,0,0,1,.43-.26,7.58,7.58,0,0,0,.68-.4c.89-.66.93-1.2.18-2a5,5,0,0,0-.46-.46,2.37,2.37,0,0,1-.78-1.78.55.55,0,0,1,.3-.6L275.6,62a1.53,1.53,0,0,1,.42-.11.75.75,0,0,1,.8.35.66.66,0,0,1-.28.81,6.16,6.16,0,0,1-.55.33c-.75.44-.84.88-.28,1.53.26.29.51.58.77.86a1.87,1.87,0,0,1-.62,2.91c-.5.27-1,.61-1.46.88S273.54,70,273.11,70.17Z"/><path d="M114.56,63.12c.73,0,1,.34.93.88s-.29,1.21-.41,1.81A6.22,6.22,0,0,0,115,67c0,.4.27.54.64.38a5,5,0,0,0,.5-.29.59.59,0,0,1,.78.09.57.57,0,0,1,0,.73,2.66,2.66,0,0,1-1.41,1.16,9.45,9.45,0,0,0-1.4.67.93.93,0,0,1-1.18,0,1.09,1.09,0,0,1-.45-1.13c.08-.56.21-1.12.25-1.69s-.09-.84-.71-1.06a1.52,1.52,0,0,0-.2-.06c-.59-.24-.66-.51-.19-.93a4.22,4.22,0,0,1,1.58-1.07,4,4,0,0,0,.8-.46C114.2,63.27,114.46,63.17,114.56,63.12Z"/><path d="M282.39,64.17c-.05.26-.15.7-.24,1.15a13.37,13.37,0,0,0-.29,1.4,1,1,0,0,0,.21.64c.18.22.44.09.65,0a2.85,2.85,0,0,1,.37-.23.65.65,0,0,1,.8.08.64.64,0,0,1,0,.85,2.83,2.83,0,0,1-1.29,1c-.11,0-.23.06-.34.11a8.24,8.24,0,0,0-1.07.54c-.41.27-.8.47-1.26.19a1.1,1.1,0,0,1-.51-1.17c.05-.36.12-.71.17-1.06a4.92,4.92,0,0,0,.09-.64.91.91,0,0,0-.72-1.08c-.26-.1-.61-.11-.68-.45s.27-.52.48-.74a12.34,12.34,0,0,1,2.52-1.5C281.87,62.82,282.42,63.24,282.39,64.17Z"/><path d="M391.37,64.14c-.06.26-.15.7-.24,1.15a12.19,12.19,0,0,0-.3,1.46.84.84,0,0,0,.24.62c.11.09.39,0,.58,0s.32-.24.5-.26a.73.73,0,0,1,.57.12.65.65,0,0,1,.12.57A2,2,0,0,1,391.48,69a4.39,4.39,0,0,0-1.54.74.87.87,0,0,1-1.06.1,1,1,0,0,1-.53-1c0-.4.11-.8.17-1.2,0-.24.06-.48.07-.71,0-.68-.11-.83-.75-1a1.91,1.91,0,0,1-.34-.1c-.33-.17-.4-.42-.16-.69a4.89,4.89,0,0,1,.9-.81,17.8,17.8,0,0,1,2-1.11C390.89,62.89,391.38,63.25,391.37,64.14Z"/><path d="M445.5,64.46a2.89,2.89,0,0,1,2.73-1.61,1.56,1.56,0,0,1,.66.37c.54.47.73.52,1.33.12a1.81,1.81,0,0,1,1.29-.3.72.72,0,0,1,.51.3.61.61,0,0,1-.17.55,2.88,2.88,0,0,1-1,.55,3.58,3.58,0,0,0-2.55,2.87,3.11,3.11,0,0,1-.83,1.86l-.32.29a1,1,0,0,1-1,.1.69.69,0,0,1-.26-.89,25.17,25.17,0,0,1,.67-2.69.67.67,0,0,0-.33-1A6.63,6.63,0,0,1,445.5,64.46Z"/><path d="M272.19,63.51a1.62,1.62,0,0,1-1.18.9,3.9,3.9,0,0,0-2.42,2,1.81,1.81,0,0,0-.2.75,3.12,3.12,0,0,1-1.05,2.2,1.4,1.4,0,0,1-.63.29c-.53.07-.76-.14-.76-.67a3.49,3.49,0,0,1,.11-.71c.1-.53.2-1.07.32-1.6.06-.25.18-.49.26-.74.16-.47.07-.69-.37-.94l-.12-.07c-.74-.4-.76-.71-.08-1.24a3.53,3.53,0,0,1,1.66-.8,1.27,1.27,0,0,1,1.24.35c.49.52.7.5,1.32.14A1.31,1.31,0,0,1,272.19,63.51Z"/><path d="M454.22,16.82a.61.61,0,0,1,.37-.65,2,2,0,0,1,2,0,4.23,4.23,0,0,1,.76.64.68.68,0,0,1-.19,1.1,12.87,12.87,0,0,1-1.32.71c-.17.08-.48.12-.58,0A3.16,3.16,0,0,1,454.22,16.82Z"/><path d="M452.9,23.85a4.81,4.81,0,0,1-.22,1c-.17.43-.59.46-.89.11a1.16,1.16,0,0,1-.23-.36A5.16,5.16,0,0,0,450.45,23a1.9,1.9,0,0,1-.3-.4.42.42,0,0,1,.18-.66,5.82,5.82,0,0,1,1.27-.45.81.81,0,0,1,.94.68C452.71,22.71,452.79,23.3,452.9,23.85Z"/><path d="M282.08,61c-.15-.09-.48-.18-.64-.4a.7.7,0,0,1,.14-.91,1.75,1.75,0,0,1,1.34-.71c.67,0,.95.46.64,1A1.77,1.77,0,0,1,282.08,61Z"/><path d="M391.05,61c-.15-.09-.49-.17-.65-.39a.72.72,0,0,1,.14-.91,1.76,1.76,0,0,1,1.34-.72c.67,0,1,.47.65,1A1.77,1.77,0,0,1,391.05,61Z"/><path d="M115.08,61a1.87,1.87,0,0,1-.63-.41c-.21-.28,0-.59.16-.85A1.79,1.79,0,0,1,116,59a.65.65,0,0,1,.67.86A1.89,1.89,0,0,1,115.08,61Z"/><path d="M185.56,59c.73,0,1,.44.62,1.08a1.48,1.48,0,0,1-1,.82.91.91,0,0,1-.94-.34.84.84,0,0,1,.09-1A1.65,1.65,0,0,1,185.56,59Z"/><path d="M244.52,59c.73,0,1,.41.65,1.06a1.27,1.27,0,0,1-1.49.82.72.72,0,0,1-.48-1.16A1.56,1.56,0,0,1,244.52,59Z"/><path d="M208.58,60.94a2.78,2.78,0,0,1-.64-.47c-.21-.28,0-.61.14-.86a1.4,1.4,0,0,1,1.35-.64c.56.06.77.43.58,1A1.44,1.44,0,0,1,208.58,60.94Z"/><path d="M434.14,59a.72.72,0,0,1,.72,1.1,1.22,1.22,0,0,1-1.55.79.66.66,0,0,1-.47-.84A1.45,1.45,0,0,1,434.14,59Z"/><path d="M192.83,54.39c.24-.25.45-.2.73,0C193.29,54.64,193.08,54.7,192.83,54.39Z"/><path d="M392.1,37.42a2.37,2.37,0,0,1-.3-1.31,6.79,6.79,0,0,0-.07-1.43c-.38-2-.79-4-1.2-6-.2-1-.46-2-.61-3-.09-.63,0-1.29,0-1.93a7.84,7.84,0,0,0-.26-1.69,20.55,20.55,0,0,1-.78-3.56,19.35,19.35,0,0,1-.12-5.21,1.44,1.44,0,0,0-.43-1.24,7.34,7.34,0,0,1-.84-1.07,2.09,2.09,0,0,0-1.19-1,17.69,17.69,0,0,1-3.79-2,2.63,2.63,0,0,1-.58-.53c-.55-.63-1.08-1.28-1.64-1.9a3.34,3.34,0,0,0-.73-.57,6.69,6.69,0,0,0-2.31-.36c-.15,0-.34.15-.51.24-.78.41-1.55.82-2.34,1.22a.81.81,0,0,1-.35.07,4.54,4.54,0,0,0-2.87,1.16,2.1,2.1,0,0,1-1.56.55,1.48,1.48,0,0,0-1.38.76,6.57,6.57,0,0,1-.88,1c-.43.42-.59.79-.39,1.11s.55.37,1.1.1a2.61,2.61,0,0,1,1.75-.21,2.81,2.81,0,0,0,1.81-.22,1.93,1.93,0,0,1,1.66,0c.72.3,1,.17,1.32-.51s.5-.82,1.3-.55a1.09,1.09,0,0,0,1.38-.42c.1-.14.18-.28.29-.41a1.3,1.3,0,0,1,1.85-.22,3,3,0,0,1,.56.56c.7.94,1.41,1.88,2.07,2.84a5.93,5.93,0,0,1,.54,1.17c.26.66.44,1.36.76,2a6.13,6.13,0,0,1,.55,1.61,5,5,0,0,0,.51,1.55,3.35,3.35,0,0,1,.38,1.51c0,.88.06,1.77.14,2.65a7.32,7.32,0,0,0,.63,2.27,3.18,3.18,0,0,1,.31,1.16c.08,1.6.1,3.2.16,4.81a8.24,8.24,0,0,0,.54,3.08,3.34,3.34,0,0,1,0,2.85,2,2,0,0,0,0,1.55,2.75,2.75,0,0,1-.09,2.16,7.1,7.1,0,0,0-.56,3.22,4.8,4.8,0,0,1,0,.93.79.79,0,0,1-1,.74,1.54,1.54,0,0,0-1.29.26,4.53,4.53,0,0,1-2.46.64,1.64,1.64,0,0,1-1.25-.44,1.49,1.49,0,0,0-1.53-.37,2.71,2.71,0,0,1-2.09-.19,1.7,1.7,0,0,0-1.52-.07.92.92,0,0,1-1-.08,8.49,8.49,0,0,1-1.05-.85.47.47,0,0,1,0-.76,2,2,0,0,1,.66-.41,4.51,4.51,0,0,1,1-.25,3.41,3.41,0,0,0,1.93-.86c.61-.54,1.22-1.08,1.85-1.59.24-.19.55-.29.8-.47a3.24,3.24,0,0,0,.91-.76,5.3,5.3,0,0,0,.63-1.51,2.68,2.68,0,0,1,.69-1.31,1.56,1.56,0,0,0,.57-1.12,3.15,3.15,0,0,1,.62-1.87c.3-.43.22-.69-.11-1.09a7.58,7.58,0,0,1-.6-.88,6.71,6.71,0,0,0-.51-.86c-.43-.51-.91-1-1.37-1.46a1.43,1.43,0,0,0-1.1-.45c-.95,0-1.91.06-2.86.11a1.24,1.24,0,0,0-.53.18,18.28,18.28,0,0,0-1.56,1c-.52.4-1,.38-1.5-.21a1.43,1.43,0,0,1-.25-1.66,10,10,0,0,1,1.83-2.55,1.61,1.61,0,0,1,1.9-.58,4.58,4.58,0,0,0,2.54-.08c.6-.16.78-.67.54-1.33s-.63-.82-1.23-.57c-.77.32-1.57.6-2.31,1a1.62,1.62,0,0,1-2-.58,1.43,1.43,0,0,1,.23-1.89l.26-.25L376.07,19a2.52,2.52,0,0,0,.41-.39,1.22,1.22,0,0,0-.11-1.74l-.61-.62c-.56-.53-1-.56-1.47,0a6.1,6.1,0,0,1-2,1.31c-.54.26-.85,0-.78-.56s.18-1,.25-1.48a3.38,3.38,0,0,0,0-1.7c-.18-.51-.65-.65-1-.23a5.45,5.45,0,0,0-.7,1.22c-.15.32-.18.71-.35,1-1,1.77-2.13,3.52-3.19,5.28a3.81,3.81,0,0,0-.31.56.8.8,0,0,0,.14.93,3,3,0,0,1,.61,3.14c-.17.61-.4.78-1,.73A.85.85,0,0,0,365,27a6.91,6.91,0,0,1-.36.78A2.54,2.54,0,0,1,363.35,29c-.9.4-1.6-.06-1.47-1,.2-1.4.44-2.78.72-4.17a5.7,5.7,0,0,1,.53-1.48,6.06,6.06,0,0,0,.6-2.12,3.81,3.81,0,0,1,.57-1.75,2.37,2.37,0,0,0,.26-2.2,5.3,5.3,0,0,1-.31-2.73,9.12,9.12,0,0,0-.71-3.85c0-.13-.15-.23-.29-.43a3.77,3.77,0,0,0-.59.5A3.06,3.06,0,0,0,362,11.5a3.44,3.44,0,0,1-.55,1.61c-.25.45-.41,1-.62,1.44a7.19,7.19,0,0,1-.39.9,3.3,3.3,0,0,0-.52,1.4,9.61,9.61,0,0,1-.63,3.07,6.36,6.36,0,0,0-.47,2.81,8,8,0,0,1-.43,2.82,5.66,5.66,0,0,0-.31,1.47C358,28,358,29,358,30c0,.38,0,.76,0,1.15a15.93,15.93,0,0,1-.19,2.06,5.11,5.11,0,0,0,0,1.91A13.92,13.92,0,0,1,358,37c0,.95-.09,1.9-.08,2.85a24.82,24.82,0,0,0,0,2.86,1.7,1.7,0,0,0,.36,1,2.55,2.55,0,0,1,.61,1.2,1.17,1.17,0,0,0,.82.92,1.89,1.89,0,0,1,1.23,1,3.46,3.46,0,0,0,.21.37,2.31,2.31,0,0,0,1.27-1.05,3.46,3.46,0,0,0,.4-1.72,4.12,4.12,0,0,1,.55-2,2.8,2.8,0,0,0,.1-2.69,6.32,6.32,0,0,1-.5-2,29.52,29.52,0,0,0-.42-3.27,6.63,6.63,0,0,1,.09-2.84,1.06,1.06,0,0,1,1-.9,3.32,3.32,0,0,0,1-.4c.45-.25.87-.58,1.33-.83A4.66,4.66,0,0,0,367.79,28a1.09,1.09,0,0,1,1.38-.45,1.39,1.39,0,0,1,1,1.29,2.8,2.8,0,0,1-.81,1.79c-.6.57-1.17,1.19-1.77,1.77a1.05,1.05,0,0,1-.52.36c-.84.09-1.26.7-1.71,1.29a1.45,1.45,0,0,0-.21,1.55c.1.27.24.53.32.8a5.89,5.89,0,0,1,.29,1.17,3,3,0,0,0,.72,1.9,12.52,12.52,0,0,1,1.05,1.26,2.51,2.51,0,0,1,.51.93,3.46,3.46,0,0,1-.69,3.16,2,2,0,0,0-.1,2.51c.35.46.69.92,1,1.39s.81.63,1.25.16a6.36,6.36,0,0,1,2.65-1.52,1.41,1.41,0,0,1,1.54.2c.39.34.6.3,1-.05.23-.19.46-.38.76-.3a4.44,4.44,0,0,1,2.26,1A3.48,3.48,0,0,0,379,49a2.23,2.23,0,0,1,1.48,1.7,1.75,1.75,0,0,0,1.17,1.34,4.09,4.09,0,0,1,1.08.68c.57.47.89.48,1.3-.12a2.48,2.48,0,0,1,1.43-1,2,2,0,0,0,1-.65,21.27,21.27,0,0,0,1.29-2.4,3.64,3.64,0,0,1,1-1.38c.61-.46,1.22-.93,1.86-1.35a2.76,2.76,0,0,0,1.22-1.53,2.37,2.37,0,0,1,.2-.46,3.35,3.35,0,0,0,.39-2,11,11,0,0,1,0-2.15A3.22,3.22,0,0,0,392.1,37.42Zm-16.35-5.85A10.13,10.13,0,0,1,375.8,30a.57.57,0,0,1,.78-.53,4.47,4.47,0,0,0,1.63,0,2.28,2.28,0,0,1,.77.11,3.53,3.53,0,0,1,2,2.82,3.18,3.18,0,0,1-.29.87c-.21.58-.47,1.15-.64,1.74a2.61,2.61,0,0,1-.52,1.07c-.62.73-1.22,1.47-1.84,2.2a1.63,1.63,0,0,1-.49.41.76.76,0,0,1-1.22-.5c-.15-.64-.24-1.31-.32-1.8.09-1.19.19-2.21.22-3.23C375.91,32.66,375.77,32.11,375.75,31.57Zm-5.11,3.06c0,.21,0,.42-.05.64,0,.92-.09,1.85-.14,2.77a3.86,3.86,0,0,1-.1.77c-.18.58-.64.78-1.1.39a6.36,6.36,0,0,1-1.67-1.93,3.65,3.65,0,0,1,.29-3.73,1.83,1.83,0,0,1,1.66-.82.86.86,0,0,1,.82.59c.14.43.24.86.36,1.3Zm-.74-8.34a1.28,1.28,0,0,1-1.25-1.06,1.12,1.12,0,0,1,.94-1.07,1.35,1.35,0,0,1,1.19,1.22A.84.84,0,0,1,369.9,26.29Zm1.53-5.52c-.19.61-.47,1.19-.72,1.78a.79.79,0,0,1-.19.22c-.31.31-.66.59-1.13.39s-.61-.63-.63-1.29a2.23,2.23,0,0,1,.33-.66,14.21,14.21,0,0,1,1.23-1.1A.58.58,0,0,1,371,20,.69.69,0,0,1,371.43,20.77Zm.1,12.1a2,2,0,0,1,0-.85.89.89,0,0,1,.61-.81l.4-.16a1.7,1.7,0,0,1,2.1.51,1.44,1.44,0,0,1,.37,1c0,.33,0,.66,0,1h0c-.05.59-.06,1.19-.14,1.78a3.68,3.68,0,0,1-.34,1.08.62.62,0,0,1-1,.25,2.32,2.32,0,0,1-1.09-1.28C372.09,34.55,371.8,33.71,371.53,32.87Z"/><path d="M98.73,33.58a4.48,4.48,0,0,1-.06-.64q-.11-.63-.24-1.26c-.08-.33-.2-.64-.26-1-.13-.75-.27-1.51-.35-2.27,0-.46,0-.94,0-1.41a5.33,5.33,0,0,0-.06-1.7,5.88,5.88,0,0,0-1.16-2c-.47-.52-.87-1.07-1.29-1.63a3,3,0,0,0-.74-.77,2.8,2.8,0,0,1-1-1.29l-.39-.92a3.75,3.75,0,0,0-3.93-2.13,22.58,22.58,0,0,1-3.94.2,9.09,9.09,0,0,0-4.78.64.83.83,0,0,1-.21.06,5.66,5.66,0,0,0-2.51,1,1.34,1.34,0,0,1-.46.18A6.84,6.84,0,0,0,74,21.27,1.83,1.83,0,0,1,73,22a2.4,2.4,0,0,0-.85.49,4.87,4.87,0,0,0-1.36,2.08,3.91,3.91,0,0,1-.3.57,4.55,4.55,0,0,0-.39,1c-.23,1.25-.42,2.5-.61,3.75,0,.32-.08.6-.43.76-.1,0-.17.27-.17.42,0,.43,0,.87,0,1.3,0,1.79,0,3.59,0,5.39,0,.22.06.59.18.63.47.17.47.57.55.93s.09.7.13,1.06A4,4,0,0,0,70.91,43c.56.52.72.56,1.37.15.12-.08.22-.19.34-.26a12.77,12.77,0,0,1,1.28-.77,1.57,1.57,0,0,0,.9-1,5.49,5.49,0,0,0,.25-1.32c0-1-.06-2.06-.1-3.08a2,2,0,0,0,0-.43,18.92,18.92,0,0,1,.1-4.93,4,4,0,0,1,.19-.69c.57.15.8.6,1.15.91.65.57.69.89.13,1.56a2.28,2.28,0,0,0-.5,1.24,1.45,1.45,0,0,0,1.44,1.69,3.43,3.43,0,0,0,2.11-.58,3.84,3.84,0,0,1,.81-.46,12,12,0,0,0,2.73-1.7c.61-.46,1.14-1,1.7-1.54.38-.34.75-.39,1-.17a.85.85,0,0,1,.18,1.1,2.49,2.49,0,0,1-.75.73,10.91,10.91,0,0,0-3.12,2.93A5.86,5.86,0,0,1,79.72,38c-1,.42-2,.67-3,1-.49.16-.66.5-.44.95a1.76,1.76,0,0,0,.54.64,2.36,2.36,0,0,0,1.58.34,10.92,10.92,0,0,1,1.14-.08c1.44,0,2.87.11,4.31.13a10.32,10.32,0,0,1,2.28.23,1.86,1.86,0,0,0,1,0A8,8,0,0,0,90,40.06c.67-.56.77-.84.43-1.67a1.26,1.26,0,0,1,0-1.3,1.58,1.58,0,0,0,.15-1.57,1.92,1.92,0,0,1,0-1.47c.23-.6.49-1.19.76-1.78a3.4,3.4,0,0,0,.14-2.84A10.22,10.22,0,0,0,90.78,28a26.44,26.44,0,0,0-1.48-2.2c-.22-.29-.55-.71-1-.46s-.26.71-.19,1.11a7.56,7.56,0,0,1,.18,1.41,1,1,0,0,1-.62,1.05c-.51.17-.79-.21-1.07-.54s-.75-1-1.14-1.48c-.65-.81-.52-1.52.44-2a2.6,2.6,0,0,0,1.41-1.43c.22-.56.5-.67,1.08-.52.35.08.68.24,1,.32a1.15,1.15,0,0,0,1.17-.51,1,1,0,0,0-.28-1.18c-.16-.14-.35-.25-.52-.38a3.31,3.31,0,0,1-.52-.38.67.67,0,0,1,.25-1.22,1.3,1.3,0,0,1,1.34.3A6.68,6.68,0,0,1,93,23.26a19.11,19.11,0,0,0,.46,2,14.76,14.76,0,0,1,.81,4.5c0,.42.12.84.16,1.27a13.54,13.54,0,0,1,0,1.56c0,.57-.16,1.13-.2,1.7-.1,1.41-.22,2.82-.23,4.22a8.6,8.6,0,0,1-1.09,3.68,1.36,1.36,0,0,1-1.25.82,6.42,6.42,0,0,0-1.06.14c-.61.13-.85.5-.79,1.17a1.06,1.06,0,0,0,1,1.08c.61,0,1.23,0,1.85,0,1.1-.07,2.19-.23,3.28-.25a1.46,1.46,0,0,0,1.49-1c.46-1.23.86-2.48,1.28-3.73a1.36,1.36,0,0,0,0-.21c.09-.71.18-1.42.26-2.13A6.48,6.48,0,0,0,99,37,17.14,17.14,0,0,0,98.73,33.58Zm-20.3-9.86c-.67.3-1.32.66-2,1a1.3,1.3,0,0,0-.39.31c-.16.21-.32.43-.16.72a.71.71,0,0,0,.71.39,4.24,4.24,0,0,1,.77-.12.7.7,0,0,1,.5.29c.06.09-.08.4-.21.46a9.56,9.56,0,0,0-1.9,1.51c-.48.4-.84.27-1-.34a7.15,7.15,0,0,1-.14-.91h0a1,1,0,0,1,0-.35,2.76,2.76,0,0,0-.41-2.11c-.43-.82-.22-1.29.63-1.62a1.86,1.86,0,0,0,.85-.62,2.13,2.13,0,0,1,.64-.55c.44-.24.9-.43,1.36-.64a.68.68,0,0,1,.74,0,1.78,1.78,0,0,1,.77,1.54C79.27,23.21,78.9,23.5,78.43,23.72Zm6.51,6.7a1.66,1.66,0,0,1-1.32.76.75.75,0,0,1-.77-1.1,1.93,1.93,0,0,1,1.35-1c.36-.07.49.23.67.49A.69.69,0,0,1,84.94,30.42Zm.49-9.26a.89.89,0,0,1-.81.51c-.23,0-.48,0-.71,0l-1.66.15s-.15,0-.27,0a.81.81,0,0,1-.69-.55.7.7,0,0,1,.34-.8,4.63,4.63,0,0,1,2.73-.73,1.57,1.57,0,0,1,.81.37A.9.9,0,0,1,85.43,21.16Z"/><path d="M426.48,39.55c-.26-.47-.6-.54-1-.19a7,7,0,0,0-.78.85,3.86,3.86,0,0,1-1.39,1.31,2.83,2.83,0,0,0-1.46,1.1,1,1,0,0,1-.25.25c-.58.49-1.16,1-1.77,1.45a3.14,3.14,0,0,0-1,1.42,3.46,3.46,0,0,1-.52.94,1.19,1.19,0,0,1-1.92,0,3.11,3.11,0,0,1-.27-3.19,22.63,22.63,0,0,1,1.29-1.9,2.54,2.54,0,0,1,.79-.71,7.24,7.24,0,0,0,2.38-2.15,4.38,4.38,0,0,1,2.22-1.62,4.25,4.25,0,0,0,1.66-1.22.64.64,0,0,0,.11-.85,1.43,1.43,0,0,0-.74-.32c-.13,0-.28.06-.42.07a1.09,1.09,0,0,1-1.33-1.2,3.77,3.77,0,0,1,.36-1.3,1.62,1.62,0,0,0-.11-1.57c-.09-.16-.22-.31-.33-.47a1.94,1.94,0,0,1,.38-2.85c.34-.3.68-.61,1-.94a.81.81,0,0,0,.13-1.12c-.6-.67-1-1.53-1.88-1.93a1.26,1.26,0,0,1-.19-2.25,3.19,3.19,0,0,0,.7-.72,2,2,0,0,1,1.29-.84,10.14,10.14,0,0,1,1.35-.15c.64,0,.91-.18,1-.8a6.54,6.54,0,0,0-.11-1.71c-.1-.51-.35-.61-.84-.4a1.56,1.56,0,0,1-1.25.06,1.29,1.29,0,0,0-1.29.22c-.29.21-.56.45-.83.68-.5.45-.87.4-1.22-.16-.06-.11-.11-.22-.16-.33a4.08,4.08,0,0,1,1-4.27c1.14-1,2.2-2.13,3.28-3.21a1.25,1.25,0,0,0,.31-.55,2,2,0,0,0-.72-2.36,3.94,3.94,0,0,1-1.49-2.21,7.3,7.3,0,0,0-1.23-2.34,3.52,3.52,0,0,1-.95-2h-1.64c0,.84,0,1.63,0,2.41s-.07,1.77-.17,2.65c-.13,1.08-.5,1.42-1.57,1.6a.74.74,0,0,1-.14,0c-.86,0-1.28.57-1.64,1.21a.88.88,0,0,0,.75,1.39c.31,0,.63,0,.93,0a1.83,1.83,0,0,1,.85.33,2.63,2.63,0,0,1,.24,3.74,4.28,4.28,0,0,1-.64.56,12.55,12.55,0,0,0-2.4,2.26,1.73,1.73,0,0,1-.4.41,15,15,0,0,1-2.49,1.92,1,1,0,0,0-.28.22,23.39,23.39,0,0,1-3.19,2.77,1.83,1.83,0,0,0-.55.56,2.09,2.09,0,0,1-2.31,1.08h-.14a1.48,1.48,0,0,0-1.44.76,3.66,3.66,0,0,1-.58.72,2,2,0,0,0-.71,1.72c0,.21-.09.43-.08.64a6.75,6.75,0,0,0,.09,1.56c.18.73.7.93,1.38.59a6.61,6.61,0,0,0,.86-.64,2.43,2.43,0,0,1,.7-.48,18.9,18.9,0,0,1,2.36-.58,1.73,1.73,0,0,0,1.18-.61,2.66,2.66,0,0,1,1.67-1,4.76,4.76,0,0,0,1.7-.88c1-.75,2.07-1.47,3.15-2.13A2.2,2.2,0,0,1,417,22.5a1.39,1.39,0,0,1,.89,2.1,4.77,4.77,0,0,1-2.76,2.47,20.58,20.58,0,0,0-2.4.94,2.59,2.59,0,0,0-.8.6,1.25,1.25,0,0,0-.24,1.28.58.58,0,0,0,1.05.25c.15-.16.22-.39.38-.52a1.3,1.3,0,0,1,.66-.37,1.12,1.12,0,0,1,1.16,1,1.66,1.66,0,0,1-.47,1.23c-.32.39-.62.79-.9,1.21-.46.69-.92,1.39-1.35,2.12a7,7,0,0,0-.67,1.41c-.21.68,0,1,.68,1.28a1.3,1.3,0,0,0,1.29-.19c.51-.36,1-.72,1.54-1.06a1,1,0,0,1,1.08,0,.91.91,0,0,1,.38.95,3.15,3.15,0,0,1-.09.42,6.67,6.67,0,0,1-3.07,3.73,2.64,2.64,0,0,0-.92.87,2.87,2.87,0,0,1-.69.82,2.07,2.07,0,0,0-.79,1.47,1.88,1.88,0,0,1-.87,1.55.74.74,0,0,0-.29,1.12c.4.55.88,1,1.38,1.63.24-.3.38-.49.54-.67.45-.49.79-.47,1.13.1a3.88,3.88,0,0,1,.28.58c.23.6.41,1.23.69,1.81.5,1,1.05,1.92,1.59,2.88a1.42,1.42,0,0,0,.29.31,1.16,1.16,0,0,0,1.9-.55,4,4,0,0,0,.08-.7,1.07,1.07,0,0,1,1.42-1.08,1.77,1.77,0,0,1,1.29.94,5.73,5.73,0,0,1,.37,1.08c.22.79.35.89,1.14.85a6.91,6.91,0,0,1,.79,0,.56.56,0,0,0,.65-.44,4.42,4.42,0,0,1,.15-.48c.19-.57.36-.69,1-.71.8,0,1-.18,1.15-1s.14-1.29.3-1.91a10.1,10.1,0,0,0,.14-4.34,5.59,5.59,0,0,1,.41-3.84,1.48,1.48,0,0,0,.1-.27A2.5,2.5,0,0,0,426.48,39.55ZM418,19.06a1.43,1.43,0,0,1-1,1,4.9,4.9,0,0,1-.55.13c-.76.14-1-.12-1-1.09a2.23,2.23,0,0,1,.43-1.22,1.3,1.3,0,0,1,1.49-.55A1.49,1.49,0,0,1,418,19.06Zm5.58,30.18a1.49,1.49,0,0,1-1.33,1.15c-.7,0-1.06-.58-1.37-1.11a2,2,0,0,1-.23-1.37,3.75,3.75,0,0,1,1.25-2.49,4.53,4.53,0,0,0,.66-.84.81.81,0,0,1,1.49.1,6.83,6.83,0,0,1,.36,1.2C424.16,47,423.93,48.13,423.6,49.24Z"/><path d="M351.36,29.39a8.12,8.12,0,0,1-.45-.74,2,2,0,0,0-2-1.19,8.82,8.82,0,0,0-1.76.27c-1.23.26-1.87-.33-1.5-1.49a8,8,0,0,0,.36-2.83c0-.45,0-.91,0-1.37a6,6,0,0,1,.45-2.74,1.07,1.07,0,0,0-.06-1,11.77,11.77,0,0,0-.89-1.21,1,1,0,0,0-1.31-.25,4.35,4.35,0,0,0-.8.48c-.66.51-1.31,1-1.94,1.58a.63.63,0,0,0-.22.53c.05.16.29.29.48.36a1,1,0,0,0,.48-.05c.47-.1.93-.25,1.4-.31.74-.11,1.18.3,1.08,1a17.06,17.06,0,0,1-.37,1.89c-.11.45-.32.56-.79.57a2.08,2.08,0,0,1-1.16-.51,1.54,1.54,0,0,0-2.19.45c-.24.4-.22.6.21.8a2.45,2.45,0,0,1,1.3,1.55,3.49,3.49,0,0,0,1,1.76.86.86,0,0,1,.21,1,1.32,1.32,0,0,1-1.22.61.82.82,0,0,1-.79-.63,3.41,3.41,0,0,1-.09-.85,3,3,0,0,0-.68-2.12,1.68,1.68,0,0,1-.4-.9,1,1,0,0,0-.52-.8,1.47,1.47,0,0,1-.68-1.67c.08-.43.11-.86.17-1.28a6.18,6.18,0,0,1,.18-1.06,1.81,1.81,0,0,1,1.18-1,1,1,0,0,0,.54-1.41A1.14,1.14,0,0,0,339,16.3c-.5.17-1,.36-1.48.57a2.28,2.28,0,0,1-1.88,0,3.19,3.19,0,0,0-1-.16.53.53,0,0,0-.56.46,2,2,0,0,0,0,.64,1.16,1.16,0,0,1-1.64,1.33c-.23-.07-.45-.15-.69-.2-.69-.14-1.08.19-1,.88a6.24,6.24,0,0,0,.34,1.09,9.73,9.73,0,0,1,.43,1.21,15.05,15.05,0,0,1,.21,3.29,16.71,16.71,0,0,0,.14,4.35,2.5,2.5,0,0,1,0,1.12.62.62,0,0,1-1.06.32,1.46,1.46,0,0,1-.41-.57,2.65,2.65,0,0,1-.16-1.69,4.24,4.24,0,0,0,.14-1.91,3.5,3.5,0,0,1,.12-1.05,2.48,2.48,0,0,0,.1-.84c-.2-.91-.45-1.8-.73-2.69a2.14,2.14,0,0,0-1.77-1.5.79.79,0,0,0-1,1,1.17,1.17,0,0,0,.14.41,5.1,5.1,0,0,1,.67,2.67c0,.84.17,1.66.24,2.5.1,1.26.18,2.52.28,3.78a1.32,1.32,0,0,1-.4,1.25c-.66.49-1.34,1.08-2.25.44l-.06,0c-.51-.18-.86,0-.95.53a7,7,0,0,0,0,.79,2.64,2.64,0,0,1-.09.85,3.49,3.49,0,0,0,.52,3.39.89.89,0,0,0,1.6.11,1.69,1.69,0,0,0,.35-1.87l-.11-.27a2.1,2.1,0,0,1,.42-2.08A1.36,1.36,0,0,1,329,34a1.42,1.42,0,0,0,1.27-.36,4,4,0,0,1,1.72-.85c.51-.16,1-.32,1.51-.46.32-.09.66-.12,1-.18l1.26-.24,1.46-.36a8.5,8.5,0,0,1,1,.29c.31.15.34.37.14.65a1.3,1.3,0,0,1-.35.35c-.59.36-1.2.69-1.78,1.07a16,16,0,0,0-1.58,1.11.67.67,0,0,0-.17.62,1.2,1.2,0,0,0,.61.42.71.71,0,0,0,.42-.05c.19,0,.37-.11.55-.15.54-.12.85.1.83.66a3.26,3.26,0,0,1-.25.95c-.18.49-.42,1-.57,1.46a15.26,15.26,0,0,1-1.14,3,4.62,4.62,0,0,0-.29.73c-.12.34,0,.49.34.57a2.47,2.47,0,0,0,1.81-.16,5.45,5.45,0,0,1,.87-.35c.73-.22,1.09,0,1.25.73a3,3,0,0,1,.05.85,14.68,14.68,0,0,1-.94,3.37,1.53,1.53,0,0,1-.76.91c-.34.19-.67.38-1,.6a1.11,1.11,0,0,0-.43.46.85.85,0,0,0,.05.65,1,1,0,0,0,.62.22.59.59,0,0,0,.38-.18,1.33,1.33,0,0,1,1.41-.29,1.22,1.22,0,0,0,1.47-.59l.62-.88a2.75,2.75,0,0,0,.53-1.54c0-.43.08-.85.12-1.28s.13-1.09.16-1.64,0-.87,0-1.29a2.7,2.7,0,0,1,.31-1c.36-.61,1-.76,1.85-.55l1.95.49a1.58,1.58,0,0,0,1.62-.51c.5-.53.45-1-.16-1.35a6.66,6.66,0,0,0-1-.51,3.78,3.78,0,0,0-3.94.09.89.89,0,0,1-1.37-.2,10.16,10.16,0,0,0-1.57-1.77,1,1,0,0,1-.22-1.36,2.77,2.77,0,0,1,1.09-1.11,5.28,5.28,0,0,0,.84-.55,1,1,0,0,0-.23-1.7c-.3-.16-.62-.28-.91-.44-.48-.26-.52-.63-.14-1a1.69,1.69,0,0,1,1.54-.42,2.82,2.82,0,0,0,2.07-.58,3.72,3.72,0,0,1,2.39-.56c.54,0,.74.44.48.9a2.56,2.56,0,0,1-1.11,1.1,2.92,2.92,0,0,0-.61.37c-.17.14-.31.37-.13.56a.86.86,0,0,0,.54.26.78.78,0,0,0,.53-.19,3.84,3.84,0,0,1,2.08-1,1.33,1.33,0,0,0,.44-.23,1.89,1.89,0,0,1,1.89-.32,1.55,1.55,0,0,0,1.82-.64A1,1,0,0,0,351.36,29.39ZM338.78,40.07c0,.4-.32.78-.64.72a.69.69,0,0,1-.61-.75c0-.47.27-.8.63-.79A.73.73,0,0,1,338.78,40.07Zm0-12.24a.6.6,0,0,1-.58.46.61.61,0,0,1-.56-.56c-.05-.22-.07-.46-.11-.68a2.3,2.3,0,0,0-1.61-2.42,1.53,1.53,0,0,1-1.22-1.39l0-.07c-.16-.41-.33-.83-.5-1.24,0,0,0,0,0-.06a1.52,1.52,0,0,1-.07-1.56,1.68,1.68,0,0,1,1.69-.22,1.34,1.34,0,0,1,.71,1.3,2.41,2.41,0,0,1-.07.35,2.25,2.25,0,0,0,.77,1.91,8.29,8.29,0,0,1,1.47,1.55A2.93,2.93,0,0,1,338.78,27.83Z"/><path d="M457.89,43.24a3.79,3.79,0,0,1-.7-.51,17.39,17.39,0,0,0-1.88-1.55,2.76,2.76,0,0,1-.33-4,1.25,1.25,0,0,0,.29-1.75,2.46,2.46,0,0,1,.13-2.35,2.19,2.19,0,0,0,.27-1.76,2.89,2.89,0,0,1,.67-2.92,1.4,1.4,0,0,0-.16-2.14,1.45,1.45,0,0,0-2.22.41,8.61,8.61,0,0,1-3.38,2.81,1,1,0,0,1-1.42-.26,3.81,3.81,0,0,1-.55-.91c-.36-.82-.77-1.55-1.82-1.56a.66.66,0,0,1-.51-.31,1.48,1.48,0,0,1,.05-1.68c.5-.72.88-1.52,1.35-2.27a4.53,4.53,0,0,1,.73-.95,2.87,2.87,0,0,0,.89-1.37c.15-.55.26-1.12.37-1.68a3.11,3.11,0,0,1,.47-1.48,10,10,0,0,0,.69-.92,1,1,0,0,1,.91-.46c.34,0,.67,0,1,0,.73,0,1-.35.89-1.07a5.26,5.26,0,0,0-.33-1.09c-.16-.43-.34-.85-.53-1.26s-.45-1-.7-1.48c-.15-.3-.33-.58-.49-.87a8,8,0,0,0-2.51-2.78,4.27,4.27,0,0,0-1.14,2.48,2.63,2.63,0,0,1-.47,1.48,4,4,0,0,0-.57,1.69,3.49,3.49,0,0,1-.58,1.6,2.15,2.15,0,0,0-.42,1,6.29,6.29,0,0,1-.61,2.56c-.13.25-.19.54-.3.8l-1.2,2.84c-.05.11-.13.2-.19.31-.19.4-.39.81-.57,1.22a17,17,0,0,1-.77,1.68,2.31,2.31,0,0,0-.42,1.19,2.93,2.93,0,0,1-.54,1.82,4.37,4.37,0,0,0-.45.89c-.19.38-.35.78-.58,1.15a2.78,2.78,0,0,0-.45,1.19,3.38,3.38,0,0,1-.34,1c-.19.44-.43.85-.63,1.29A11.28,11.28,0,0,1,437,36.5c-.32.35-.67.69-1,1.07a.74.74,0,0,0,.32,1.27,6.61,6.61,0,0,0,1.08.39c.62.17.9,0,1.26-.53a3.45,3.45,0,0,1,.51-.68,18.14,18.14,0,0,1,1.42-1.21,5.63,5.63,0,0,0,2-2.89,10.24,10.24,0,0,1,.57-1.15c.21-.4.42-.8.6-1.21a15.43,15.43,0,0,0,.6-1.46,7.09,7.09,0,0,0,.21-1c.07-.38.07-.77.17-1.13a1.24,1.24,0,0,1,1.09-.91.52.52,0,0,1,.68.37,6.84,6.84,0,0,1,.26,1,6.06,6.06,0,0,0,.65,1.89,4,4,0,0,1,.45,1.41,16.22,16.22,0,0,1-.31,3.93,6.25,6.25,0,0,0,0,2.2,15.4,15.4,0,0,1,.34,2.33,22,22,0,0,1-.63,3.94c-.05.43-.19.84-.27,1.26a4.08,4.08,0,0,1-.65,2.09,1.14,1.14,0,0,0,0,1.23c.3.6.6,1.2.92,1.79s.67.62,1,0a2.65,2.65,0,0,1,1.07-1,17.71,17.71,0,0,0,2.78-1.49,2,2,0,0,1,.74-.26,2,2,0,0,0,1.13-.58,2.31,2.31,0,0,1,2.22-.69,1.24,1.24,0,0,0,1.25-.37,5.78,5.78,0,0,0,.87-1.39A1,1,0,0,0,457.89,43.24Zm-8.39-11c0-.26.18-.63.37-.71.81-.33,1.66-.58,2.29-.78.93,0,1.5.69,1.3,1.38a3.41,3.41,0,0,1-1.7,2.11,1.32,1.32,0,0,1-1.72-.42A2.07,2.07,0,0,1,449.5,32.25Zm2.67,13.5a1,1,0,0,1-1.54-.61,6.29,6.29,0,0,1-.19-1,1.73,1.73,0,0,1,.57-1.35,9.6,9.6,0,0,0,.9-1.29c.23-.36.47-.71.95-.63a1.13,1.13,0,0,1,.9.84A3.62,3.62,0,0,1,452.17,45.75Z"/><path d="M475.7,43.33c.26-.51.51-1,.79-1.52a1,1,0,0,0,0-1c-.26-.46-.52-.92-.8-1.36a2.83,2.83,0,0,0-4.94,0,1.67,1.67,0,0,1-.91.76,1.2,1.2,0,0,1-1.73-.95,2,2,0,0,1,.84-2.08,16.33,16.33,0,0,1,1.76-1.23,3.55,3.55,0,0,0,1.82-2.84,4.34,4.34,0,0,1,.32-1.39,21.87,21.87,0,0,1,1.4-2.5c.54-.84.55-1.14-.08-1.89s-1.16-1.4-1.7-2.12a.77.77,0,0,0-.81-.33,2.65,2.65,0,0,0-2.19,1.25c-.41.76-1.22,1-1.86,0a9,9,0,0,0-.69-1,.78.78,0,0,0-1-.31.72.72,0,0,0-.34.87,21.89,21.89,0,0,0,.8,3,3.93,3.93,0,0,1,0,3.38,4.82,4.82,0,0,0-.5,2.64,5.12,5.12,0,0,1,.06.78c0,1.12-.12,2.25-.09,3.37a4.8,4.8,0,0,1-.32,2.1,3.12,3.12,0,0,0-.07,2.17,4.4,4.4,0,0,1,0,3,2.21,2.21,0,0,0-.11,1.19,5.65,5.65,0,0,1,0,2.49,1.67,1.67,0,0,0,0,1.26,6.55,6.55,0,0,1,.61,3.35,4.18,4.18,0,0,0,.3,1.23c.17.54.38,1.07.56,1.61.07.21.09.43.17.62a.63.63,0,0,0,1.05.29,1.61,1.61,0,0,0,.55-.8,12.55,12.55,0,0,0,.12-1.84,4.17,4.17,0,0,1,.49-2.55,4.25,4.25,0,0,0,.75-2.14,1.83,1.83,0,0,1,2.65-1.69c.36.12.72.22,1.09.32a1.57,1.57,0,0,0,1.22-.56,11.17,11.17,0,0,0,.83-1.09c.41-.58.61-1-.27-1.7a1.11,1.11,0,0,1-.3-1.63C475.36,44.07,475.52,43.69,475.7,43.33Zm-6.55-14.86a1.24,1.24,0,0,1,1-.77,1,1,0,0,1,1.21,1,2.3,2.3,0,0,1-.19,1c-.29.6-.65,1.16-1,1.74a1.09,1.09,0,0,1-.13.17c-.41.45-.82.42-1-.14a10.76,10.76,0,0,1-.35-1.41A13.87,13.87,0,0,1,469.15,28.47Zm3.06,15.39a16.46,16.46,0,0,1-1.64,1.7,1,1,0,0,1-1.72-.51,2,2,0,0,1,.67-2.43c.31-.27.59-.57.89-.84a5,5,0,0,1,.67-.54,1.07,1.07,0,0,1,1.21-.13,1.24,1.24,0,0,1,.55,1.1A2.64,2.64,0,0,1,472.21,43.86Z"/><path d="M233.08,26.34a7.87,7.87,0,0,1-1.2-.15,3.27,3.27,0,0,0-1.7,0,3.78,3.78,0,0,1-.56.13.52.52,0,0,1-.58-.73,2.06,2.06,0,0,1,.52-.67c.43-.41.91-.77,1.34-1.18a1.29,1.29,0,0,0-.15-2.1,5.94,5.94,0,0,0-.72-.47,1.49,1.49,0,0,1-.74-1.52c0-.16.06-.33.08-.49a1.62,1.62,0,0,0-1.26-1.83.74.74,0,0,0-1,.75,6.13,6.13,0,0,0,.09.85,11,11,0,0,1,.17,1.49,2.91,2.91,0,0,1-1.4,2.67c-.55.32-1.12.64-1.66,1a5.57,5.57,0,0,0-1,.77.64.64,0,0,0,.07,1,2.31,2.31,0,0,0,1.5.61,5,5,0,0,1,.78.07.85.85,0,0,1,.62,1.31,1.84,1.84,0,0,1-.63.67c-.66.38-1.35.71-2,1.05s-1.51.72-2.26,1.1a1.21,1.21,0,0,0-.71,1,1.3,1.3,0,0,0,1.73,1.27,4.75,4.75,0,0,0,1-.44c.6-.3,1.17-.64,1.79-.91a.78.78,0,0,1,1,.26.89.89,0,0,1-.07,1.07,2.66,2.66,0,0,1-.55.56c-.81.56-1.61,1.12-2.46,1.62a4.45,4.45,0,0,1-1.23.32c-.23.06-.47.06-.71.11a.79.79,0,0,0-.73.68,1,1,0,0,0,.46,1,3.5,3.5,0,0,0,.71.32c.73.29.86.65.47,1.33-.1.16-.24.3-.35.45-.39.52-.8,1-1.16,1.56a5.41,5.41,0,0,1-2.42,2.26c-.74.3-.79,1-.23,1.57a1.43,1.43,0,0,0,2.06-.12,16.66,16.66,0,0,0,3-3.74c.68-1.15,1.44-2.26,2.17-3.38a1.7,1.7,0,0,1,.33-.38q1.05-1,2.13-1.92a1.58,1.58,0,0,1,.37-.2c0,.46,0,.47-.24.74a4.34,4.34,0,0,0-1,3.14,2.33,2.33,0,0,1-.46,1.62c-.71,1-1.44,2-2.15,2.95a8.13,8.13,0,0,0-.85,1.41c-.31.74.1,1.28.9,1.28.29,0,.57-.05.86-.07.5,0,1-.08,1.49-.08s1.15.08,1.72.08a1.84,1.84,0,0,0,1.79-1.1,3.73,3.73,0,0,0,.33-1,23.36,23.36,0,0,0,.23-2.35,7.44,7.44,0,0,0-.36-3.53,1.72,1.72,0,0,1,.22-1.84c.12-.17.27-.33.38-.51.39-.66.79-1.32,1.14-2A2.18,2.18,0,0,0,232,32a2.21,2.21,0,0,1,.17-1.67c.27-.51.51-1,.82-1.52a4.49,4.49,0,0,0,.65-1.73C233.76,26.53,233.63,26.39,233.08,26.34ZM228,43a.43.43,0,0,1-.59.25.44.44,0,0,1-.21-.6.78.78,0,0,1,.14-.32c.15-.12.39-.32.5-.28s.25.33.35.47C228.08,42.76,228,42.9,228,43Z"/><path d="M248.13,41.32a2.37,2.37,0,0,0-1.54-1.48,23.3,23.3,0,0,1-4.87-2.09,1.49,1.49,0,0,1-.82-1.4c0-.38,0-.76,0-1.15,0-1.24-.71-2.61-1.93-2.76a.93.93,0,0,1-.22-.13,1.33,1.33,0,0,1,.59-1.46c.61-.39,1.19-.8,1.79-1.2A16,16,0,0,1,243.83,28a7.38,7.38,0,0,0,1.11-.66c.82-.47.82-1.29-.08-1.87a2.09,2.09,0,0,0-2.18,0,9.7,9.7,0,0,0-2.33,1.9,4.61,4.61,0,0,1-1,.72c-.41.22-.78-.06-.72-.53a5.43,5.43,0,0,1,.24-.75c.28-1,.62-2,.83-3s.4-2.35.59-3.53c.06-.42.14-.85.16-1.28a1.2,1.2,0,0,0-.65-1.25,1.25,1.25,0,0,0-1.46.29,4.49,4.49,0,0,0-1.23,1.83c-.19.51-.11.66.39.88s.72.44.64,1a8.84,8.84,0,0,1-.31,1.33c-.32,1.14-.66,2.29-1,3.43-.22.76-.42,1.52-.65,2.28-.15.48-.33.95-.5,1.42-.39,1.1-.77,2.21-1.18,3.3a4.64,4.64,0,0,1-.38.69,3.91,3.91,0,0,0-.37.7,1.42,1.42,0,0,0,.86,2,3.25,3.25,0,0,1,.9.43c.53.38,1,.8,1.53,1.2a1.16,1.16,0,0,1,.32,1.73,7.42,7.42,0,0,1-.89,1.12c-.86.87-1.75,1.71-2.62,2.56a.84.84,0,0,0-.24.26,1.08,1.08,0,0,0-.12.59.43.43,0,0,0,.6.23,4.64,4.64,0,0,0,1.13-.43,18.31,18.31,0,0,0,3.63-2.68c.65-.71,1.08-.71,1.89-.17l.23.17A15.46,15.46,0,0,0,245.74,44a1.89,1.89,0,0,0,1.94-.59A2,2,0,0,0,248.13,41.32Zm-9.49-5.74a1,1,0,0,1-1.09.63l-.14,0a1.26,1.26,0,0,1-.94-2.19c.21-.26.37-.56.59-.81a2,2,0,0,1,.61-.48c.57-.25.83-.08.93.54s.15.94.23,1.45A5.54,5.54,0,0,1,238.64,35.58Z"/><path d="M276.67,33.71a.69.69,0,0,0,.22-1.06c-.17-.31-.39-.6-.59-.9a2.59,2.59,0,0,1-.38-2.32c.18-.52.33-1.05.48-1.57a1.58,1.58,0,0,0,.09-.57c0-.33-.24-.48-.54-.35a4.4,4.4,0,0,0-1,.59,7.74,7.74,0,0,1-2.22,1.17,5.52,5.52,0,0,0-1.14.57,1,1,0,0,1-1,.16,2.28,2.28,0,0,0-2.08.07,3.77,3.77,0,0,1-2.32.22.89.89,0,0,0-1,.31.87.87,0,0,0,.14,1.06,3.54,3.54,0,0,1,.66,3,9.44,9.44,0,0,0-.27,1.26,6.32,6.32,0,0,1-.89,2.56c-.62,1.13-1.22,2.27-1.79,3.43a3.63,3.63,0,0,1-1,1.3,3.27,3.27,0,0,0-.47.44.7.7,0,0,0,.12,1.16,3.61,3.61,0,0,0,.86.35c.76.21,1.05,0,1.24-.74a1.7,1.7,0,0,1,.28-.72c.41-.46.9-.85,1.34-1.28a8.73,8.73,0,0,0,.8-.81,6,6,0,0,0,.54-.84,1.1,1.1,0,0,1,1.3-.52,10.92,10.92,0,0,1,1.51.44c.47.18.82.18,1.13-.26a3.45,3.45,0,0,1,2.24-1.17.75.75,0,0,1,.94.66,5.17,5.17,0,0,1,0,.79v2.08h-.05c0,.33,0,.67,0,1a27.89,27.89,0,0,0,.37,4.28,1.3,1.3,0,0,0,.3.64.87.87,0,0,0,1,.28.7.7,0,0,0,.5-.78,10.44,10.44,0,0,0-.19-1.35,2.39,2.39,0,0,1,.63-2.5,1.48,1.48,0,0,0,.41-.88,7.62,7.62,0,0,0,0-1.72c-.15-1.34-.36-2.69-.55-4-.08-.61-.11-1.24-.22-1.85A1.54,1.54,0,0,1,276.67,33.71Zm-3.28-1.24a5.3,5.3,0,0,1-1,1c-.31.28-.67.52-1,.8l.33.61a1.3,1.3,0,0,1-.54,1.84,3.74,3.74,0,0,1-.66.25,11.34,11.34,0,0,0-1.18.51,2,2,0,0,1-1.18.19.59.59,0,0,1-.57-.69,1.84,1.84,0,0,1,1.56-1.79,5.83,5.83,0,0,0,1.42-.43c.45-.23.42-.54,0-.77a2.69,2.69,0,0,0-.61-.19c-.28-.07-.57-.1-.85-.17A1.44,1.44,0,0,1,268,31.89a.9.9,0,0,1,.59-.67,9.18,9.18,0,0,1,.89-.28,2,2,0,0,0,.68-.19c1-.78,1.91-.15,2.81.22A1,1,0,0,1,273.39,32.47Z"/><path d="M285.63,17.07a.64.64,0,0,0-.82-.26,11.51,11.51,0,0,0-1.82.63,2.56,2.56,0,0,1-1.35.4,9,9,0,0,0-2.92.24,8.35,8.35,0,0,0-1.51.38,5.26,5.26,0,0,1-3,.26c-.46-.07-.94-.09-1.41-.16a2,2,0,0,1-.81-.23,3.64,3.64,0,0,0-2.09-.63,1,1,0,0,1-.89-.51,3.07,3.07,0,0,0-.26-.43c-.31-.43-.67-.59-1-.47s-.37.59-.4.82c.05,1.19-.44,1.75-1.49,1.83a5.78,5.78,0,0,1-.93,0,3.88,3.88,0,0,0-1.94.43,9.09,9.09,0,0,1-1.57.43,5.29,5.29,0,0,1-.78.13,11.57,11.57,0,0,1-3.85,0,1.3,1.3,0,0,0-1.49.85c-.24.52-.07,1,.52,1.57.42.38.68.41,1.22.05a2.48,2.48,0,0,1,1.56-.43c.43,0,.86,0,1.29,0a4.31,4.31,0,0,0,2-.39,4.43,4.43,0,0,1,1-.23c.53-.1,1.08-.15,1.61-.28,1-.23,1.54.06,1.77,1a2.36,2.36,0,0,1,0,1.12,11.53,11.53,0,0,1-.65,1.59,1.22,1.22,0,0,0,1,1.87,5.4,5.4,0,0,1,1.86.5,2.38,2.38,0,0,0,1.87,0,4.78,4.78,0,0,0,2-1.57,1.81,1.81,0,0,0-.23-2.66c-.54-.38-1.11-.74-1.66-1.12-.23-.16-.51-.33-.41-.68a.64.64,0,0,1,.72-.47c.4,0,.81,0,1.21.05a27.82,27.82,0,0,0,4.08.21,9.76,9.76,0,0,1,1.87,0,4.9,4.9,0,0,0,2.7-.45,4,4,0,0,1,2-.47,1.63,1.63,0,0,0,1.28-.54c.4-.41.83-.79,1.25-1.18.1-.1.21-.2.3-.31A.87.87,0,0,0,285.63,17.07Zm-15.25,6.42a1.08,1.08,0,0,1,.32,1.18.81.81,0,0,1-.91.55,3.41,3.41,0,0,1-1.3-.28,1,1,0,0,1-.26-.19,1.14,1.14,0,0,1-.26-.91,2.7,2.7,0,0,1,0-.28c.17-1,.75-1.46,1.68-.69Z"/><path d="M347.77,72.43c-.16,0-.33-.05-.49-.09A1.94,1.94,0,0,1,345.74,71a11.06,11.06,0,0,1-.36-1.89,4.83,4.83,0,0,1,.71-3.36,1.14,1.14,0,0,0,.21-.59,7.4,7.4,0,0,1,.48-2.6,19.85,19.85,0,0,1,.77-2.07,6,6,0,0,0,.24-.67.78.78,0,0,0-.64-1A3,3,0,0,0,344.34,60c-.27.31-.24.52.09.79s.39.28.58.42a.8.8,0,0,1,.27.91.74.74,0,0,1-.64.59,6.81,6.81,0,0,1-.78,0l0-.11a5,5,0,0,0-1.17.25,5.58,5.58,0,0,0-2.56,2.82,8.68,8.68,0,0,0-.45,2.59,2.62,2.62,0,0,0,.09.92c.17.85.68,1.08,1.56.68a2.09,2.09,0,0,0,.54-.45,7.53,7.53,0,0,1,.57-.56.68.68,0,0,1,1.15.31c.17.39.25.82.4,1.23a4.54,4.54,0,0,0,.5,1.17,19.69,19.69,0,0,0,1.69,2,1.28,1.28,0,0,0,2-.09C348.49,72.94,348.35,72.58,347.77,72.43Zm-3.93-6.3a7.45,7.45,0,0,1-1.16.94.43.43,0,0,1-.67-.3,1.15,1.15,0,0,1,0-.69,7.9,7.9,0,0,1,.77-1.2.69.69,0,0,1,.85-.22c.33.13.42.43.48.85A1.82,1.82,0,0,1,343.84,66.13Z"/><path d="M193.61,63.35c-.21.12-.39.28-.6.4a1,1,0,0,1-1.42-.14c-.69-.61-1-.58-1.73,0-.47.4-1,.73-1.49,1.1a4.58,4.58,0,0,0-.72.67c-.19.23-.08.46.15.6a1.91,1.91,0,0,0,.47.18A.86.86,0,0,1,189,67c0,.36.09.71.14,1.19s-.14,1.21-.3,1.86-.47,1.35-.69,2A8.09,8.09,0,0,1,187,74.52a13.21,13.21,0,0,0-.87,1.56.82.82,0,0,0-.15.4c0,.22,0,.51.2.62a.67.67,0,0,0,.63,0,3.17,3.17,0,0,0,.93-1c.75-1.49,1.45-3,2.13-4.54a2.06,2.06,0,0,1,1-1.14c.5-.22,1-.42,1.5-.69a7.59,7.59,0,0,0,1.92-1.23,6.05,6.05,0,0,0,1.45-4C195.83,63.25,194.69,62.72,193.61,63.35Zm-2.27,5.14c-.52,0-.69-.22-.58-.72a3.54,3.54,0,0,1,1.11-1.8.73.73,0,0,1,.91-.19c.21.13.3.43.37.53A2.21,2.21,0,0,1,191.34,68.49Z"/><path d="M444,63.69a2,2,0,0,0-2.1-.77l-1.06.14v0h-.5c-.81-.06-1.07-.48-.85-1.26a12.17,12.17,0,0,0,.3-1.33,3.86,3.86,0,0,1,.78-2,1.34,1.34,0,0,0,.24-.44c.24-.65,0-1.07-.75-1.09a1.56,1.56,0,0,0-1,.32q-.54.41-1.11.78c-.55.35-1.11.67-1.64,1a.47.47,0,0,0-.09.83.88.88,0,0,0,.43.24c.32.06.66.08,1,.12s.53.19.5.55c0,.52-.08,1.05-.16,1.56a26.29,26.29,0,0,0-.63,4.24,5.14,5.14,0,0,1-.07.78,3.39,3.39,0,0,1-1.05,2.14,1.18,1.18,0,0,0-.33.47c-.06.18-.1.48,0,.58a1.17,1.17,0,0,0,.68.27,1,1,0,0,0,.51-.23c.67-.42,1.34-.84,2-1.27a25.58,25.58,0,0,0,3.79-3.17A15.26,15.26,0,0,0,444,64.8.82.82,0,0,0,444,63.69Zm-2.72,2.22c-.47.45-1,.87-1.46,1.28s-.7.15-.76-.31a5.59,5.59,0,0,1,0-1,.94.94,0,0,1,.82-1,8,8,0,0,1,.79-.15c.46,0,.76,0,.92.37S441.47,65.7,441.25,65.91Z"/><path d="M179.67,66.45c-.29.22-.56.46-.85.66-.48.34-.78.27-1-.28a5.13,5.13,0,0,1-.33-1.16,6,6,0,0,1,.06-2.27c.17-.84-.18-1.17-1-1.09-.53,0-1.06,0-1.58.1a3.91,3.91,0,0,0-3.17,1.93c-.7,1.27-.93,2.71-1.55,4a.57.57,0,0,0,0,.14,1.39,1.39,0,0,0,.57,1.44,1.23,1.23,0,0,0,1.41-.17,5.14,5.14,0,0,0,.41-.4c.5-.54,1-1.1,1.5-1.64s1.16-.57,1.55.26c.16.34.3.7.49,1a1.23,1.23,0,0,0,1.91.35c.55-.43,1.13-.81,1.67-1.24a2.37,2.37,0,0,0,1-1.86C180.13,66.15,180,66.17,179.67,66.45Zm-4.87-1.61c-.44.52-1,1-1.43,1.46,0,0-.09,0-.21,0s-.11-.37,0-.51a13,13,0,0,1,.87-1.54.45.45,0,0,1,.7-.08A.51.51,0,0,1,174.8,64.84Z"/><path d="M462.41,66.27c-.25-.24-.49,0-.71.11s-.6.47-.91.69c-.57.39-.83.34-1.1-.31a5.16,5.16,0,0,1-.34-2.8c0-.26.09-.52.11-.64,0-.85-.23-1.07-1-1-.52,0-1.05,0-1.57.09A3.65,3.65,0,0,0,454,63.93a16.86,16.86,0,0,0-1.13,2.39,12.93,12.93,0,0,0-.51,1.48,3.8,3.8,0,0,0-.26,1,1.14,1.14,0,0,0,.65,1.11,1.11,1.11,0,0,0,1.27-.16,4.22,4.22,0,0,0,.58-.54c.47-.5.92-1,1.4-1.53s1.2-.55,1.55.25a7.12,7.12,0,0,0,.36.86,1.29,1.29,0,0,0,2.09.48c.56-.4,1.13-.8,1.66-1.25a5.88,5.88,0,0,0,.8-1A.56.56,0,0,0,462.41,66.27Zm-5.67-1.47c-.42.48-.82,1-1.28,1.44A.29.29,0,0,1,455,66a3,3,0,0,1,1-1.82.56.56,0,0,1,.52,0c.14.07.21.28.29.41S456.79,64.75,456.74,64.8Z"/><path d="M147.21,66.39a.85.85,0,0,0-.66,0,4.87,4.87,0,0,0-.76.52c-.66.46-1.23.28-1.41-.49a5,5,0,0,1-.08-3.17,1.35,1.35,0,0,0,0-.29c0-.39-.13-.58-.54-.59a21.67,21.67,0,0,0-2.42.05,3.79,3.79,0,0,0-3.22,2.61c-.4.94-.7,1.93-1,2.9a6.38,6.38,0,0,0-.15.76h0c0,.12,0,.24,0,.36.07.76.55,1.15,1.27.93a2.76,2.76,0,0,0,1.13-.7c.59-.6,1.09-1.27,1.63-1.91a.55.55,0,0,1,.95,0c.08.12.12.26.2.39.25.4.49.82.78,1.2a1.13,1.13,0,0,0,1.88.23c.62-.48,1.25-1,1.86-1.46a2.35,2.35,0,0,0,.58-.71C147.42,66.88,147.48,66.54,147.21,66.39Zm-5.72-1.6A10.42,10.42,0,0,1,140.8,66a.69.69,0,0,1-.34.23c-.44.19-.65,0-.61-.47a1.8,1.8,0,0,1,1.06-1.43.6.6,0,0,1,.51,0A.54.54,0,0,1,141.49,64.79Z"/><path d="M102.72,66.32a.77.77,0,0,0-.58,0c-.17.06-.29.24-.45.34s-.61.38-.92.56a.48.48,0,0,1-.72-.21,1.31,1.31,0,0,1-.2-.54c-.08-.75-.13-1.52-.19-2.14,0-.4.06-.66.07-.93,0-.9-.23-1.14-1.15-1.09q-.67,0-1.35.09a4.15,4.15,0,0,0-2.34,1,4.41,4.41,0,0,0-1.26,1.89c-.4,1.09-.79,2.19-1.14,3.31A1.25,1.25,0,0,0,93,69.92a1.14,1.14,0,0,0,1.34-.08,4.75,4.75,0,0,0,.72-.7,8.68,8.68,0,0,1,1.89-1.84c.44-.24.63-.18.85.27a1.09,1.09,0,0,1,.13.34,2.47,2.47,0,0,0,.86,1.37c.6.57.9.61,1.56.1s1.33-1.09,2-1.68a2.43,2.43,0,0,0,.57-.81A.65.65,0,0,0,102.72,66.32Zm-5.89-1.17c-.43.49-.89,1-1.38,1.47a.7.7,0,0,1-.14-.85c.18-.39.36-.77.56-1.15a.71.71,0,0,1,.32-.36.84.84,0,0,1,.58,0c.12,0,.19.31.21.47A.67.67,0,0,1,96.83,65.15Z"/><path d="M378.64,66.32c-.29-.27-.52,0-.76.11a11.53,11.53,0,0,1-1.13.74c-.47.25-.72.15-.87-.34a6.68,6.68,0,0,1-.2-1.2,12.13,12.13,0,0,1,0-2.41.78.78,0,0,0-.79-.91,4.17,4.17,0,0,0-.5,0l-1.06.09a4.12,4.12,0,0,0-3.54,2.31c-.66,1.22-.82,2.59-1.38,3.83-.23.5.1,1,.46,1.35a.83.83,0,0,0,1.12,0,4.64,4.64,0,0,0,.88-.71c.48-.47.9-1,1.38-1.46a2.9,2.9,0,0,1,.69-.5.45.45,0,0,1,.71.22,2,2,0,0,1,.17.47,2.73,2.73,0,0,0,.89,1.36c.53.51.87.57,1.45.11.79-.62,1.53-1.31,2.28-2a1.72,1.72,0,0,0,.25-.35A.58.58,0,0,0,378.64,66.32Zm-5.93-1.09c-.43.43-.9.83-1.39,1.27-.32-.16-.2-.44-.11-.66.18-.44.4-.86.62-1.28a1,1,0,0,1,.34-.36.48.48,0,0,1,.74.44A.94.94,0,0,1,372.71,65.23Z"/><path d="M123.94,62.88a8.65,8.65,0,0,0-1.91-.13A4.41,4.41,0,0,0,118,67c.09.57.2,1.13.27,1.69a1.12,1.12,0,0,0,1.81.93,11.31,11.31,0,0,0,3-2.51,16.21,16.21,0,0,0,.94-1.35,10.34,10.34,0,0,1,.57-.89A1.16,1.16,0,0,0,123.94,62.88Zm-1.84,2.65a2.46,2.46,0,0,1-1.23,1.68c-.32.18-.54.07-.64-.3a3.29,3.29,0,0,1-.08-.63,1.67,1.67,0,0,1,.72-1.49.72.72,0,0,1,.87-.06A.8.8,0,0,1,122.1,65.53Z"/><path d="M400,62.94a15.32,15.32,0,0,0-1.53-.3,4.53,4.53,0,0,0-3,1.08,4.14,4.14,0,0,0-1.55,3,15.8,15.8,0,0,0,.33,2.46.83.83,0,0,0,.52.53,1.65,1.65,0,0,0,1.31-.17,13.48,13.48,0,0,0,2.49-2A13.64,13.64,0,0,0,399.8,66c.29-.4.48-.87.77-1.27A1.1,1.1,0,0,0,400,62.94Zm-3.33,4.31a.37.37,0,0,1-.49-.17,2.12,2.12,0,0,1,.55-2.27.73.73,0,0,1,.86-.11.77.77,0,0,1,.38.77A2.45,2.45,0,0,1,396.69,67.25Z"/><path d="M314.92,63c-.46-.17-1-.26-1.44-.39-.63.13-1.25.23-1.85.37a4.07,4.07,0,0,0-2.77,3.07,8.77,8.77,0,0,0,.14,3c.09.52.36.71.89.75a1.91,1.91,0,0,0,1.28-.39c.71-.53,1.37-1.11,2.06-1.66,1.13-.9,1.56-2.26,2.25-3.45A.92.92,0,0,0,314.92,63Zm-2.26,3.05a8,8,0,0,1-.77,1c-.42.45-.84.32-1-.28a3.22,3.22,0,0,1-.06-.5c0-1,.35-1.44,1.06-1.63a.68.68,0,0,1,.95.7A1.42,1.42,0,0,1,312.66,66.06Z"/></svg>