<svg xmlns="http://www.w3.org/2000/svg" viewBox="0 0 117.49 54.54"><defs><style>.a{fill:#000079;}</style></defs><title>logo_library</title><path class="a" d="M19.3,47.4h1.22v6.3h4v.77H19.3Z"/><path class="a" d="M29.93,47.4v7.07H28.69V47.4Z"/><path class="a" d="M34.85,47.49a16.71,16.71,0,0,1,2.23-.15,4.71,4.71,0,0,1,2.61.49,1.37,1.37,0,0,1,.79,1.25c0,.68-.61,1.28-1.6,1.55h0c.9.16,1.95.71,1.95,1.77a1.68,1.68,0,0,1-.8,1.41,5.84,5.84,0,0,1-3.26.67c-.85,0-1.49,0-1.9-.08Zm1.22,2.9h1.12c1.27,0,2-.51,2-1.19s-.83-1.15-2.06-1.15a6.7,6.7,0,0,0-1.09.06Zm0,3.39a8.34,8.34,0,0,0,1,0c1.26,0,2.43-.34,2.43-1.37S38.39,51,37.06,51h-1Z"/><path class="a" d="M45.24,47.49a18.38,18.38,0,0,1,2.34-.15,4.83,4.83,0,0,1,2.74.58,1.57,1.57,0,0,1,.74,1.35c0,.93-.79,1.55-1.78,1.8h0a2,2,0,0,1,1.41,1.46,10.27,10.27,0,0,0,.72,1.94H50.13a7.38,7.38,0,0,1-.62-1.64,1.69,1.69,0,0,0-1.9-1.37H46.46v3.06H45.24Zm1.22,3.23h1.23c1.31,0,2.14-.54,2.14-1.35s-.89-1.32-2.17-1.32a7,7,0,0,0-1.21.08Z"/><path class="a" d="M57.17,52.25l-1,2.22H54.93l3.21-7.07h1.47l3.23,7.07H61.53l-1-2.22Zm3.1-.72-.93-2c-.21-.46-.35-.89-.49-1.29h0c-.14.41-.28.84-.47,1.28l-.93,2Z"/><path class="a" d="M67,47.49a18.38,18.38,0,0,1,2.34-.15,4.83,4.83,0,0,1,2.74.58,1.57,1.57,0,0,1,.74,1.35c0,.93-.79,1.55-1.78,1.8h0a2,2,0,0,1,1.39,1.43,10.27,10.27,0,0,0,.72,1.94H71.9a7.15,7.15,0,0,1-.62-1.61,1.69,1.69,0,0,0-1.9-1.37H68.23v3.06H67Zm1.22,3.23h1.24c1.31,0,2.13-.54,2.13-1.35s-.88-1.32-2.17-1.32a6.92,6.92,0,0,0-1.2.08Z"/><path class="a" d="M78.57,47.4v7.07H77.34V47.4Z"/><path class="a" d="M88.37,51.16H84.69v2.55h4.1v.76h-5.3V47.4h5.1v.76h-3.9V50.4h3.66Z"/><path class="a" d="M93,53.36a5.47,5.47,0,0,0,2.18.46c1.24,0,2-.49,2-1.21s-.52-1-1.79-1.4c-1.54-.41-2.5-1-2.5-2s1.23-1.92,3.06-1.92a5.28,5.28,0,0,1,2.09.34l-.34.75A4.36,4.36,0,0,0,95.93,48c-1.29,0-1.78.58-1.78,1.06,0,.66.57,1,1.88,1.36,1.6.47,2.4,1,2.4,2.08s-1.06,2-3.3,2a6,6,0,0,1-2.44-.42Z"/><path class="a" d="M91.36,27.83H69.51a6.22,6.22,0,0,0-1.34.26.48.48,0,0,0-.31.17c-.35.58-.94.51-1.5.58a1.81,1.81,0,0,0-1.37.68,1,1,0,0,1-.7.3,2,2,0,0,0-1.06.6c-.15.14-.31.27-.47.4l-.69.55c-.09.07-.19.18-.3.18a1.5,1.5,0,0,0-1,.6c-.61.64-1.19,1.3-1.76,2a7.84,7.84,0,0,0-.49.85c-.35.63-.81.72-1.27.2s-.8-1.14-1.25-1.67a5.41,5.41,0,0,0-2.31-2,.34.34,0,0,1-.12-.06,12.72,12.72,0,0,1-1.2-1,2.62,2.62,0,0,0-1.46-.8,1.42,1.42,0,0,1-.62-.4A1.78,1.78,0,0,0,49,28.83a2.66,2.66,0,0,1-1.62-.59A3.46,3.46,0,0,0,46,27.83a.66.66,0,0,0-.28,0H4.69A1.63,1.63,0,0,1,3.2,27.2c-.15-.22-.51-.3-.77-.44l-1.05-.55a3.39,3.39,0,0,0-.53-.38A1.36,1.36,0,0,1,0,24.57a2.62,2.62,0,0,1,.07-.74.86.86,0,0,1,.9-.6H14.58c1.76,0,3.52.06,5.28.06,3,0,6-.06,9-.06,4.25,0,8.49,0,12.73.06.42,0,.83-.08,1.25-.06a9.94,9.94,0,0,1,3.78.62,6,6,0,0,0,1.44.31,3,3,0,0,1,1.33.51,3.3,3.3,0,0,0,.84.42,3.55,3.55,0,0,1,1.37.69,10.9,10.9,0,0,0,1,.55,8.36,8.36,0,0,1,1.28.93c.7.64,1.36,1.32,2,2,.51.53,1,1.11,1.47,1.64A.48.48,0,0,0,58,31a.3.3,0,0,0,.08-.08c.47-.5.92-1,1.37-1.54.14-.15.26-.31.41-.45.82-.78,1.63-1.56,2.47-2.31a4.74,4.74,0,0,1,.86-.46c.28-.15.53-.34.8-.5s.55-.32.83-.45c.44-.21.88-.42,1.34-.59s.94-.33,1.42-.47c.67-.19,1.35-.39,2-.54a12,12,0,0,1,1.88-.28c.81-.07,1.63-.08,2.44-.08,6.32,0,12.63.06,19,.06,7,0,14.06-.05,21.08-.05a12,12,0,0,1,2.32.29,1.37,1.37,0,0,1,1,1.67c0,.23-.3.43-.49.61a2.92,2.92,0,0,1-1.74,1,2.44,2.44,0,0,0-1.2.74,1.09,1.09,0,0,1-.72.27H91.36Z"/><path class="a" d="M92.2,34.83H69.77a1.48,1.48,0,0,0-.57.16,13.08,13.08,0,0,1-1.25.6c-.4.14-.85.14-1.27.24a5.42,5.42,0,0,0-.83.35l-1.25.65c-.2.11-.43.18-.63.29-.38.2-.75.43-1.12.67a5.88,5.88,0,0,0-.59.53c-.11.1-.19.24-.31.3a7.54,7.54,0,0,0-1.78,1.46,12.17,12.17,0,0,0-1,1.25c-.27.35-.51.72-.79,1.06a.73.73,0,0,1-1,.11,1.29,1.29,0,0,1-.16-.17c-.42-.54-.81-1.09-1.27-1.59s-1.06-1.1-1.61-1.62c-.3-.28-.65-.5-1-.77s-.32-.42-.53-.5c-.87-.31-1.53-1-2.46-1.24a1.54,1.54,0,0,1-.61-.34A2.81,2.81,0,0,0,48,35.7a2.13,2.13,0,0,1-.87-.32,3.67,3.67,0,0,0-2.46-.55l-.39.05H4.52A1.85,1.85,0,0,1,3,34.25c-.31-.42-.75-.42-1.16-.55a1.81,1.81,0,0,1-.5-.33,4.78,4.78,0,0,0-.65-.54,1.22,1.22,0,0,1-.63-1.17c0-.68.14-1.07.72-1.24a3.83,3.83,0,0,1,1.07,0c.17,0,.35.06.52.06h40.5a10.55,10.55,0,0,1,2.57.28c.81.21,1.65.32,2.47.53a9,9,0,0,1,1.34.5c.41.16.81.32,1.2.5a12.6,12.6,0,0,1,1.13.64l2.06,1.28a10.22,10.22,0,0,1,2.2,2c.51.58,1,1.17,1.51,1.73.34.38.53.37.88,0,.77-.82,1.5-1.69,2.29-2.49a10.23,10.23,0,0,1,3.1-2.25c.2-.09.35-.28.55-.38.44-.21.89-.4,1.33-.59a5.73,5.73,0,0,0,.83-.39,5.23,5.23,0,0,1,2.3-.7c.6-.08,1.19-.28,1.79-.4A7.64,7.64,0,0,1,72,30.51h42.69a3.87,3.87,0,0,1,2.57,1,.9.9,0,0,1,0,1.26l-.12.09c-.29.21-.52.5-.79.73a2.34,2.34,0,0,1-.49.33,11,11,0,0,0-1.16.64,2.43,2.43,0,0,1-1.53.44Z"/><path class="a" d="M101.38,1.67c0-1.06-.65-1.51-1.6-1.65a8.34,8.34,0,0,0-1,0H95.46a1.2,1.2,0,0,0-1.35,1,1.06,1.06,0,0,0,0,.31V13.2a2.33,2.33,0,0,1-.49,1.54A3.37,3.37,0,0,1,89.74,16a3.94,3.94,0,0,1-1.65-1.17,2,2,0,0,1-.62-1.52v-12a1.18,1.18,0,0,0-1-1.31H75.28c-1.2,0-2.39.14-3.58.13S69.06,0,67.7,0A5.56,5.56,0,0,0,65,.65c-.55.3-1.16.51-1.71.81-.3.16-.52.45-.81.63a7.7,7.7,0,0,0-2.34,2.38,3.54,3.54,0,0,1-.42.69,2.74,2.74,0,0,0-.78,1.47c-.09.41-.54.82-.86.79s-.5-.41-.6-.75A6.11,6.11,0,0,0,57,5.5c-.1-.21-.33-.35-.44-.55A7.4,7.4,0,0,0,54.1,2.21a4.6,4.6,0,0,1-.52-.38,2.39,2.39,0,0,0-1.14-.66C52,1,51.54.8,51.1.59a2.76,2.76,0,0,0-.93-.31C49.07.2,48,.15,46.86.13c-.57,0-1.15.07-1.72.06-.9,0-1.8-.13-2.7-.13H30.92a7.49,7.49,0,0,0-1.16,0c-.89.13-1.56.59-1.55,1.59V8.42a7.34,7.34,0,0,1,0,1.24.55.55,0,0,1-.25.45c-.18.1-.35,0-.48-.23-.79-1.26-1.59-2.52-2.42-3.76-.47-.7-1-1.36-1.48-2.06C22.84,3,22.18,1.83,21.38.78A1.62,1.62,0,0,0,20,.05H16.45A1.79,1.79,0,0,0,15,.43,2,2,0,0,0,14.33,2V19a4.63,4.63,0,0,0,.36,1.8,1.33,1.33,0,0,0,1.26,1c1.37,0,2.74.06,4.1,0,1,0,1.4-.28,1.43-1.33.06-2.41,0-4.82,0-7.24,0-.32-.07-.64-.05-.95a1.5,1.5,0,0,1,.19-.47,1.64,1.64,0,0,1,.48.23c.18.19.28.47.47.66a2.07,2.07,0,0,1,.65,1.18.86.86,0,0,0,.15.32q.63.78,1.29,1.53c.22.26.52.45.52.86a.77.77,0,0,0,.22.5c.58.49.73,1.3,1.39,1.73.18.12.26.38.39.58s.32.54.5.79.49.47.58.75a1.14,1.14,0,0,0,1.23.8q6.06.06,12.2.06c.93,0,1.85-.11,2.78-.13a15.39,15.39,0,0,1,1.79.07,10.79,10.79,0,0,1,1.26.14c.23,0,.53,0,.66.13a3.63,3.63,0,0,0,2.34.82,1.08,1.08,0,0,1,.76.43c.18.37.5.42.8.56s.52.25.77.39a4.21,4.21,0,0,1,.48.35c.27.2.56.39.82.61a7.5,7.5,0,0,1,.62.66c.21.22.27.23.39.35s.35.37.51.56a8.48,8.48,0,0,1,.5.7.27.27,0,0,0,.1.25,4.94,4.94,0,0,1,.92,1.46c.19.43.64.58.92.31a4.9,4.9,0,0,0,1.38-1.78,5,5,0,0,1,.48-.77c.13-.17.26-.32.4-.47l1.43-1.64a.13.13,0,0,0,.1,0c.4-.23.8-.48,1.21-.71a8.59,8.59,0,0,0,1-.52,4.14,4.14,0,0,1,2.19-.86,6.46,6.46,0,0,0,1.57-.53,3.91,3.91,0,0,1,.81-.29c.77-.08,1.54-.1,2.31-.16.47,0,.94-.12,1.41-.12s.72.12,1.09.12q6.62.12,13.2.12c1.41,0,2.82,0,4.24-.07q1.53,0,3.06-.15a1.62,1.62,0,0,0,.78-.17,3.6,3.6,0,0,1,1.58-.55,1.86,1.86,0,0,0,.85-.37A21.07,21.07,0,0,0,98.79,19c.23-.23.44-.48.65-.73s.23-.42.4-.53a1.41,1.41,0,0,0,.64-1.3,2.61,2.61,0,0,1,.47-1.49,2.13,2.13,0,0,0,.4-1.33C101.37,9.61,101.35,5.64,101.38,1.67ZM53.69,15.44c-.2.4-.43.79-.65,1.19a2.29,2.29,0,0,1-.35.6c-.61.59-1.23,1.17-1.87,1.72a2.86,2.86,0,0,1-.75.35,4.87,4.87,0,0,0-.71.3,3,3,0,0,1-1.57.44,9.21,9.21,0,0,0-1.72.22,4.17,4.17,0,0,1-1.76,0,15.7,15.7,0,0,1-1.88-.48c-.54-.18-1-.51-1.56-.69a6.79,6.79,0,0,1-2-1.16,7.34,7.34,0,0,1-.71-.95,5.38,5.38,0,0,1-.86-1.53c-.11-.29-.33-.54-.46-.83a2.67,2.67,0,0,1-.32-.91c-.06-1.42-.07-2.84-.08-4.27a13.09,13.09,0,0,1,.07-1.66,1.61,1.61,0,0,1,.38-.92,2,2,0,0,0,.6-1.38,1,1,0,0,1,.42-.7c.17-.17.3-.37.47-.54s.51-.46.77-.69h.06c.58-.76,1.6-.59,2.28-1.07a4.37,4.37,0,0,1,2.84-.63h3.2A2.12,2.12,0,0,1,49,2.37a3.55,3.55,0,0,0,1.41.46,1.32,1.32,0,0,1,.63.33c.59.56,1.18,1.14,1.73,1.74a1.87,1.87,0,0,1,.34.79,1.3,1.3,0,0,1,0,.62c-.1.57-.38.81-1.08.82a7.13,7.13,0,0,0-1.88.28c-.89.25-1.21,0-1.85-.77a3.33,3.33,0,0,0-1.78-1.46A3.3,3.3,0,0,0,43.16,6a2.74,2.74,0,0,1-.41.34,1.85,1.85,0,0,0-.69,1.23,5.82,5.82,0,0,1-.59,1.65,4.91,4.91,0,0,0-.31,2.28,6.78,6.78,0,0,0,.71,2.19,4.37,4.37,0,0,1,.19,1.07,1.19,1.19,0,0,0,.51.84c.44.32.88.66,1.33,1a1.27,1.27,0,0,0,.55.2,20.87,20.87,0,0,0,2.24-.1c.21,0,.41-.24.6-.38A8.52,8.52,0,0,0,48,15.7a3.3,3.3,0,0,0,.51-.62c.35-.49.68-1,1-1.5a.46.46,0,0,1,.62-.12v0a3.38,3.38,0,0,0,1.55.35,3.54,3.54,0,0,1,1.29.31,2.16,2.16,0,0,1,.73.8C53.81,15.05,53.69,15.29,53.69,15.44Zm26,0A3.84,3.84,0,0,0,79,16.67a2.09,2.09,0,0,1-.45.66c-.54.52-1.1,1-1.66,1.52a.83.83,0,0,1-.27.17,8,8,0,0,0-2,1,3.14,3.14,0,0,1-1.21.31,8.33,8.33,0,0,1-1.33.13,9.69,9.69,0,0,1-1.18-.2L69.11,20a2.9,2.9,0,0,1-.71-.15,19.94,19.94,0,0,1-3.26-1.65L65,18.08a10.47,10.47,0,0,1-1.6-2.4,5.1,5.1,0,0,0-.48-.89,2.34,2.34,0,0,1-.39-1.26V8.13A1.64,1.64,0,0,1,63,6.92a2.06,2.06,0,0,0,.52-1.24A1.11,1.11,0,0,1,64,4.83a.73.73,0,0,0,.24-.22,4,4,0,0,1,2.62-1.84,2.81,2.81,0,0,0,1-.44,2.34,2.34,0,0,1,1.55-.45,4.86,4.86,0,0,0,.54,0h0a9.63,9.63,0,0,1,1.31,0c1.12,0,2.25.12,3.37.22a1,1,0,0,1,.6.27,1.78,1.78,0,0,0,1,.44,1.23,1.23,0,0,1,1,.6c0,.09.14.15.21.22.51.51,1,1,1.52,1.54a1.23,1.23,0,0,1-.07,1.71,3.2,3.2,0,0,1-1.06.28,12.34,12.34,0,0,0-1.46.24,1.49,1.49,0,0,1-2-.68h0a3.43,3.43,0,0,0-1.8-1.49A3.31,3.31,0,0,0,69.16,6c-.22.22-.44.43-.67.63A3.54,3.54,0,0,0,68,7.85a4.15,4.15,0,0,1-.23.76,5.87,5.87,0,0,0-.34,4c.12.31.25.63.4.93a7.11,7.11,0,0,1,.29,1.37,1.19,1.19,0,0,0,.49.71c.29.25.6.46.89.7a2.06,2.06,0,0,0,1.23.47h1.66a.94.94,0,0,0,.87-.44,1.74,1.74,0,0,1,.39-.42,7.1,7.1,0,0,0,1.76-2.1c.3-.41.45-.47.94-.29a8.9,8.9,0,0,0,1.34.29,5.21,5.21,0,0,1,1.3.29,2.65,2.65,0,0,1,.83.9A.5.5,0,0,1,79.69,15.43Z"/></svg>